<?xml version="1.0" encoding="UTF-8"?>
<svg id="Layer_2" data-name="Layer 2" xmlns="http://www.w3.org/2000/svg" viewBox="0 0 124.77 120.91">
  <defs>
    <style>
      .cls-1 {
        fill: #f6daaf;
      }

      .cls-1, .cls-2, .cls-3, .cls-4 {
        stroke: #000;
        stroke-miterlimit: 10;
        stroke-width: .75px;
      }

      .cls-2, .cls-5 {
        fill: aqua;
      }

      .cls-6 {
        fill: #fcee21;
      }

      .cls-3, .cls-7 {
        fill: #ff97eb;
      }

      .cls-4 {
        fill: none;
      }

      .cls-8 {
        fill: #22b573;
      }

      .cls-9 {
        fill: #912dcd;
      }
    </style>
  </defs>
  <g id="cake">
    <line class="cls-4" x1="15.25" y1="53.66" x2="15.25" y2="53.16"/>
    <polygon class="cls-4" points="15.25 53.15 15.22 49.85 15.02 23.55 15.25 53.15"/>
    <path class="cls-1" d="M122.2,100.82c0,10.39-26.6,18.81-59.4,18.81S3.4,111.22,3.4,100.82l-.37-43.44c0,10.39,26.59,18.81,59.4,18.81s59.4-8.42,59.4-18.81l.37,43.44Z"/>
    <path class="cls-3" d="M122.06,99.89c-3.1,1.81-6.06-5.49-9.24-4.48-2.39.76-3.92,5.81-5.74,9.32-4.58,8.8-11.54,7.98-17.31,3.81-3.61-2.61-7.29-6.39-11.05-5.09-3.62,1.25-6.58,7.01-10.07,9.5-11.06,7.88-22.69-18.74-33.77-11.03-1.23.86-2.4,2.12-3.64,2.91-2.84,1.82-6.01,1-8.58-2.22-2.55-3.19-4.66-8.71-7.58-9.44-2.07-.52-4.08,1.55-6.12,2.48s-5.07.56-5.53-3.93c-.26-2.5-.28-7.07-.28-7.07l.05-27.27h118.8l.05,42.5Z"/>
    <path class="cls-3" d="M105.99,47.82c-10.83-2.74-26.26-4.45-43.37-4.45-19.35,0-36.55,2.18-47.39,5.57-7.54,2.34-12.01,5.26-12.01,8.43,0,7.74,26.59,14.01,59.4,14.01s59.4-6.27,59.4-14.01c0-3.7-6.08-7.07-16.03-9.56ZM60.52,59.81c-25.07,0-45.38-3.17-45.38-7.08,0-.16.03-.31.11-.47h0c1.56-3.7,21.23-6.62,45.28-6.62s45.39,3.17,45.39,7.09-20.32,7.08-45.39,7.08Z"/>
    <path class="cls-1" d="M106.02,48.23c0,8.41-20.31,15.23-45.36,15.23s-45.36-6.82-45.36-15.23l-.28-35.16c0,8.41,20.31,15.23,45.36,15.23s45.36-6.82,45.36-15.23l.28,35.16Z"/>
    <path class="cls-3" d="M105.99,39.23c-3-2.13-6.23-2.58-9.35-1.43-5.07,1.88-9.54,7.96-14.32,12-8.03,6.79-17.12,7.71-25.42,2.59-1.96-1.21-3.88-2.75-5.88-3.63-5.68-2.5-11.52.43-17.27,2s-11.64,4.71-15.59-4.35c-.54-1.23-1.32-3.11-2.72-7.96l-.22-25.68,90.77-1.67.23,52.96"/>
    <ellipse class="cls-3" cx="60.46" cy="11.56" rx="45.5" ry="11.19"/>
    <g>
      <ellipse class="cls-2" cx="3.93" cy="105.76" rx="3.56" ry="4.32"/>
      <ellipse class="cls-2" cx="9.11" cy="108.39" rx="3.56" ry="4.32"/>
      <ellipse class="cls-2" cx="13.57" cy="110.08" rx="3.56" ry="4.32"/>
      <ellipse class="cls-2" cx="18.73" cy="111.52" rx="3.56" ry="4.32"/>
      <ellipse class="cls-2" cx="24.46" cy="112.71" rx="3.56" ry="4.32"/>
      <ellipse class="cls-2" cx="30.14" cy="113.52" rx="3.56" ry="4.32"/>
      <ellipse class="cls-2" cx="35.13" cy="114.47" rx="3.56" ry="4.32"/>
      <ellipse class="cls-2" cx="41.24" cy="115.14" rx="3.56" ry="4.32"/>
      <ellipse class="cls-2" cx="46.09" cy="115.84" rx="3.56" ry="4.32"/>
      <ellipse class="cls-2" cx="51.27" cy="115.84" rx="3.56" ry="4.32"/>
      <ellipse class="cls-2" cx="57.04" cy="115.84" rx="3.56" ry="4.32"/>
      <ellipse class="cls-2" cx="120.84" cy="106.13" rx="3.56" ry="4.32"/>
      <ellipse class="cls-2" cx="115.67" cy="108.76" rx="3.56" ry="4.32"/>
      <ellipse class="cls-2" cx="111.2" cy="110.45" rx="3.56" ry="4.32"/>
      <ellipse class="cls-2" cx="106.04" cy="111.89" rx="3.56" ry="4.32"/>
      <ellipse class="cls-2" cx="100.31" cy="113.08" rx="3.56" ry="4.32"/>
      <ellipse class="cls-2" cx="94.63" cy="113.88" rx="3.56" ry="4.32"/>
      <ellipse class="cls-2" cx="89.64" cy="114.84" rx="3.56" ry="4.32"/>
      <ellipse class="cls-2" cx="83.53" cy="115.51" rx="3.56" ry="4.32"/>
      <ellipse class="cls-2" cx="78.6" cy="116.21" rx="3.56" ry="4.32"/>
      <ellipse class="cls-2" cx="73.34" cy="116.21" rx="3.56" ry="4.32"/>
      <ellipse class="cls-2" cx="62.31" cy="116.21" rx="3.56" ry="4.32"/>
      <ellipse class="cls-2" cx="67.57" cy="116.21" rx="3.56" ry="4.32"/>
    </g>
    <g>
      <ellipse class="cls-2" cx="14.84" cy="53.73" rx="2.78" ry="3.02"/>
      <ellipse class="cls-2" cx="18.88" cy="55.57" rx="2.78" ry="3.02"/>
      <ellipse class="cls-2" cx="22.37" cy="56.75" rx="2.78" ry="3.02"/>
      <ellipse class="cls-2" cx="26.4" cy="57.76" rx="2.78" ry="3.02"/>
      <ellipse class="cls-2" cx="30.88" cy="58.59" rx="2.78" ry="3.02"/>
      <ellipse class="cls-2" cx="35.32" cy="59.15" rx="2.78" ry="3.02"/>
      <ellipse class="cls-2" cx="39.22" cy="59.82" rx="2.78" ry="3.02"/>
      <ellipse class="cls-2" cx="44" cy="60.29" rx="2.78" ry="3.02"/>
      <ellipse class="cls-2" cx="47.79" cy="60.78" rx="2.78" ry="3.02"/>
      <ellipse class="cls-2" cx="51.84" cy="60.78" rx="2.78" ry="3.02"/>
      <ellipse class="cls-2" cx="56.35" cy="60.78" rx="2.78" ry="3.02"/>
      <ellipse class="cls-2" cx="106.22" cy="53.99" rx="2.78" ry="3.02"/>
      <ellipse class="cls-2" cx="102.17" cy="55.83" rx="2.78" ry="3.02"/>
      <ellipse class="cls-2" cx="98.69" cy="57.01" rx="2.78" ry="3.02"/>
      <ellipse class="cls-2" cx="94.65" cy="58.02" rx="2.78" ry="3.02"/>
      <ellipse class="cls-2" cx="90.17" cy="58.85" rx="2.78" ry="3.02"/>
      <ellipse class="cls-2" cx="85.73" cy="59.41" rx="2.78" ry="3.02"/>
      <ellipse class="cls-2" cx="81.83" cy="60.08" rx="2.78" ry="3.02"/>
      <ellipse class="cls-2" cx="77.06" cy="60.55" rx="2.78" ry="3.02"/>
      <ellipse class="cls-2" cx="73.2" cy="61.04" rx="2.78" ry="3.02"/>
      <ellipse class="cls-2" cx="69.09" cy="61.04" rx="2.78" ry="3.02"/>
      <ellipse class="cls-2" cx="60.46" cy="61.04" rx="2.78" ry="3.02"/>
      <ellipse class="cls-2" cx="64.58" cy="61.04" rx="2.78" ry="3.02"/>
    </g>
    <g>
      <path class="cls-8" d="M28.48,29.87l-3.36-1.13c-.51-.17-1.04.19-1.18.81h0c-.14.62.16,1.26.67,1.43l3.36,1.13c.51.17,1.04-.19,1.18-.81h0c.14-.62-.16-1.26-.67-1.43Z"/>
      <path class="cls-5" d="M33.17,36.66l-3.48.04c-.53,0-.95.53-.95,1.17h0c0,.64.44,1.16.97,1.15l3.48-.04c.53,0,.95-.53.95-1.17h0c0-.64-.44-1.16-.97-1.15Z"/>
      <path class="cls-9" d="M35.04,29.84l.58-4.17c.09-.63-.26-1.23-.79-1.34h0c-.52-.11-1.02.32-1.1.95l-.58,4.17c-.09.63.26,1.23.79,1.34h0c.52.11,1.02-.32,1.1-.95Z"/>
      <path class="cls-6" d="M28.07,26.79l-.34-.17-.33.18c-.34.19-.76-.08-.73-.47l.04-.59-.4-.53c-.21-.28-.07-.68.26-.77l.51-.15.18-.38c.17-.37.7-.38.89-.01l.18.37.51.13c.34.08.48.48.28.76l-.39.55.06.6c.04.39-.37.66-.71.48Z"/>
      <path class="cls-6" d="M36.79,35.81l-.21-.11-.2.11c-.34.19-.76-.08-.73-.47l.03-.42-.3-.4c-.21-.28-.07-.68.26-.77l.37-.11.11-.23c.17-.37.7-.38.89-.01l.11.22.37.09c.34.08.48.48.28.76l-.29.41.04.42c.04.39-.37.66-.71.48Z"/>
    </g>
    <g>
      <path class="cls-8" d="M51.74,27.37l2.66-2.73c.4-.41.46-1.15.12-1.64h0c-.34-.49-.94-.55-1.35-.14l-2.66,2.73c-.4.41-.46,1.15-.12,1.64h0c.34.49.94.55,1.35.14Z"/>
      <path class="cls-5" d="M44.48,28.23l1.94-3.51c.3-.53.18-1.26-.26-1.61h0c-.44-.36-1.03-.22-1.33.32l-1.94,3.51c-.3.53-.18,1.26.26,1.61h0c.44.36,1.03.22,1.33-.32Z"/>
      <path class="cls-9" d="M48.05,33.96l2.51,2.93c.38.45.99.43,1.35-.03h0c.37-.46.36-1.2-.03-1.64l-2.51-2.93c-.38-.45-.99-.43-1.35.03h0c-.37.46-.36,1.2.03,1.64Z"/>
      <path class="cls-6" d="M53.88,28.84l.49-.39.07-.51c.06-.4.55-.56.83-.28l.26.26.42-.07c.36-.06.66.28.55.64l-.2.63.25.62c.14.34-.13.7-.49.67l-.45-.03-.24.29c-.26.31-.77.18-.86-.22l-.1-.48-.51-.33c-.28-.18-.3-.59-.04-.8Z"/>
      <path class="cls-6" d="M42.83,32.47l.37-.29.05-.34c.06-.4.55-.56.83-.28l.15.15.28-.05c.36-.06.66.28.55.64l-.15.46.18.46c.14.34-.13.7-.49.67l-.3-.02-.14.16c-.26.31-.77.18-.86-.22l-.07-.31-.38-.25c-.28-.18-.3-.59-.04-.8Z"/>
    </g>
    <g>
      <path class="cls-8" d="M66.86,7.68l-3.36-1.13c-.51-.17-1.04.19-1.18.81h0c-.14.62.16,1.26.67,1.43l3.36,1.13c.51.17,1.04-.19,1.18-.81h0c.14-.62-.16-1.26-.67-1.43Z"/>
      <path class="cls-5" d="M71.55,14.46l-3.48.04c-.53,0-.95.53-.95,1.17h0c0,.64.44,1.16.97,1.15l3.48-.04c.53,0,.95-.53.95-1.17h0c0-.64-.44-1.16-.97-1.15Z"/>
      <path class="cls-9" d="M73.42,7.65l.58-4.17c.09-.63-.26-1.23-.79-1.34h0c-.52-.11-1.02.32-1.1.95l-.58,4.17c-.09.63.26,1.23.79,1.34h0c.52.11,1.02-.32,1.1-.95Z"/>
      <path class="cls-6" d="M66.45,4.59l-.34-.17-.33.18c-.34.19-.76-.08-.73-.47l.04-.59-.4-.53c-.21-.28-.07-.68.26-.77l.51-.15.18-.38c.17-.37.7-.38.89-.01l.18.37.51.13c.34.08.48.48.28.76l-.39.55.06.6c.04.39-.37.66-.71.48Z"/>
      <path class="cls-6" d="M75.16,13.62l-.21-.11-.2.11c-.34.19-.76-.08-.73-.47l.03-.42-.3-.4c-.21-.28-.07-.68.26-.77l.37-.11.11-.23c.17-.37.7-.38.89-.01l.11.22.37.09c.34.08.48.48.28.76l-.29.41.04.42c.04.39-.37.66-.71.48Z"/>
    </g>
    <g>
      <path class="cls-8" d="M56.75,38.92l-3.36-1.13c-.51-.17-1.04.19-1.18.81h0c-.14.62.16,1.26.67,1.43l3.36,1.13c.51.17,1.04-.19,1.18-.81h0c.14-.62-.16-1.26-.67-1.43Z"/>
      <path class="cls-5" d="M61.43,45.71l-3.48.04c-.53,0-.95.53-.95,1.17h0c0,.64.44,1.16.97,1.15l3.48-.04c.53,0,.95-.53.95-1.17h0c0-.64-.44-1.16-.97-1.15Z"/>
      <path class="cls-9" d="M63.31,38.89l.58-4.17c.09-.63-.26-1.23-.79-1.34h0c-.52-.11-1.02.32-1.1.95l-.58,4.17c-.09.63.26,1.23.79,1.34h0c.52.11,1.02-.32,1.1-.95Z"/>
      <path class="cls-6" d="M56.33,35.83l-.34-.17-.33.18c-.34.19-.76-.08-.73-.47l.04-.59-.4-.53c-.21-.28-.07-.68.26-.77l.51-.15.18-.38c.17-.37.7-.38.89-.01l.18.37.51.13c.34.08.48.48.28.76l-.39.55.06.6c.04.39-.37.66-.71.48Z"/>
      <path class="cls-6" d="M65.05,44.86l-.21-.11-.2.11c-.34.19-.76-.08-.73-.47l.03-.42-.3-.4c-.21-.28-.07-.68.26-.77l.37-.11.11-.23c.17-.37.7-.38.89-.01l.11.22.37.09c.34.08.48.48.28.76l-.29.41.04.42c.04.39-.37.66-.71.48Z"/>
    </g>
    <g>
      <path class="cls-8" d="M49.7,7.68l-3.36-1.13c-.51-.17-1.04.19-1.18.81h0c-.14.62.16,1.26.67,1.43l3.36,1.13c.51.17,1.04-.19,1.18-.81h0c.14-.62-.16-1.26-.67-1.43Z"/>
      <path class="cls-5" d="M54.38,14.47l-3.48.04c-.53,0-.95.53-.95,1.17h0c0,.64.44,1.16.97,1.15l3.48-.04c.53,0,.95-.53.95-1.17h0c0-.64-.44-1.16-.97-1.15Z"/>
      <path class="cls-9" d="M56.26,7.65l.58-4.17c.09-.63-.26-1.23-.79-1.34h0c-.52-.11-1.02.32-1.1.95l-.58,4.17c-.09.63.26,1.23.79,1.34h0c.52.11,1.02-.32,1.1-.95Z"/>
      <path class="cls-6" d="M49.28,4.6l-.34-.17-.33.18c-.34.19-.76-.08-.73-.47l.04-.59-.4-.53c-.21-.28-.07-.68.26-.77l.51-.15.18-.38c.17-.37.7-.38.89-.01l.18.37.51.13c.34.08.48.48.28.76l-.39.55.06.6c.04.39-.37.66-.71.48Z"/>
      <path class="cls-6" d="M58,13.62l-.21-.11-.2.11c-.34.19-.76-.08-.73-.47l.03-.42-.3-.4c-.21-.28-.07-.68.26-.77l.37-.11.11-.23c.17-.37.7-.38.89-.01l.11.22.37.09c.34.08.48.48.28.76l-.29.41.04.42c.04.39-.37.66-.71.48Z"/>
    </g>
    <g>
      <path class="cls-8" d="M35.79,37.61l-.94-4.07c-.14-.62-.67-.98-1.18-.8h0c-.51.17-.81.82-.66,1.43l.94,4.07c.14.62.67.98,1.18.8h0c.51-.17.81-.82.66-1.43Z"/>
      <path class="cls-5" d="M33.44,45.99l-1.83-3.6c-.28-.55-.87-.72-1.32-.38h0c-.45.34-.59,1.05-.31,1.6l1.83,3.6c.28.55.87.72,1.32.38h0c.45-.34.59-1.05.31-1.6Z"/>
      <path class="cls-9" d="M39.21,44.41l3.24-1.56c.49-.24.73-.91.54-1.51h0c-.2-.6-.75-.89-1.24-.65l-3.24,1.56c-.49.24-.73.91-.54,1.51h0c.2.6.75.89,1.24.65Z"/>
      <path class="cls-6" d="M37.76,35.66l-.06-.52-.49-.4c-.26-.22-.23-.63.06-.8l.51-.31.11-.47c.1-.4.61-.51.86-.19l.24.29.46-.02c.36-.01.61.36.47.69l-.27.62.18.63c.1.36-.21.7-.57.62l-.42-.09-.27.25c-.29.28-.78.1-.83-.3Z"/>
      <path class="cls-6" d="M35.92,49.39l-.04-.35-.37-.3c-.26-.22-.23-.63.06-.8l.38-.23.07-.3c.1-.4.61-.51.86-.19l.13.17h.31c.36-.02.61.34.47.68l-.2.46.13.46c.1.36-.21.7-.57.62l-.27-.06-.15.14c-.29.28-.78.1-.83-.3Z"/>
    </g>
    <g>
      <path class="cls-8" d="M21.69,34.82l-.79-4.12c-.12-.63-.63-1.02-1.15-.87h0c-.52.14-.84.77-.72,1.4l.79,4.12c.12.63.63,1.02,1.15.87h0c.52-.14.84-.77.72-1.4Z"/>
      <path class="cls-5" d="M19.02,43.06l-1.69-3.7c-.26-.56-.84-.76-1.3-.45h0c-.46.31-.63,1.02-.37,1.58l1.69,3.7c.26.56.84.76,1.3.45h0c.46-.31.63-1.02.37-1.58Z"/>
      <path class="cls-9" d="M24.84,41.8l3.29-1.38c.5-.21.77-.87.59-1.48h0c-.17-.61-.72-.93-1.22-.72l-3.29,1.38c-.5.21-.77.87-.59,1.48h0c.17.61.72.93,1.22.72Z"/>
      <path class="cls-6" d="M23.73,32.99l-.04-.54-.47-.43c-.25-.23-.2-.64.1-.8l.52-.28.13-.45c.11-.39.63-.49.87-.16l.23.31h.47c.36.02.59.39.43.72l-.29.61.16.63c.09.36-.24.69-.6.6l-.4-.11-.28.24c-.31.26-.78.06-.81-.34Z"/>
      <path class="cls-6" d="M21.36,46.6l-.03-.36-.36-.33c-.25-.23-.2-.64.1-.8l.38-.2.08-.28c.11-.39.63-.49.87-.16l.13.18h.33c.36.02.59.39.43.71l-.22.45.11.46c.09.36-.24.69-.6.6l-.26-.07-.16.14c-.31.26-.78.06-.81-.34Z"/>
    </g>
    <g>
      <path class="cls-8" d="M85.35,8.98l-3.36-1.13c-.51-.17-1.04.19-1.18.81h0c-.14.62.16,1.26.67,1.43l3.36,1.13c.51.17,1.04-.19,1.18-.81h0c.14-.62-.16-1.26-.67-1.43Z"/>
      <path class="cls-5" d="M90.04,15.77l-3.48.04c-.53,0-.95.53-.95,1.17h0c0,.64.44,1.16.97,1.15l3.48-.04c.53,0,.95-.53.95-1.17h0c0-.64-.44-1.16-.97-1.15Z"/>
      <path class="cls-9" d="M91.91,8.95l.58-4.17c.09-.63-.26-1.23-.79-1.34h0c-.52-.11-1.02.32-1.1.95l-.58,4.17c-.09.63.26,1.23.79,1.34h0c.52.11,1.02-.32,1.1-.95Z"/>
      <path class="cls-6" d="M84.94,5.9l-.34-.17-.33.18c-.34.19-.76-.08-.73-.47l.04-.59-.4-.53c-.21-.28-.07-.68.26-.77l.51-.15.18-.38c.17-.37.7-.38.89-.01l.18.37.51.13c.34.08.48.48.28.76l-.39.55.06.6c.04.39-.37.66-.71.48Z"/>
      <path class="cls-6" d="M93.65,14.92l-.21-.11-.2.11c-.34.19-.76-.08-.73-.47l.03-.42-.3-.4c-.21-.28-.07-.68.26-.77l.37-.11.11-.23c.17-.37.7-.38.89-.01l.11.22.37.09c.34.08.48.48.28.76l-.29.41.04.42c.04.39-.37.66-.71.48Z"/>
    </g>
    <g>
      <path class="cls-8" d="M74.86,44.38l2.79,2.53c.42.38,1.02.28,1.34-.24h0c.32-.52.23-1.24-.2-1.63l-2.79-2.53c-.42-.38-1.02-.28-1.34.24h0c-.32.52-.23,1.24.2,1.63Z"/>
      <path class="cls-5" d="M72.52,35.99l3.26,1.5c.49.23,1.05-.08,1.23-.68h0c.19-.6-.06-1.27-.56-1.5l-3.26-1.5c-.49-.23-1.05.08-1.23.68h0c-.19.6.06,1.27.56,1.5Z"/>
      <path class="cls-9" d="M68.74,41.52l-1.78,3.64c-.27.55-.12,1.27.33,1.59h0c.45.33,1.04.15,1.31-.41l1.78-3.64c.27-.55.12-1.27-.33-1.59h0c-.45-.33-1.04-.15-1.31.41Z"/>
      <path class="cls-6" d="M74.35,47.46l.24.29.45-.03c.36-.02.63.34.49.68l-.25.62.2.63c.11.35-.19.7-.55.64l-.42-.07-.26.26c-.29.28-.78.12-.83-.28l-.07-.51-.49-.39c-.27-.21-.25-.62.04-.8l.51-.33.1-.48c.09-.4.59-.52.86-.21Z"/>
      <path class="cls-6" d="M68.92,35.22l.14.16.3-.02c.36-.02.63.34.49.68l-.19.46.15.46c.11.35-.19.7-.55.64l-.28-.05-.15.15c-.29.28-.78.12-.83-.28l-.05-.34-.37-.29c-.27-.21-.25-.62.04-.8l.38-.25.07-.31c.09-.4.59-.52.86-.21Z"/>
    </g>
    <g>
      <path class="cls-8" d="M79.38,34.84l-3.36-1.13c-.51-.17-1.04.19-1.18.81h0c-.14.62.16,1.26.67,1.43l3.36,1.13c.51.17,1.04-.19,1.18-.81h0c.14-.62-.16-1.26-.67-1.43Z"/>
      <path class="cls-5" d="M84.07,41.63l-3.48.04c-.53,0-.95.53-.95,1.17h0c0,.64.44,1.16.97,1.15l3.48-.04c.53,0,.95-.53.95-1.17h0c0-.64-.44-1.16-.97-1.15Z"/>
      <path class="cls-9" d="M85.94,34.81l.58-4.17c.09-.63-.26-1.23-.79-1.34h0c-.52-.11-1.02.32-1.1.95l-.58,4.17c-.09.63.26,1.23.79,1.34h0c.52.11,1.02-.32,1.1-.95Z"/>
      <path class="cls-6" d="M78.97,31.76l-.34-.17-.33.18c-.34.19-.76-.08-.73-.47l.04-.59-.4-.53c-.21-.28-.07-.68.26-.77l.51-.15.18-.38c.17-.37.7-.38.89-.01l.18.37.51.13c.34.08.48.48.28.76l-.39.55.06.6c.04.39-.37.66-.71.48Z"/>
      <path class="cls-6" d="M87.68,40.78l-.21-.11-.2.11c-.34.19-.76-.08-.73-.47l.03-.42-.3-.4c-.21-.28-.07-.68.26-.77l.37-.11.11-.23c.17-.37.7-.38.89-.01l.11.22.37.09c.34.08.48.48.28.76l-.29.41.04.42c.04.39-.37.66-.71.48Z"/>
    </g>
    <g>
      <path class="cls-8" d="M63.05,20.23l-1.93-3.52c-.29-.53-.89-.68-1.33-.32h0c-.44.36-.56,1.08-.26,1.61l1.93,3.52c.29.53.89.68,1.33.32h0c.44-.36.56-1.08.26-1.61Z"/>
      <path class="cls-5" d="M62.94,29.08l-2.66-2.73c-.4-.42-1.01-.35-1.35.14h0c-.34.49-.29,1.22.11,1.64l2.66,2.73c.4.42,1.01.35,1.35-.14h0c.34-.49.29-1.22-.11-1.64Z"/>
      <path class="cls-9" d="M68.03,25.41l2.68-2.7c.41-.41.46-1.14.13-1.64h0c-.34-.49-.94-.56-1.35-.15l-2.68,2.7c-.41.41-.46,1.14-.13,1.64h0c.34.49.94.56,1.35.15Z"/>
      <path class="cls-6" d="M64.39,17.56l-.16-.4-.52-.19c-.32-.12-.43-.52-.21-.78l.43-.51v-.58c-.02-.39.41-.64.74-.43l.32.2.36-.16c.35-.15.74.14.68.52l-.09.61.36.57c.19.3.02.69-.33.75l-.5.09-.2.35c-.2.36-.73.33-.89-.06Z"/>
      <path class="cls-6" d="M66.13,31.31l-.1-.24-.38-.14c-.32-.12-.43-.52-.21-.78l.32-.38v-.4c-.02-.39.42-.64.75-.43l.19.12.22-.1c.35-.15.74.14.68.52l-.06.44.27.43c.19.3.02.69-.33.75l-.36.06-.12.2c-.2.36-.73.33-.89-.06Z"/>
    </g>
    <g>
      <path class="cls-8" d="M91.21,27.71l-3.3,1.35c-.5.21-.77.87-.6,1.47h0c.17.61.71.94,1.21.73l3.3-1.35c.5-.21.77-.87.6-1.47h0c-.17-.61-.71-.94-1.21-.73Z"/>
      <path class="cls-5" d="M98.23,30.14l-2.87,2.4c-.44.36-.54,1.09-.24,1.62h0c.3.53.9.66,1.33.3l2.87-2.4c.44-.36.54-1.09.24-1.62h0c-.3-.53-.9-.66-1.33-.3Z"/>
      <path class="cls-9" d="M96.63,23.22l-1.45-3.85c-.22-.58-.79-.84-1.27-.57h0c-.48.27-.69.96-.47,1.54l1.45,3.85c.22.58.79.84,1.27.57h0c.48-.27.69-.96.47-1.54Z"/>
      <path class="cls-6" d="M89.59,25.4l-.51.12-.19.37c-.19.37-.71.36-.89-.02l-.18-.38-.51-.15c-.33-.1-.46-.5-.25-.77l.4-.53-.04-.59c-.03-.39.39-.65.73-.46l.33.19.34-.17c.35-.17.75.1.71.49l-.06.6.39.55c.2.28.05.68-.29.76Z"/>
      <path class="cls-6" d="M100.97,26.94l-.37.09-.11.22c-.19.37-.71.36-.89-.02l-.11-.23-.37-.11c-.33-.1-.46-.5-.25-.77l.31-.4-.03-.42c-.03-.39.39-.65.73-.46l.2.11.21-.1c.35-.17.75.1.71.49l-.04.42.29.41c.2.28.05.68-.29.76Z"/>
    </g>
    <g>
      <path class="cls-8" d="M40.54,8.75l2.25-3.23c.34-.49.29-1.22-.11-1.64h0c-.4-.41-1.01-.35-1.35.14l-2.25,3.23c-.34.49-.29,1.22.11,1.64h0c.4.41,1.01.35,1.35-.14Z"/>
      <path class="cls-5" d="M33.5,11.09l1.43-3.86c.22-.59,0-1.27-.48-1.54h0c-.48-.26-1.05,0-1.27.58l-1.43,3.86c-.22.59,0,1.27.48,1.54h0c.48.26,1.05,0,1.27-.58Z"/>
      <path class="cls-9" d="M37.82,16l2.88,2.38c.44.36,1.03.22,1.33-.31h0c.3-.53.18-1.25-.25-1.62l-2.88-2.38c-.44-.36-1.03-.22-1.33.31h0c-.3.53-.18,1.25.25,1.62Z"/>
      <path class="cls-6" d="M42.85,9.77l.44-.49v-.57c0-.4.45-.63.77-.4l.31.21.37-.14c.36-.14.73.16.66.54l-.1.62.34.58c.18.3,0,.69-.36.74l-.49.07-.21.34c-.21.35-.74.3-.88-.08l-.16-.41-.52-.21c-.32-.13-.41-.53-.18-.79Z"/>
      <path class="cls-6" d="M32.46,15.62l.33-.37v-.39c0-.4.45-.63.77-.4l.18.12.23-.09c.36-.14.73.16.66.54l-.07.44.26.44c.18.3,0,.69-.36.74l-.35.05-.12.2c-.21.35-.74.3-.88-.08l-.09-.25-.38-.15c-.32-.13-.41-.53-.18-.79Z"/>
    </g>
    <path class="cls-7" d="M106.76,65.11l.99-5.72c.07-.41.06-.79-.15-1.16-.18-.31-.54-.61-.9-.69-.73-.17-1.7.22-1.85,1.05l-.99,5.72c-.07.41-.06.79.15,1.16.18.31.54.61.9.69.73.17,1.7-.22,1.85-1.05h0Z"/>
    <g>
      <path class="cls-8" d="M26.16,16.29l2.79,2.53c.42.38,1.02.28,1.34-.24h0c.32-.52.23-1.24-.2-1.63l-2.79-2.53c-.42-.38-1.02-.28-1.34.24h0c-.32.52-.23,1.24.2,1.63Z"/>
      <path class="cls-5" d="M23.82,7.9l3.26,1.5c.49.23,1.05-.08,1.23-.68h0c.19-.6-.06-1.27-.56-1.5l-3.26-1.5c-.49-.23-1.05.08-1.23.68h0c-.19.6.06,1.27.56,1.5Z"/>
      <path class="cls-9" d="M20.04,13.44l-1.78,3.64c-.27.55-.12,1.27.33,1.59h0c.45.33,1.04.15,1.31-.41l1.78-3.64c.27-.55.12-1.27-.33-1.59h0c-.45-.33-1.04-.15-1.31.41Z"/>
      <path class="cls-6" d="M25.65,19.38l.24.29.45-.03c.36-.02.63.34.49.68l-.25.62.2.63c.11.35-.19.7-.55.64l-.42-.07-.26.26c-.29.28-.78.12-.83-.28l-.07-.51-.49-.39c-.27-.21-.25-.62.04-.8l.51-.33.1-.48c.09-.4.59-.52.86-.21Z"/>
      <path class="cls-6" d="M20.22,7.13l.14.16.3-.02c.36-.02.63.34.49.68l-.19.46.15.46c.11.35-.19.7-.55.64l-.28-.05-.15.15c-.29.28-.78.12-.83-.28l-.05-.34-.37-.29c-.27-.21-.25-.62.04-.8l.38-.25.07-.31c.09-.4.59-.52.86-.21Z"/>
    </g>
    <g>
      <path class="cls-8" d="M80,17.77l-1.93-3.52c-.29-.53-.89-.68-1.33-.32h0c-.44.36-.56,1.08-.26,1.61l1.93,3.52c.29.53.89.68,1.33.32h0c.44-.36.56-1.08.26-1.61Z"/>
      <path class="cls-5" d="M79.89,26.63l-2.66-2.73c-.4-.42-1.01-.35-1.35.14h0c-.34.49-.29,1.22.11,1.64l2.66,2.73c.4.42,1.01.35,1.35-.14h0c.34-.49.29-1.22-.11-1.64Z"/>
      <path class="cls-9" d="M84.98,22.95l2.68-2.7c.41-.41.46-1.14.13-1.64h0c-.34-.49-.94-.56-1.35-.15l-2.68,2.7c-.41.41-.46,1.14-.13,1.64h0c.34.49.94.56,1.35.15Z"/>
      <path class="cls-6" d="M81.34,15.1l-.16-.4-.52-.19c-.32-.12-.43-.52-.21-.78l.43-.51v-.58c-.02-.39.41-.64.74-.43l.32.2.36-.16c.35-.15.74.14.68.52l-.09.61.36.57c.19.3.02.69-.33.75l-.5.09-.2.35c-.2.36-.73.33-.89-.06Z"/>
      <path class="cls-6" d="M83.08,28.85l-.1-.24-.38-.14c-.32-.12-.43-.52-.21-.78l.32-.38v-.4c-.02-.39.42-.64.75-.43l.19.12.22-.1c.35-.15.74.14.68.52l-.06.44.27.43c.19.3.02.69-.33.75l-.36.06-.12.2c-.2.36-.73.33-.89-.06Z"/>
    </g>
  </g>
</svg>