<?xml version="1.0" encoding="UTF-8"?>
<svg id="Layer_2" data-name="Layer 2" xmlns="http://www.w3.org/2000/svg" viewBox="0 0 116.66 59.53">
  <defs>
    <style>
      .cls-1, .cls-2 {
        fill: none;
      }

      .cls-3 {
        fill: #d5a978;
      }

      .cls-4 {
        fill: #ffe3b1;
      }

      .cls-5 {
        fill: #fff;
      }

      .cls-2 {
        stroke: #000;
        stroke-miterlimit: 10;
        stroke-width: .75px;
      }

      .cls-6 {
        fill: #754c24;
      }
    </style>
  </defs>
  <g id="cinnamon">
    <path class="cls-4" d="M97.58,32.27c.13-.13.15-.15.05-.08.16-.09.18-.1.06-.04.18-.04.2-.05.07-.04.11-.01.22-.02.33-.02.52,0,.69.05,1.18.12,1.15.16,2.29.25,3.45.2,2.4-.11,4.7-.69,6.89-1.65.74-.33.91-1.41.54-2.05-.45-.76-1.31-.87-2.05-.54-2.03.89-4.26,1.3-6.47,1.26-2.02-.04-4.59-1.03-6.18.72-.54.6-.59,1.53,0,2.12.55.55,1.57.6,2.12,0h0Z"/>
    <path class="cls-4" d="M94.92,46.6c.14-.41.58-.85.82-1.28.36-.65.55-1.38.36-2.12s-.7-1.11-1.11-1.66c-.35-.46-.55-1.03-.64-1.59-.45-2.74,1.54-5.2,3.14-7.19.62-.78.57-2.3-.66-2.51-1.4-.23-2.7.17-3.71,1.18-.94.94-1.39,2.22-1.78,3.45-.59,1.84,2.3,2.63,2.89.8.21-.65.4-1.35.82-1.91.2-.26.61-.7.98-.63l-.66-2.51c-2,2.49-4.06,5.2-4.06,8.55,0,1.5.42,3,1.34,4.2.07.09.58.81.68.78-.35.11.22-.97-.26-.19-.38.62-.79,1.14-1.02,1.84-.26.77.3,1.64,1.05,1.85.82.23,1.58-.28,1.85-1.05h0Z"/>
    <path class="cls-4" d="M37.66,38.83c5.71,1.41,11.5.61,17.28.19s12.1-.13,18.14.2c1.54.08,1.97-2.05.76-2.8-1.83-1.13-3.93-1.19-6.02-1.05-1.96.13-4.12.52-5.84-.65l-1.51,2.59c4.77,2.08,10.08,2.41,15.03.7l-1.16-.15c1.42,1.02,2.66,2.31,3.61,3.78s1.46,3.14,2.12,4.79c1.21,3.03,3.86,5.23,7.18,5.49s6.45-1.59,7.9-4.46c1.63-3.22,1.33-7.16,1.44-10.67.06-1.93-2.94-1.93-3,0-.11,3.66.6,9.2-3.09,11.4-1.62.96-3.59.99-5.22.06-1.83-1.04-2.37-2.83-3.06-4.7s-1.62-3.51-2.85-5.04c-.96-1.19-2.95-3.67-4.67-3.4-.97.15-1.93.6-2.91.78-1.14.2-2.31.27-3.46.24-2.18-.06-4.35-.54-6.34-1.41-1.75-.76-3.14,1.49-1.51,2.59,1.76,1.19,3.88,1.29,5.94,1.16s4.16-.55,5.92.53l.76-2.8c-5.89-.32-11.79-.64-17.68-.23s-11.38,1.33-16.95-.05c-1.87-.46-2.67,2.43-.8,2.89h0Z"/>
    <path class="cls-4" d="M36.36,38.17c-1.75-.41-3.72.09-4.93,1.47s-1.58,3.3-.95,4.98c.17.44.37.82.64,1.22.17.25.43.52.45.76.04.38-.54,1.2-.72,1.44-.89,1.15-2.06,1.81-3.45,2.09-.79.16-1.25,1.1-1.05,1.85.23.83,1.05,1.21,1.85,1.05,1.57-.32,3.03-1.12,4.18-2.22s2.38-2.91,2.15-4.62c-.13-.92-.69-1.54-1.12-2.32-.21-.39-.29-.93-.18-1.37.13-.51.38-.89.81-1.15.27-.17.42-.23.77-.29.21-.04.54-.02.75.03.79.18,1.62-.25,1.85-1.05.21-.76-.26-1.66-1.05-1.85h0Z"/>
    <path class="cls-4" d="M109.1,18.14c-.13,1.2-.25,2.4-.38,3.6-.1.93-.36,1.7-.96,2.43-1.58,1.89-3.19,3.75-4.78,5.63-.52.62-.61,1.52,0,2.12.54.54,1.59.62,2.12,0,1.75-2.05,3.59-4.05,5.23-6.19.84-1.1,1.18-2.29,1.35-3.64s.28-2.62.42-3.94c.08-.81-.75-1.5-1.5-1.5-.88,0-1.42.69-1.5,1.5h0Z"/>
    <path class="cls-4" d="M110.17,29c1.73-.98,3.06-2.7,3.51-4.64.12-.53.21-1.1.17-1.65-.05-.72-.29-1.32-.58-1.98-.48-1.08-.97-2.15-1.45-3.23-.32-.72-1.42-.94-2.05-.54-.74.48-.88,1.28-.54,2.05.41.91.81,1.81,1.22,2.72.19.43.37.68.42,1.12-.02-.12-.03-.08-.01.11,0,.11,0,.23-.02.34.03-.25-.04.2-.06.25-.04.16-.08.32-.13.47-.03.09-.06.18-.09.26.06-.14.06-.13-.01.03-.16.34-.35.66-.57.96.16-.23-.17.2-.21.24-.13.14-.26.27-.4.39-.07.06-.14.12-.21.18.12-.09.11-.09-.03.02-.16.1-.31.2-.48.29-.68.39-.97,1.38-.54,2.05s1.32.95,2.05.54h0Z"/>
    <path class="cls-4" d="M94.68,34.13c-.73,3.29.59,6.18,3.61,7.7,1.87.94,4.57.96,6.06-.78,1.71-2,3.64-2.96,6.05-3.98l-6.84-1.79-.06-.09v-2.66c.03-.14-2.28,1.75-2.62,2.06-.83.76-1.66,1.53-2.47,2.31-1.72,1.66-3.61,3.36-5.07,5.26-3.62,4.74.11,9.92,5.66,9.94,10.42.04,16.51-12.32,16.79-21.26.2-6.44-9.8-6.43-10,0-.08,2.59-.74,5.04-2.14,7.25-.68,1.07-1.5,2.13-2.5,2.93-.44.37-.91.69-1.43.94-1.4.23-.95.8,1.37,1.72l.5,3.85.11-.5-1.29,2.21c2.48-3.2,5.77-6.03,8.79-8.71s5.83-6.43,2.98-10.3c-1.76-2.39-4.11-2.95-6.84-1.79-3.13,1.33-5.83,2.92-8.07,5.54l6.06-.78.34.4.5,3.85.15-.65c1.39-6.27-8.25-8.95-9.64-2.66h0Z"/>
    <path class="cls-5" d="M21.98,22.9c-3.94-1.85-7.22-.56-11.22-1.48l2.65,10.03c1.63-1.69,1.99-4.12,3.44-5.73s4.73-2.06,6.78-2.63c6.55-1.82,13.08-3.85,19.92-4.1,7.7-.29,7.74-12.29,0-12-8.52.32-16.78,2.65-24.92,5.03-3.2.94-6.39,2-9.01,4.14-1.09.89-2.06,1.81-2.85,3.01-.71,1.08-.98,2.9-1.85,3.8-3.01,3.13-1.87,8.99,2.65,10.03,1.9.43,3.79.76,5.75.72.85-.02,4.21.3,2.61-.45,6.95,3.26,13.05-7.08,6.06-10.36h0Z"/>
    <path class="cls-5" d="M23.14,34.69c4.28-.77,8.07-2.62,12-4.4,4.42-2,8.99-2.99,13.64-4.3,4.22-1.19,8.34-3.19,12.73-3.66s8.83.03,13.14.11c7.72.15,7.72-11.85,0-12-4.62-.09-9.33-.46-13.94-.03s-8.89,2.13-13.35,3.49-9.38,2.26-13.89,4.08-8.66,4.26-13.52,5.13c-7.59,1.36-4.37,12.93,3.19,11.57h0Z"/>
    <path class="cls-5" d="M26.97,36.64c16.01-7.61,34.88-4.42,51.48-10.3,7.23-2.56,4.12-14.16-3.19-11.57-17.71,6.27-37.11,3.31-54.34,11.51-6.97,3.31-.89,13.66,6.06,10.36h0Z"/>
    <path class="cls-5" d="M34.44,36.23c16.98-.93,33.89-2.7,50.71-5.19,7.61-1.13,4.38-12.69-3.19-11.57-15.76,2.34-31.61,3.89-47.52,4.77-7.68.42-7.73,12.42,0,12h0Z"/>
    <path class="cls-5" d="M54.62,21.43s3.57-.15,3.53-.15c1.69-.14,3.37-.29,5.06-.43,3.37-.29,6.74-.58,10.11-.87l-1.6-11.79c-.73.14-1.47.28-2.2.43-7.57,1.47-4.37,13.03,3.19,11.57.73-.14,1.47-.28,2.2-.43,6.57-1.27,5.17-12.37-1.6-11.79-5.06.43-10.11.87-15.17,1.3-4.53.39-8.43.6-12.02,3.66-5.89,5.02,2.64,13.47,8.49,8.49h0Z"/>
    <path class="cls-5" d="M43.25,20.18c2.05-1.03,3-2.83,4.79-4.08s4.84-1.52,6.91-1.95c6.08-1.26,12.22-1.65,18.42-1.54,7.72.15,7.73-11.85,0-12-7.26-.14-14.5.5-21.61,1.96-2.99.62-6.34,1.19-9.06,2.67-2.15,1.16-3.44,3.53-5.5,4.56-6.9,3.47-.83,13.82,6.06,10.36h0Z"/>
    <path class="cls-5" d="M73.96,14.63c1.87,2.26,4.1,3.5,6.83,4.51,6.68,2.45,10-7.39,4.62-10.97-1.89-1.26-3.79-2.3-5.86-3.22-7.13-3.16-12.21,5.68-6.06,10.36,2.99,2.28,6.31,1.85,9.83,1.94,4.32.11,8.68.82,12.97,1.27l-3.03-11.18c-5.38,4.09-12.04,5.02-18.28,7.22-2.85,1.01-5.38,4.17-4.19,7.38,3.01,8.11,13.1,9.58,20.35,6.15,6.61-3.14,17.41-8.25,16.02-16.82-.32-2-2.34-3.68-4.19-4.19-3.96-1.1-8.44-.42-12.51-.4-2.2,0-4.47.06-6.66-.25-1.09-.17-2.16-.41-3.21-.71-1.93-.92-2.15-.8-.67.38l-6.78,8.81c1.43.47,2.87.94,4.3,1.41,5.98,1.97,9.66-5.85,5.84-10.03-1.67-1.83-3.51-2.89-5.9-3.46-7.51-1.8-10.71,9.77-3.19,11.57l.61.37,5.84-10.03c-1.43-.47-2.87-.94-4.3-1.41-5.11-1.68-9.25,4.44-6.78,8.81s8.69,5.61,13.43,6.17c2.77.33,5.53.39,8.31.35,2.48-.03,6.07-.68,8.47-.01l-4.19-4.19.15.94.6-4.62c-1.57,2.14-5.51,3.75-7.77,5.04-1.01.57-2.23,1.51-3.34,1.82-1.04.29-3.61-.91-2.86,1.12l-4.19,7.38c7.19-2.53,14.94-3.7,21.15-8.43,4.82-3.67,3.14-10.54-3.03-11.18-3.26-.34-6.51-.68-9.77-1.01-1.78-.18-5.7.42-6.98-.56l-6.06,10.36c2.07.92,3.97,1.96,5.86,3.22l4.62-10.97c-.67-.29-1.18-.76-1.53-1.42-4.92-5.96-13.36,2.57-8.49,8.49h0Z"/>
    <path class="cls-5" d="M97.99,15.83c.45.62.88,1.27,1.44,1.79.93.86,1.9,1.44,3.12,1.77,2.8.75,6.13-.47,7.51-3.09l.6-1.43c.25-.8.29-1.6.11-2.39,0-.54-.14-1.05-.41-1.51-.24-.74-.66-1.39-1.24-1.93-.14-.15-.28-.31-.42-.46-.54-.59-1.19-1-1.93-1.24-.72-.38-1.49-.55-2.31-.52-.83-.03-1.6.14-2.31.52-.74.24-1.39.66-1.93,1.24-1.05,1.14-1.83,2.64-1.76,4.24l.21,1.6c.29,1.02.8,1.9,1.54,2.65.14.15.28.31.42.46l-.94-7.27c-.02.05-.05.1-.09.14l.94-1.21-.06.06,1.21-.94s-.09.06-.14.08l1.43-.6c-.08.03-.15.05-.24.06l1.6-.21c-.06,0-.11,0-.17,0l1.6.21c-.09-.01-.16-.03-.25-.06l1.43.6c-.1-.05-.18-.1-.27-.17l1.21.94c-.14-.12-.26-.26-.37-.4l.94,1.21c-.04-.06-.09-.12-.13-.18-.38-.7-.89-1.26-1.55-1.68-.58-.53-1.26-.89-2.04-1.07-.8-.25-1.6-.29-2.39-.11-.8.04-1.54.27-2.23.71-1.28.83-2.41,2.06-2.76,3.59l-.21,1.6c0,1.08.28,2.09.82,3.03h0Z"/>
    <path class="cls-5" d="M100,18.6c7.72,0,7.73-12,0-12s-7.73,12,0,12h0Z"/>
    <path class="cls-5" d="M92.23,22.92c1.19,1.9,2.88,3.01,4.83,3.99.51.33.31.17-.61-.48l-1.17-2.04c-.2-1.52-.18-1.31.08.61.14.62.37,1.21.69,1.77,1.27,1.97,3.29,3.26,5.7,3.28,1.94.02,3.74-.77,5.12-2.13,1.24-1.22,1.76-2.89,2.41-4.45s.92-3.23.42-4.94c-.31-1.05-.92-2.03-1.68-2.81-1.24-1.3-2.76-1.59-4.46-1.78-3.13-.36-6.13,3.01-6,6,.16,3.55,2.65,5.62,6,6l.21.02-4.24-1.76.13.17-1.54-2.65c.29-2.48.21-3.11-.22-1.9-.1.23-.2.47-.29.7-.19.45-.13.31.18-.43-.91,1.62.37.94,3.83-2.06l3.03.82.82.64,1.54,2.65c.14,1.16.13,1.19,0,.1-.03-.35-.08-.7-.16-1.05-.16-.61-.44-1.22-.76-1.76-.68-1.15-1.65-2.03-2.76-2.76-.39-.25-.8-.45-1.21-.65-.14-.07-.6-.39-.75-.4l.77.62c-.43-.42-.28-.22.44.61-1.66-2.66-5.43-3.94-8.21-2.15s-3.93,5.36-2.15,8.21h0Z"/>
    <path class="cls-5" d="M94.65,16.44c-1.93.6-3.8,1.42-5.49,2.52-3.9,2.54-3.82,7.81,0,10.36,1.32.88,2.97,1.26,4.55,1.18.78-.04,1.57-.17,2.34-.34,1.4-.32-1.04-.17.45-.04,2.6.22,5.31.2,7.56-1.33,2.59-1.76,3.99-5.36,2.15-8.21-1.66-2.58-5.43-4.04-8.21-2.15-.9.55-.51.49,1.18-.18-.35.01-.7,0-1.05-.02-.54-.03-1.08-.11-1.63-.11-.88,0-1.79.12-2.66.27-.33.06-.66.12-.99.2.81-.15,1.59-.03,2.36.36v10.36c.55-.36,1.15-.64,1.7-.99.38-.18.34-.17-.14.04.35-.13.71-.25,1.07-.36,2.99-.94,5.21-4.22,4.19-7.38s-4.17-5.2-7.38-4.19h0Z"/>
    <path class="cls-5" d="M38.21,36.52c8.15-.43,16.3-.85,24.44-1.28,4.12-.22,8.23-.39,12.36-.3,1.38.03,3.21-.47,2.85-2.27-.28-1.4-2.04-1.73-3.01-.82-.36.34-.57.98-.39,1.46l.04.11c.67,1.79,3.58,1.01,2.89-.8l-.04-.11-.39,1.46-1.33.25-.69-.9.02.14.15-1.16.38-.35c-.25-.01-.49-.02-.74-.03-.41-.01-.82-.02-1.24-.03-.74-.01-1.48-.01-2.23,0-1.57.02-3.13.07-4.7.14-3.23.14-6.45.33-9.68.5-6.24.33-12.48.65-18.73.98-1.92.1-1.93,3.1,0,3h0Z"/>
    <path class="cls-5" d="M73.18,34.73c2.55,1.09,4.8,2.72,6.54,4.9,1.83,2.29,2.77,5.12,4.44,7.51.74,1.06,1.62,2.4,3.08,2.36,1.3-.04,2.67-.91,3.61-1.74,2.15-1.87,2.9-4.61,2.48-7.35-.25-1.63-.7-3.16-.25-4.8.39-1.42,1.26-2.69,2.47-3.53,1.58-1.09.08-3.69-1.51-2.59-2.76,1.91-4.46,5.14-4.13,8.53.17,1.79.94,3.62.35,5.4-.23.68-.61,1.3-1.11,1.81s-1.15.71-1.67,1.14c-.12.04-.25.08-.37.12.55.29.66.3.35.03-.13-.33-.6-.73-.8-1.03-.51-.75-.95-1.54-1.38-2.34-.82-1.55-1.58-3.13-2.61-4.56-2.03-2.82-4.77-5.08-7.97-6.45-.75-.32-1.6-.22-2.05.54-.38.63-.21,1.73.54,2.05h0Z"/>
    <path class="cls-4" d="M1.68,33.66c.47,2.81,3.8,3.55,6.16,3.81,1.5.16,2.96.07,4.46-.11.98-.12,2.57-.41,3.19.62.7,1.18,2.98.79,2.8-.76-.06-.48-.11-.96-.17-1.43l-2.95.4c1.93,4.66,1.72,10.14,4.85,14.3.49.65,1.3.98,2.05.54.64-.37,1.03-1.4.54-2.05-2.95-3.92-2.73-9.17-4.55-13.59-.29-.69-.85-1.19-1.65-1.07-.67.1-1.39.72-1.3,1.47.06.48.11.96.17,1.43l2.8-.76c-.64-1.07-1.68-1.78-2.89-2.06-1.42-.33-2.81,0-4.23.11s-2.98.06-4.43-.28c-.8-.19-1.81-.46-1.96-1.37-.13-.8-1.12-1.25-1.85-1.05-.85.23-1.18,1.04-1.05,1.85h0Z"/>
    <path class="cls-4" d="M16.73,40.57c.66,3.14,1.74,6.29,3.54,8.97.9,1.34,1.96,2.58,3.22,3.6.69.55,1.44,1.2,2.33,1.36,1.27.22,2.29-.69,2.37-1.93.05-.81-.72-1.5-1.5-1.5-.85,0-1.45.69-1.5,1.5v.15c.06-.25.13-.5.2-.76l1.04-.38c-.08-.05-.17-.1-.25-.16-.14-.09-.27-.18-.4-.28-.18-.14-.36-.28-.53-.43-.44-.38-.86-.79-1.24-1.22-.79-.87-1.44-1.85-2-2.88-1.16-2.13-1.88-4.46-2.38-6.83-.17-.79-1.1-1.25-1.85-1.05-.82.23-1.21,1.05-1.05,1.85h0Z"/>
    <path class="cls-4" d="M19.47,46.77c1,2.51,2.66,4.61,4.89,6.15,1.05.72,2.22,1.28,3.44,1.66.98.3,2.14.3,2.74-.68s.16-2.46-1.03-2.68c-.77-.15-1.66.21-1.85,1.05-.17.74.22,1.69,1.05,1.85l-.23-.1-.54-.54c-.27-.48-.14-.85.39-1.12.13-.45.35-.63.68-.55-.07-.05-.21-.06-.29-.08-.22-.06-.43-.14-.64-.21-.1-.04-.19-.08-.29-.11-.17-.06.22.1-.04-.02-.21-.09-.41-.19-.61-.29-.38-.2-.75-.42-1.11-.66-.19-.13-.37-.26-.55-.39-.14-.11.18.15-.04-.03-.09-.08-.19-.16-.28-.24-.33-.28-.64-.58-.93-.9-.15-.17-.3-.33-.45-.51-.02-.03-.24-.3-.11-.14s-.08-.11-.1-.14c-.26-.37-.51-.75-.73-1.14-.1-.18-.19-.36-.28-.54-.05-.11-.1-.22-.16-.33-.13-.29.09.23-.04-.1-.29-.73-1.02-1.32-1.85-1.05-.7.23-1.36,1.06-1.05,1.85h0Z"/>
    <path class="cls-4" d="M20.28,48.76c1.54,1.4,2.52,3.3,4.41,4.31s4.25,1.24,6.27.45c.7-.27,1.19-.86,1.07-1.65s-.71-1.24-1.47-1.3c-1.73-.13-3.74-.52-5.29-1.32-.94-.49-1.5-1.09-2.37-1.56-1.12-.6-2.57-.6-3.49.37-.56.59-.58,1.54,0,2.12s1.56.59,2.12,0c.19-.18.11-.15-.23.09.17-.04.17-.05,0-.01.18,0,.18,0,.01,0,.15.05.17.05.07.02.4.33.66.46,1.08.77.79.57,1.66,1,2.57,1.37,1.76.71,3.65,1.02,5.53,1.16l-.4-2.95c-.39.15-.78.27-1.19.34.16-.03.02,0-.06,0-.13,0-.26.02-.39.02-.21,0-.41,0-.62-.01-.03,0-.31-.03-.19-.02s-.16-.03-.18-.04c-.2-.04-.4-.09-.6-.15-.1-.03-.2-.06-.29-.1-.03,0-.28-.11-.18-.07s-.15-.08-.17-.09c-.11-.06-.23-.12-.34-.19-.09-.05-.17-.11-.26-.17-.04-.03-.19-.14-.07-.04-.17-.13-.33-.28-.48-.43-.31-.3-.6-.63-.87-.97-.59-.71-1.15-1.45-1.84-2.08-.6-.54-1.53-.59-2.12,0-.55.55-.6,1.58,0,2.12h0Z"/>
    <path class="cls-4" d="M34.21,41.04c1.35-.07,2.63.04,3.94.37,1.61.41,2.68-1.9,1.16-2.74-1.29-.71-2.7-.89-4.1-.39l1.46,2.51c1.15-.94,3.28-.09,4.56.04,1.9.19,3.74-.27,5.62-.48,3.72-.41,7.66.27,11.35.69,1.91.22,1.9-2.78,0-3-4.17-.48-8.46-1.12-12.65-.52-1.06.15-2.12.35-3.2.36s-2.04-.23-3.07-.37c-1.76-.23-3.33,0-4.73,1.15-1.15.94.09,2.99,1.46,2.51.66-.23,1.16-.25,1.78.09l1.16-2.74c-1.56-.39-3.14-.56-4.74-.48-1.92.1-1.93,3.1,0,3h0Z"/>
    <path class="cls-4" d="M1.95,32.31c.76,2.49,3.14,3.53,5.5,4,1.25.25,2.51.49,3.79.6.63.06,1.26.08,1.89.03.52-.04,1.15-.23,1.62-.11,1.87.47,2.67-2.42.8-2.89-1.1-.28-2.19.05-3.31.03s-2.11-.19-3.15-.39c-.93-.18-1.92-.31-2.79-.69-.71-.31-1.26-.77-1.45-1.38-.56-1.84-3.46-1.06-2.89.8h0Z"/>
    <path class="cls-4" d="M1.84,34.82c.05.72,0,1.33-.22,2.02h2.89c-.1-.45-.2-.91-.3-1.36-.35-1.58-2.4-1.26-2.89,0-1.91,4.93-1.26,10.94,2.07,15.13,1.76,2.21,4.36,3.24,6.89,4.32s5.23,2.02,8.06,2.11c3.1.1,6.16-.35,9.27-.15s6.23.51,9.35.62c6.08.21,12.18-.02,18.23-.69,3.32-.37,6.62-.86,9.9-1.49,2.46-.47,6.11-.77,6.84-3.71.46-1.87-2.43-2.67-2.89-.8-.18.74-1.28.9-1.92,1.05-1.4.32-2.83.58-4.24.83-2.63.47-5.27.85-7.92,1.14-5.33.58-10.71.83-16.07.72s-10.75-1.03-16.1-.73c-2.67.15-5.2.39-7.81-.36-2.39-.68-4.84-1.7-7.01-2.91-4.87-2.72-5.6-9.54-3.75-14.3H1.32c.1.45.2.91.3,1.36.33,1.5,2.48,1.35,2.89,0,.28-.92.39-1.85.32-2.81-.14-1.91-3.14-1.93-3,0h0Z"/>
    <path class="cls-4" d="M1.92,42.45c1.22,1.71,1.66,3.76,2.73,5.55,1.14,1.9,2.79,3.44,4.5,4.81,3.66,2.93,9.65,7.27,13.92,3.21,1.57-1.5,1.92-4.21.78-6.06-1.07-1.74-2.72-3.09-3.92-4.76-.99-1.37-2.69-3.13-2.53-4.64.28-2.69-2.5-5-5-5-2.94,0-4.71,2.3-5,5-.32,3.04,1.15,5.68,2.81,8.11.72,1.06,1.45,2.09,2.23,3.11s2.12,2.14,2.78,3.22l.78-6.06-.32.31,3.54-1.46-.58-.07,2.52.68c-2.62-1.12-5.28-2.55-7.23-4.69-1.63-1.79-1.97-4.35-3.38-6.32-1.57-2.19-4.36-3.25-6.84-1.79-2.17,1.27-3.37,4.63-1.79,6.84h0Z"/>
    <path class="cls-4" d="M36.59,58.03c7.89-2.27,6.8-8.13,5.28-14.79l-3.49,6.15c5.15-1.22,10.31-2.48,15.55-3.26,4.88-.72,11.23-1.73,16.04-.23l-2.99-2.3.53.86v-5.05c.64-.98-5.19.83-5.73.99-2.46.73-4.92,1.46-7.38,2.2-4.92,1.46-9.83,2.93-14.75,4.39l2.66,9.64c2.84-.87,5.78-1.89,8.79-1.83s5.44,1.53,8.06,2.65c4.35,1.86,9.42,3.12,13.87.82,7.51-3.88,8.19-14.71.08-18.37-5.82-2.62-10.91,5.99-5.05,8.63,2.53,1.14-3.2.47-4.43,0-2.55-.99-4.95-2.41-7.62-3.08-5.57-1.4-11-.11-16.36,1.54-6.13,1.88-3.54,11.49,2.66,9.64s12.91-3.84,19.36-5.76c4.76-1.42,11.56-1.96,14.47-6.41.95-1.45.9-3.59,0-5.05-3.43-5.57-12.41-4.29-18.01-3.8-7.59.67-15.02,2.36-22.41,4.12-2.71.64-4.08,3.59-3.49,6.15.19.85.39,1.7.58,2.56.02,1.2.39,1.18,1.12-.06-6.17,1.78-3.55,11.43,2.66,9.64h0Z"/>
    <path class="cls-4" d="M76.24,48.83c-.71.3-1.42.38-2.14.24-.34-.07-.63-.24-.85-.51.21.19.41.39.6.6-.34-.47-.35-.46-.03,0,.15.24.28.49.4.74-.23-.54-.26-.55-.07,0,.06-1.84,2.01-3.75,4.07-3.05-2.48-.85-5.58.97-6.15,3.49-.63,2.78.84,5.24,3.49,6.15,2.8.96,6.06-.45,7.54-2.94,1.55-2.62,1.12-5.66-.07-8.31-1.87-4.15-7.36-8.22-11.82-5.05-2.13,1.51-3.35,4.43-1.79,6.84,1.36,2.11,4.56,3.41,6.84,1.79h0Z"/>
    <path class="cls-4" d="M50.03,57.63c2.4-.34,5.59-1.36,7.98-.82l-1.19-9.14c-1.69.88-3.95,1.18-5.75.41-2.48-1.07-5.36-.74-6.84,1.79-1.23,2.11-.7,5.77,1.79,6.84,5.29,2.28,10.68,2.29,15.85-.41,3.74-1.96,2.95-8.21-1.19-9.14-4.38-.98-8.93.2-13.3.82-2.68.38-4.14,3.79-3.49,6.15.79,2.88,3.47,3.87,6.15,3.49h0Z"/>
    <path class="cls-4" d="M78.4,56.2c8.02.27,15.76-2.09,23.27-4.66,3.31-1.13,6.83-2.17,9.41-4.65,2.36-2.28,3.68-5.41,3.84-8.67.09-1.93-2.91-1.92-3,0-.14,2.77-1.46,5.47-3.67,7.18-2.6,2.01-6.12,2.84-9.18,3.86-6.69,2.24-13.55,4.19-20.67,3.94-1.93-.07-1.93,2.93,0,3h0Z"/>
    <path class="cls-5" d="M28.8,35.56c-2.13.97-4.38,2.3-4.94,4.77s1.23,4.93,2.37,6.99l2.36-1.82c-.97-1.02-1.54-2.32-2.23-3.53-.75-1.31-1.63-2.46-2.89-3.32-.88-.6-2.38.18-2.26,1.3.31,2.78,1.17,5.46,2.71,7.81.7,1.07,1.56,2.34,2.87,2.69,1.6.42,2.62-.75,3.1-2.12s.16-2.64-.7-3.83-1.66-2.28-2.31-3.54c-.93-1.81-1.45-4.41.02-6.11.95-1.09,2.65-1.39,3.96-1.83,1.76-.58,3.51-1.17,5.27-1.75s1.04-3.5-.8-2.89c-2.58.86-5.22,1.61-7.75,2.6-2.17.85-3.78,2.37-4.35,4.68-.54,2.18-.1,4.38.84,6.38.51,1.08,1.16,2.08,1.85,3.05.34.49.83.98,1.09,1.52.14.29.14.26.09.6l-.11.32c-.12.23-.11.25.04.06h.8c-.6-.08-.93-.74-1.24-1.21-.45-.67-.85-1.37-1.19-2.1-.63-1.35-1.04-2.85-1.21-4.33l-2.26,1.3c1.03.71,1.62,1.88,2.2,2.95.66,1.22,1.34,2.42,2.3,3.43,1.19,1.26,3.17-.34,2.36-1.82-.44-.8-.87-1.59-1.29-2.4-.35-.68-.88-1.48-.77-2.28.21-1.62,2.3-2.4,3.56-2.98.74-.34.92-1.4.54-2.05-.44-.76-1.31-.88-2.05-.54h0Z"/>
    <path class="cls-4" d="M93.24,48.03c-3.39,1.35-6.82,2.59-10.28,3.72l.8,2.89c2.53-.87,5.07-1.75,7.6-2.62.77-.26,1.27-1.03,1.05-1.85-.2-.74-1.08-1.31-1.85-1.05-2.53.87-5.07,1.75-7.6,2.62-.77.26-1.27,1.03-1.05,1.85.21.76,1.07,1.3,1.85,1.05,3.47-1.13,6.9-2.36,10.28-3.72.75-.3,1.28-1,1.05-1.85-.2-.71-1.09-1.35-1.85-1.05h0Z"/>
    <path class="cls-4" d="M111.31,23.91c.14.71.28,1.42.41,2.14.03.19.06.38.09.57.01.1.03.19.04.29-.02-.16-.02-.15,0,.03.04.34.08.68.09,1.02,0,.16,0,.31,0,.47,0,.09,0,.18-.02.27.03-.18.03-.18,0,0-.04.15-.05.39-.15.51.23-.31,0-.01-.06.07-.19.32.15-.11-.06.08-.05.05-.1.1-.15.15-.12.11-.11.09.05-.04-.06.04-.12.08-.18.11-.15.07-.12.06.07-.03-.07.02-.13.04-.2.05.23-.02.26-.03.09-.02-.78.03-1.54.67-1.5,1.5s.66,1.53,1.5,1.5c.94-.03,1.85-.43,2.47-1.15.71-.81,1.03-1.75,1.12-2.81.08-.93-.09-1.89-.23-2.81s-.32-1.81-.5-2.71c-.15-.77-1.11-1.28-1.85-1.05-.82.27-1.21,1.02-1.05,1.85h0Z"/>
    <path class="cls-3" d="M3.03,32.98c2.15,2.13,5,3.05,7.97,3.27,1.36.1,2.76-.14,4.11.06,1.7.25,2.05,1.89,2.67,3.27,1.35,2.98,2.49,6.32,4.37,9.03,1.5,2.16,3.71,3.91,6.47,3.7,2.4-.18,4.76-1.69,5-4.26.13-1.46-.54-2.71-.82-4.1-.29-1.47.58-2.63,1.87-3.3,1.38-.71,3.01-.83,4.52-.99,1.97-.2,3.95-.36,5.93-.5,3.79-.26,7.59-.41,11.39-.51,4.3-.11,8.6-.15,12.9-.18,2.97-.02,8.27-.56,9.23,3.26.47,1.87,3.36,1.08,2.89-.8-.77-3.05-3.6-4.78-6.54-5.25-3.59-.57-7.41-.2-11.04-.16-7.77.09-15.54.29-23.28,1-3.17.29-6.88.39-9.25,2.83-.92.95-1.58,2.18-1.69,3.52-.12,1.61.75,2.89.9,4.43.1,1.05-.57,1.66-1.53,1.91-1.31.35-2.5-.13-3.45-1.04-2.16-2.07-3.19-5.48-4.39-8.14-.75-1.65-1.36-3.88-2.64-5.21-1.1-1.14-2.63-1.49-4.16-1.55-3.36-.13-6.7.17-9.31-2.41-1.37-1.36-3.5.76-2.12,2.12h0Z"/>
    <path class="cls-5" d="M18.07,34.98c.72.86.89,2.1,1.12,3.16.3,1.39.66,2.77,1.11,4.13.84,2.54,1.86,5.26,4.05,6.95,1.99,1.54,5.2,2.16,7.15.17,1.09-1.12,1.09-2.54.48-3.9-.55-1.24-1.01-2.47-1.27-3.81-.09-.45-.21-1,.05-1.42.33-.54,1.09-.99,1.6-1.34,1.26-.87,2.62-1.54,4.08-2.02l-1.46-2.51c-.16.16-.32.32-.48.48-1.36,1.37.76,3.5,2.12,2.12.16-.16.32-.32.48-.48,1.02-1.03,0-2.99-1.46-2.51-2.42.8-4.91,2.04-6.74,3.86-1.98,1.96-1.23,4.85-.36,7.17.23.63.56,1.22.79,1.84.13.34.1.42-.22.59-.85.45-1.93.06-2.68-.42-1.98-1.28-2.77-4.04-3.44-6.16-.83-2.67-.95-5.8-2.81-8.02-.52-.62-1.58-.54-2.12,0-.61.61-.52,1.5,0,2.12h0Z"/>
    <path class="cls-5" d="M82.74,32.78c-.22-.44-.44-.87-.66-1.31l-.9,2.2c4.8-1.02,9.6-2.04,14.4-3.06l-1.16-2.74c-4.45,2.2-9.29,3.48-14.24,3.79-.89.06-1.39.65-1.5,1.5-.31,2.32,1.36,4.13,2.88,5.63,1.86,1.83,3.43,3.85,4.73,6.11.82,1.42,3.42.45,2.74-1.16-1.52-3.62-2.39-7.42-2.52-11.34l-2.8.76c1.94,3.37,3.41,6.94,4.4,10.7.42,1.61,3.02,1.32,2.95-.4-.18-4.31.81-8.48,1.83-12.64.32-1.32-1.53-2.72-2.51-1.46-3.3,4.26-5.19,9.29-5.44,14.68l2.95-.4c-1.99-5.78-3.87-11.59-5.65-17.43-.47-1.54-3.17-1.35-2.95.4.54,4.24,1.63,8.28,3.3,12.21.62,1.46,2.75.59,2.8-.76.1-3.25.47-6.45,1.14-9.63l-2.95-.4c-.07,3.08.23,6.14.86,9.16l2.89-.8c-1.04-2.87-3.71-3.96-6.46-4.71-1.54-.42-3.08-.78-4.53-1.48-1.67-.8-3.22-1.84-4.7-2.95-2.98-2.24-5.76-4.73-8.82-6.88-3.29-2.31-6.76-4.33-10.37-6.09l-.36,2.74c8.06-2.32,16.42-3.15,24.77-2.47l-.4-2.95c-15.36,3.9-32.02,3.64-46.12,11.65-.53.3-.92,1.09-.69,1.69.92,2.43,3.4,2.3,5.58,2.08,3.2-.32,6.4-.65,9.6-.98,6.4-.66,12.8-1.33,19.19-2.02l-1.06-.44.09.09-.39-1.46-.07.16,1.45-1.1h-.13c-1.93-.08-1.93,2.92,0,3h.13c.72.03,1.19-.49,1.45-1.1l.07-.16c.2-.47-.04-1.13-.39-1.46-.95-.9-2.45-.39-3.61-.26-1.48.16-2.95.31-4.43.47-2.95.31-5.91.62-8.86.93s-5.74.59-8.61.89c-1.48.15-2.95.3-4.43.45-.6.06-1.21.16-1.82.16-.17,0-.33,0-.5-.01-.21,0-.45-.22-.37-.02l-.69,1.69c13.82-7.85,30.34-7.52,45.41-11.35,1.72-.44,1.22-2.82-.4-2.95-8.6-.7-17.28.19-25.57,2.58-1.16.34-1.56,2.16-.36,2.74,3.41,1.66,6.69,3.55,9.81,5.7,2.93,2.02,5.6,4.35,8.41,6.53,2.65,2.06,5.45,3.91,8.69,4.87,2.01.6,5.75.88,6.59,3.21.65,1.81,3.29,1.11,2.89-.8-.58-2.76-.82-5.54-.75-8.36.04-1.66-2.59-2.08-2.95-.4-.72,3.44-1.14,6.92-1.25,10.43l2.8-.76c-1.44-3.4-2.42-7.03-2.89-10.69l-2.95.4c1.78,5.84,3.66,11.66,5.65,17.43.55,1.59,2.87,1.33,2.95-.4.21-4.53,1.78-8.97,4.56-12.56l-2.51-1.46c-1.08,4.41-2.12,8.87-1.94,13.44l2.95-.4c-1.05-4-2.63-7.83-4.7-11.41-.73-1.26-2.84-.75-2.8.76.14,4.18,1,8.28,2.62,12.14l2.74-1.16c-1.13-1.96-2.46-3.81-3.99-5.48-1.2-1.31-3.48-2.76-3.22-4.76l-1.5,1.5c5.51-.34,10.81-1.76,15.76-4.2,1.59-.79.43-3.08-1.16-2.74-4.8,1.02-9.6,2.04-14.4,3.06-1,.21-1.31,1.39-.9,2.2.22.44.44.87.66,1.31.87,1.72,3.46.21,2.59-1.51h0Z"/>
    <path class="cls-1" d="M83.11,51.05c3.82-.53,7.53-1.88,10.79-3.94"/>
    <g>
      <path class="cls-5" d="M80.05,40.59c.89,2.43,1.86,4.98,3.84,6.64s5.32,2,6.99.02c1.04-1.25,1.15-3,1.31-4.61.25-2.59.75-5.15,1.49-7.64.33-1.11.72-2.24,1.5-3.09,1.96-2.14,5.37-1.73,8.18-2.46,4.7-1.22,7.95-6.48,6.93-11.23"/>
      <path class="cls-3" d="M78.6,40.99c1.33,3.64,3.08,7.79,7.21,8.87,1.69.44,3.64.32,5.12-.68,1.64-1.11,2.31-2.94,2.56-4.83.32-2.34.53-4.66,1.09-6.96.44-1.83.82-4.27,2.67-5.2,1.65-.82,3.67-.76,5.45-1.08s3.52-1.08,4.97-2.26c3.26-2.64,4.83-6.93,4.04-11.04-.37-1.89-3.26-1.09-2.89.8.57,2.94-.74,6.02-3,7.91-2.55,2.13-5.83,1.56-8.79,2.54-3.72,1.24-4.71,4.71-5.49,8.19-.44,1.96-.71,3.94-.91,5.94-.15,1.45-.37,3.25-1.96,3.77-4.03,1.32-6.14-3.95-7.17-6.78-.66-1.8-3.56-1.02-2.89.8h0Z"/>
    </g>
    <path class="cls-5" d="M4.38,27.38c-.43.76-.79,1.54-.84,2.42-.04.8.3,1.72.9,2.26.48.43,1.01.62,1.65.69.35.04.71.04,1.06.05.73.02,1.47.05,2.2.07l-1.3-2.26c-.04.07-.07.13-.12.19l.23-.3c-.06.07-.12.13-.19.19l.3-.23c-.1.08-.21.14-.33.2l.36-.15c-.14.06-.29.09-.44.12l.4-.05c-.17.02-.34.02-.52,0l.4.05c-.18-.03-.34-.08-.51-.15l.36.15c-.34-.14-.64-.34-.93-.56l.3.23c-.15-.12-.3-.24-.46-.37-.31-.26-.64-.44-1.06-.44-.37,0-.81.16-1.06.44s-.46.66-.44,1.06c.02.38.14.81.44,1.06.41.34.81.68,1.27.95.55.33,1.13.51,1.77.57,1.09.1,2.29-.47,2.81-1.44s-.13-2.22-1.3-2.26c-.55-.02-1.1-.04-1.65-.05s-1.08,0-1.61-.06l.4.05c-.1-.02-.2-.04-.29-.07l.36.15c-.09-.04-.17-.08-.25-.14l.3.23c-.07-.06-.14-.12-.2-.2l.23.3c-.07-.09-.13-.19-.18-.3l.15.36c-.06-.15-.1-.29-.12-.45l.05.4c-.02-.14-.01-.28,0-.43l-.05.4c.04-.25.11-.49.2-.72l-.15.36c.12-.28.27-.54.42-.81.39-.68.18-1.67-.54-2.05s-1.64-.19-2.05.54h0Z"/>
    <path class="cls-5" d="M87.25,47.67l.89.44c.17.11.36.17.56.18.2.04.4.04.6-.03.2-.05.37-.14.51-.27.16-.11.29-.25.39-.42l.15-.36c.07-.27.07-.53,0-.8l-.15-.36c-.13-.23-.31-.4-.54-.54l-.89-.44c-.17-.11-.36-.17-.56-.18-.2-.04-.4-.04-.6.03-.2.05-.37.14-.51.27-.16.11-.29.25-.39.42l-.15.36c-.07.27-.07.53,0,.8l.15.36c.13.23.31.4.54.54h0Z"/>
    <path class="cls-5" d="M91.24,29.11c-1.03,1.97-2.07,3.93-3.1,5.9-.36.69-.2,1.66.54,2.05.69.37,1.66.2,2.05-.54,1.03-1.97,2.07-3.93,3.1-5.9.36-.69.2-1.66-.54-2.05-.69-.37-1.66-.2-2.05.54h0Z"/>
    <path class="cls-3" d="M.97,35.77c-2.34,6.81.64,14.99,6.87,18.64,3.88,2.27,8.48,2.68,12.87,3.03,5.07.41,10.17.58,15.25.53,5.83-.06,11.65-.43,17.44-1.09,1.9-.21,1.92-3.22,0-3-9.3,1.05-18.68,1.35-28.03.87-7.36-.38-16.54-.35-20.56-7.7-1.76-3.21-2.14-7.01-.95-10.47.63-1.83-2.27-2.62-2.89-.8h0Z"/>
    <path class="cls-3" d="M1.19,36.84c.53,7.68,5.21,14.92,12.18,18.31,4.1,2,8.68,2.52,13.19,2.51,5.02,0,10.02-.43,15.04-.41,5.91.02,11.81.37,17.69,1.02,1.92.21,1.9-2.79,0-3-9.56-1.06-19.07-1.12-28.67-.71-4.31.19-8.73.28-12.92-.93-3.54-1.03-6.62-3.09-9.01-5.89-2.6-3.03-4.23-6.91-4.5-10.9-.13-1.92-3.13-1.93-3,0h0Z"/>
    <path class="cls-5" d="M82.61,43.83c.06.03.12.07.17.11l-.3-.23c.08.06.15.14.21.22l-.23-.3c.07.09.12.19.17.29l-.15-.36c.05.12.08.24.1.36l-.05-.4c.01.1.01.2,0,.3l.05-.4c-.01.09-.03.18-.06.26l2.74-.36c-.27-.55-.55-1.09-.82-1.64l-2.05,2.05c.07.04.14.09.2.14l-.3-.23c.14.11.26.23.37.37l-.23-.3c.11.15.21.31.28.48l-.15-.36c.08.18.13.38.16.57l-.05-.4c.03.2.03.4,0,.59l.05-.4c-.02.13-.05.25-.09.37-.12.36-.03.84.15,1.16s.54.61.9.69c.38.09.81.07,1.16-.15s.56-.51.69-.9c.12-.35.17-.75.16-1.12,0-.25-.05-.5-.09-.75-.02-.13-.06-.25-.1-.37-.09-.23-.18-.46-.3-.68s-.28-.41-.43-.59c-.23-.29-.54-.53-.85-.72l-.36-.15c-.2-.06-.4-.07-.6-.03-.31.04-.64.17-.86.41-.18.19-.31.41-.39.66-.12.38-.02.81.15,1.16.27.55.55,1.09.82,1.64l.23.3.3.23.36.15c.2.06.4.07.6.03.14,0,.26-.03.38-.1.13-.04.24-.1.33-.19.27-.21.42-.45.54-.78.19-.52.17-1.18-.02-1.69-.16-.41-.31-.68-.59-1.01-.18-.22-.42-.4-.67-.54-.35-.19-.77-.26-1.16-.15-.35.1-.73.36-.9.69-.18.35-.28.77-.15,1.16.12.37.34.71.69.9h0Z"/>
    <path class="cls-3" d="M2.79,37.77c3.49,6.42,7.58,14.08,14.55,17.3,3.95,1.83,8.37.68,12.54.43,4.63-.27,9.28-.31,13.91-.1,5.23.24,10.45.78,15.62,1.63,1.89.31,2.7-2.58.8-2.89-8.65-1.43-17.41-2.07-26.18-1.82-2.2.06-4.39.18-6.58.35-2.06.16-4.21.61-6.28.43-3.65-.31-6.83-3.54-9.06-6.19-2.71-3.22-4.72-6.97-6.73-10.65-.92-1.7-3.51-.18-2.59,1.51h0Z"/>
    <path class="cls-3" d="M4.05,42.44c.08.1.17.19.25.29.18.21-.06-.09.04.05.14.19.28.38.41.57.26.39.51.79.75,1.19.46.77.91,1.55,1.45,2.27,1.14,1.53,2.6,2.92,4.53,3.34.76.17,1.66-.23,1.85-1.05.17-.76-.23-1.67-1.05-1.85-.18-.04-.37-.09-.54-.15-.05-.02-.11-.04-.16-.06-.1-.04-.07-.03.1.04-.08,0-.18-.09-.25-.12-.17-.09-.33-.18-.48-.29-.07-.05-.17-.1-.23-.16.23.26.01,0-.05-.05-.29-.25-.56-.52-.81-.81-.13-.14-.26-.29-.37-.44.22.3,0-.02-.04-.06-.06-.08-.11-.16-.16-.23-1.05-1.53-1.86-3.2-3.1-4.6-.52-.59-1.6-.57-2.12,0-.58.63-.55,1.49,0,2.12h0Z"/>
    <path class="cls-3" d="M7.08,42.46c-.61,1.9.47,3.66,1.74,5s2.67,2.63,4.02,3.91c2.63,2.49,5.42,5.86,9.39,5.6.81-.05,1.5-.65,1.5-1.5,0-.77-.69-1.55-1.5-1.5-1.39.09-2.51-.4-3.55-1.29-1.21-1.04-2.37-2.15-3.53-3.25s-2.29-2.19-3.42-3.3c-.68-.67-2.11-1.77-1.75-2.87.59-1.84-2.3-2.63-2.89-.8h0Z"/>
    <path class="cls-3" d="M11.81,45.05c-3.1-3.58-5.58-7.73-7.28-12.15-.27-.7-.86-1.19-1.65-1.07-.69.1-1.35.72-1.3,1.47.04.59-.07,1.08-.49,1.52-1.34,1.39.78,3.52,2.12,2.12.94-.98,1.47-2.28,1.37-3.64l-2.95.4c1.89,4.93,4.59,9.48,8.05,13.48.53.61,1.58.54,2.12,0,.61-.61.53-1.51,0-2.12h0Z"/>
    <path class="cls-3" d="M60.45,58.13c9.41.3,18.69-1.61,27.83-3.66,4.18-.94,8.38-1.84,12.28-3.69,3.33-1.58,6.39-3.77,9-6.36,2.93-2.91,5.31-6.37,6.96-10.16.76-1.75-1.82-3.28-2.59-1.51-2.78,6.41-7.67,11.71-13.88,14.94-3.57,1.86-7.49,2.74-11.39,3.62-4.32.97-8.65,1.94-13.03,2.67-5.02.84-10.09,1.31-15.18,1.15-1.93-.06-1.93,2.94,0,3h0Z"/>
    <path class="cls-3" d="M77.13,56.73c5.95-.24,11.87-1.14,17.61-2.72,2.83-.78,5.62-1.72,8.34-2.84,2.41-.98,4.76-2.13,6.5-4.12,1.26-1.45-.85-3.58-2.12-2.12-1.59,1.83-3.79,2.81-6.01,3.69-2.6,1.02-5.26,1.9-7.95,2.62-5.35,1.44-10.83,2.27-16.37,2.49-1.92.08-1.93,3.08,0,3h0Z"/>
    <path class="cls-3" d="M101.28,51.83c3.09-.83,6.16-2.14,8.49-4.4,1.23-1.19,2.15-2.65,2.96-4.14.87-1.61,1.7-3.23,2.54-4.85.89-1.71-1.69-3.23-2.59-1.51-.79,1.52-1.58,3.04-2.38,4.55-.7,1.32-1.44,2.62-2.5,3.69-1.97,1.99-4.65,3.06-7.31,3.78-1.86.5-1.07,3.4.8,2.89h0Z"/>
    <path class="cls-3" d="M110,21.17c1,2.57,1.8,5.21,2.34,7.91.26,1.27.52,2.59.25,3.88s-.8,2.49-1.35,3.69c-.34.73-.21,1.62.54,2.05.65.38,1.71.2,2.05-.54.63-1.37,1.3-2.77,1.62-4.26.34-1.58.24-3.11-.05-4.7-.54-3.02-1.4-5.98-2.52-8.84-.3-.75-1.01-1.28-1.85-1.05-.72.2-1.34,1.09-1.05,1.85h0Z"/>
    <path class="cls-5" d="M78.52,37.19c.17.18.34.37.5.56.04.05.07.09.11.14.12.15-.18-.25-.07-.09.07.1.14.19.21.28.29.41.54.84.77,1.28.05.1.1.21.15.32.02.05.05.11.07.16.08.17-.12-.29-.05-.12.09.23.18.46.26.7.16.47.27.96.36,1.45.06.35.39.72.69.9.32.19.8.27,1.16.15.83-.27,1.19-1.01,1.05-1.85-.39-2.25-1.5-4.36-3.07-6.01-.54-.57-1.58-.59-2.12,0s-.58,1.51,0,2.12h0Z"/>
    <path class="cls-5" d="M8.14,33.42c1.68.84,3.39.5,5.17.22.19-.03.06-.04-.04,0,.08-.03.21-.02.3-.03.18-.02.35-.03.53-.03.15,0,.45-.05.58.02-.08-.04-.26-.05-.06,0,.09.02.19.04.28.07.35.1.67.27,1.03.34.79.14,1.41-.03,2.03-.54s.56-1.61,0-2.12c-.65-.59-1.47-.53-2.12,0,.16-.13.39-.27.6-.28.11,0,.26.06.07,0-.15-.05-.29-.1-.44-.16-.36-.14-.71-.21-1.08-.26-.8-.11-1.56-.02-2.36.09-.32.05-.64.1-.96.15-.08.01-.16.02-.24.04-.18.03-.07.03.04,0-.14.04-.32.04-.47.05s-.31.02-.46.02c-.1,0-.19,0-.29,0-.04,0-.3,0-.08,0s-.03,0-.08-.02c-.07-.02-.15-.03-.22-.05s-.14-.05-.22-.07c-.2-.05.32.15,0-.01-.7-.35-1.66-.21-2.05.54-.36.68-.21,1.68.54,2.05h0Z"/>
    <path class="cls-5" d="M81.29,41.44c.29,1.7.7,3.36,1.8,4.74,1.25,1.56,3.37,2.17,5.28,1.72.76-.18,1.29-1.09,1.05-1.85-.26-.8-1.03-1.24-1.85-1.05-.08.02-.16.03-.25.05-.29.06.39-.03.02,0-.17.01-.33.01-.5,0-.37-.02.31.07.02,0-.08-.02-.16-.03-.25-.05-.16-.04-.32-.09-.48-.15-.26-.09.31.15.05.02-.07-.04-.15-.08-.22-.12s-.14-.09-.21-.13c-.03-.02-.07-.05-.1-.07-.09-.07-.05-.03.14.11-.09-.12-.25-.22-.36-.33-.05-.06-.11-.12-.16-.18-.19-.21.22.31.02.02s-.35-.57-.49-.87c-.11-.25.13.33.03.06-.03-.08-.06-.15-.08-.23-.05-.15-.1-.31-.15-.47-.19-.66-.31-1.34-.43-2.02-.06-.35-.4-.72-.69-.9-.32-.19-.8-.27-1.16-.15-.84.27-1.19,1.01-1.05,1.85h0Z"/>
    <path class="cls-5" d="M84.59,46.62c.57.81,1.38,1.41,2.37,1.59s2,.05,2.87-.46c1.67-.98,2.54-3.05,2.32-4.94-.15-1.29-.62-2.39-1.43-3.39-.5-.61-1.61-.55-2.12,0-.6.65-.53,1.47,0,2.12-.26-.33-.02-.03.03.05.06.1.12.19.18.29.05.09.09.18.14.26.16.3-.1-.31,0,0,.07.22.15.44.19.66.02.12.02.41.01,0,0,.1.02.2.03.3.01.21,0,.42-.01.64-.01.12,0,.06.03-.18,0,.06-.02.12-.03.18-.02.09-.04.17-.06.26s-.05.17-.08.26c-.02.06-.04.11-.06.17.09-.21.11-.26.06-.15-.09.17-.17.34-.28.5-.02.04-.05.07-.08.11-.07.09-.03.05.1-.13-.06.02-.13.14-.18.19-.07.07-.15.14-.23.21-.09.07-.04.04.13-.1-.05.03-.1.07-.15.1-.07.04-.16.08-.22.12.31-.22.21-.08.06-.03-.09.03-.18.05-.27.07-.35.07.33,0,.04,0-.16,0-.32-.02-.48-.01.42-.01.23.03.08,0-.1-.02-.21-.09-.3-.09.13.01.31.15.07.02-.06-.03-.14-.1-.2-.13.2.16.24.19.12.09l-.06-.05c-.28-.27.13.21-.02,0-.45-.64-1.33-1-2.05-.54-.64.41-1.02,1.37-.54,2.05h0Z"/>
    <path class="cls-5" d="M90,41.88c1.93,0,1.93-3,0-3s-1.93,3,0,3h0Z"/>
    <path class="cls-5" d="M97.3,28.89c2.17.15,4.48.74,6.58-.11,1.91-.77,3.6-2.45,3.49-4.65-.04-.78-.66-1.54-1.5-1.5-.78.03-1.54.66-1.5,1.5,0,.08,0,.16,0,.24.02.34.06-.18.01,0-.04.15-.08.29-.12.44-.04.16.13-.23-.01,0-.04.07-.08.13-.12.2s-.09.13-.13.19c.19-.26.02-.04-.03.01-.12.13-.26.25-.4.37.23-.2-.1.06-.2.12-.16.1-.32.17-.49.26-.19.1.22-.07.02,0-.1.03-.19.07-.29.1-.15.05-.31.08-.47.11l-.16.03c.1-.01.1-.01,0,0-.11.01-.22.02-.33.02-.46.03-.93.01-1.39-.02-.99-.07-1.97-.23-2.97-.3-.78-.06-1.53.73-1.5,1.5.04.86.66,1.44,1.5,1.5h0Z"/>
    <path class="cls-5" d="M102.34,28.59c.51.25,1.07.42,1.65.37s1.11-.19,1.61-.48.88-.68,1.2-1.15.47-1.05.5-1.61c.02-.37-.18-.8-.44-1.06s-.69-.46-1.06-.44-.79.14-1.06.44-.42.65-.44,1.06c0,.04,0,.09-.01.13l.05-.4c-.02.14-.06.28-.11.41l.15-.36c-.06.14-.14.27-.23.39l.23-.3c-.11.14-.23.26-.37.37l.3-.23c-.15.11-.31.21-.49.28l.36-.15c-.16.07-.33.12-.51.14l.4-.05c-.16.02-.32.02-.49,0l.4.05c-.14-.02-.28-.06-.41-.11l.36.15s-.06-.03-.09-.04c-.36-.18-.76-.26-1.16-.15-.35.1-.73.36-.9.69-.18.35-.28.77-.15,1.16.12.36.34.72.69.9h0Z"/>
    <path class="cls-5" d="M11.34,33.12c3.42.2,6.84,1.14,9.91,2.76.72.38,1.63.18,2.05-.54.4-.68.18-1.67-.54-2.05-3.55-1.87-7.42-2.94-11.43-3.17-.81-.05-1.5.72-1.5,1.5,0,.85.69,1.45,1.5,1.5h0Z"/>
    <path class="cls-5" d="M37.11,36.77c1.93,0,1.93-3,0-3s-1.93,3,0,3h0Z"/>
    <path class="cls-3" d="M13.33,14.23c-1.11,7.3,2.78,13.97,9.4,17.06s15.18,3.31,22.69,2.99c8.51-.36,17.09-1.42,25.5-2.79,7.47-1.22,15.31-3.19,21.54-7.69,3.28-2.36,5.15-6,4.48-10.09-.62-3.75-3.6-6.77-7.22-7.75-1.87-.5-2.66,2.39-.8,2.89,2.75.74,4.94,3.09,5.15,5.99.26,3.48-1.96,5.72-4.72,7.41-5.7,3.51-12.27,5.17-18.81,6.26-7.32,1.22-14.79,2.1-22.2,2.59-6.85.46-14.13.66-20.79-1.23-3.18-.9-6.22-2.4-8.44-4.9-2.36-2.67-3.43-6.45-2.9-9.97.29-1.89-2.6-2.7-2.89-.8h0Z"/>
    <path class="cls-6" d="M90.03,8.52c2.66.82,5.98,2.09,6.84,5.05s-1.05,6.14-3.34,7.93c-2.74,2.15-6.23,3.19-9.46,4.36-3.58,1.29-7.16,2.79-10.89,3.57-3.98.83-8.16.88-12.21,1.19s-8.42.63-12.64.95c-7.59.57-15.7,1.79-23.12-.52-3.39-1.06-6.61-2.9-8.87-5.68s-3.47-6.78-1.38-9.91c1.07-1.61-1.52-3.12-2.59-1.51-4.49,6.74,1.48,14.81,7.43,18.06,7.61,4.16,16.47,3.48,24.81,2.85,4.79-.36,9.58-.72,14.37-1.08s9.27-.48,13.81-1.23,8.57-2.52,12.73-4.03c3.66-1.32,7.43-2.59,10.44-5.15s4.98-6.87,3.75-10.76-5.19-5.83-8.88-6.97c-1.85-.57-2.64,2.32-.8,2.89h0Z"/>
    <path class="cls-3" d="M39.61,7.3c-2.93,2.84-2.53,7.28-.28,10.41s5.65,4.93,9.3,5.57c8.51,1.49,16.07-3.07,22.63-7.94,1.53-1.14.04-3.74-1.51-2.59-5.39,4-11.51,8.15-18.53,7.82-2.88-.13-5.88-1.06-8.04-3.03s-3.98-5.66-1.44-8.12c1.39-1.35-.73-3.47-2.12-2.12h0Z"/>
    <path class="cls-3" d="M57.33,8.67c-.97-.01-1.91-.1-2.86-.32-.78-.18-1.84-.36-2.49-.85l.54.54-.07-.13.2.76v-.16c-.06.25-.13.5-.2.76-.23.23-.19.25.1.06.16-.08.33-.16.49-.23.21-.09.43-.18.65-.27.59-.23,1.2-.43,1.81-.6,1.23-.34,2.48-.58,3.76-.67,2.56-.19,5.09.12,7.53.9,1.84.59,2.63-2.3.8-2.89-4.4-1.41-9.27-1.43-13.67,0-1.05.34-2.18.72-3.13,1.28-1.21.71-1.62,2.36-.32,3.24.86.59,2.06.88,3.06,1.12,1.24.3,2.52.44,3.79.46,1.93.03,1.93-2.97,0-3h0Z"/>
    <path class="cls-6" d="M57.58,9.48c-2.46.51-5.12.38-7.46-.58-.57-.23-.32-.1.15-.44s.98-.64,1.5-.91c.99-.51,2.06-.85,3.14-1.11,2.27-.55,4.64-.68,6.97-.67s4.72.22,6.77,1.31c.85.45,1.78,1.06,2.22,1.94.54,1.06-.04,2.04-.79,2.81-1.72,1.76-4.32,2.78-6.57,3.65-4.85,1.87-9.86,3.86-15.09,2.4-2.36-.66-5.24-1.91-6.02-4.46s.68-5.01,3.12-5.79c1.83-.58,1.05-3.48-.8-2.89-3.03.96-5.28,3.56-5.51,6.78s1.72,6.06,4.5,7.65c2.97,1.69,6.58,2.5,9.98,2.22,3.6-.29,7.05-1.66,10.4-2.94,3.12-1.19,6.78-2.61,8.85-5.38s1.09-5.82-1.46-7.74-5.99-2.51-9.2-2.57-6.48.16-9.51,1.14c-2.33.76-8.2,3.42-5.38,6.65,1.18,1.35,3.3,1.76,4.99,2.01,2.01.3,3.99.2,5.98-.2s1.09-3.28-.8-2.89h0Z"/>
    <path class="cls-3" d="M30.12,9.43c-5.13,1.53-5.56,8.12-2.59,11.8,3.65,4.51,10.66,5.85,16.12,6.25,6.31.46,12.72-.64,18.68-2.7,5.33-1.84,11.7-4.32,15.07-9.11,1.92-2.72,2.48-6.3,1.49-9.48-.92-2.96-3.28-5.96-6.66-5.86-1.93.06-1.93,3.06,0,3,2.4-.07,3.72,2.82,4.05,4.83.38,2.31-.33,4.66-1.82,6.44-2.98,3.57-8.05,5.53-12.31,7.06-4.84,1.74-9.92,2.83-15.08,2.91-4.73.07-9.94-.6-14.17-2.85-1.93-1.03-3.96-2.65-4.28-4.96-.24-1.74.46-3.89,2.28-4.43s1.06-3.45-.8-2.89h0Z"/>
    <path class="cls-6" d="M27.91,9.73c-2.49.46-4.22,2.72-4.61,5.14-.45,2.76.81,5.33,2.68,7.31,4.09,4.34,10.4,6.7,16.21,7.35,6.81.77,13.09-1.49,19.37-3.8,3.29-1.21,6.6-2.38,9.87-3.64,2.86-1.11,6.2-2.39,8.06-4.96s1.93-7.15,1.21-10.26-3.01-6-6.28-6.58c-1.89-.34-2.7,2.56-.8,2.89,2.38.42,3.76,2.44,4.23,4.7s.56,5.87-.97,7.74-4.43,2.89-6.66,3.74c-2.68,1.02-5.39,1.99-8.08,2.98-5.18,1.9-10.46,4.17-16.04,4.35-4.97.16-9.95-1.12-14.21-3.69-2.16-1.3-4.58-3.03-5.45-5.51-.67-1.92.07-4.46,2.26-4.86,1.9-.35,1.09-3.24-.8-2.89h0Z"/>
    <path class="cls-4" d="M3.99,37.4c2.33,4.17,5.28,8.01,8.27,11.71,1.29,1.59,2.76,3.08,4.69,3.85.95.38,2.07.61,3.07.31,1.2-.35,1.97-1.44,1.66-2.69-.46-1.87-3.36-1.08-2.89.8l-.03-.09.2-.76c.05-.03.11-.07.16-.1.13-.06.13-.08,0-.03-.02-.02-.21,0-.29-.01-.3-.04-.61-.13-.88-.25-.62-.25-1.18-.66-1.68-1.11-1.24-1.11-2.24-2.47-3.25-3.78-2.33-2.99-4.59-6.05-6.44-9.37-.94-1.69-3.53-.17-2.59,1.51h0Z"/>
    <path class="cls-4" d="M54.12,53.26c2.95,1.37,6.19,2,9.44,1.69.78-.07,1.54-.64,1.5-1.5-.03-.75-.66-1.58-1.5-1.5-.73.07-1.46.1-2.19.07-.36-.01-.73-.04-1.09-.07-.16-.02-.31-.03-.47-.05.25.03-.24-.04-.3-.05-1.34-.23-2.86-.7-3.88-1.18-.71-.33-1.65-.22-2.05.54-.35.66-.22,1.7.54,2.05h0Z"/>
    <path class="cls-4" d="M4.09,38.29c.68,4.09,2.51,8.09,5.54,10.97s7.32,4.6,11.54,4.14c.81-.09,1.5-.63,1.5-1.5,0-.74-.69-1.59-1.5-1.5-3.56.39-7.05-.95-9.6-3.44s-4.01-5.94-4.59-9.47c-.13-.8-1.12-1.25-1.85-1.05-.85.23-1.18,1.04-1.05,1.85h0Z"/>
    <path class="cls-4" d="M3.91,37.66c.43,1.03-.07,2.19.03,3.28.12,1.25.58,2.41,1.21,3.49,1.08,1.87,2.55,3.56,4.21,4.94,3.4,2.82,7.56,4.51,11.98,4.75,1.93.11,1.92-2.89,0-3-3.66-.2-7.26-1.65-10.05-4.03-1.4-1.19-2.63-2.59-3.56-4.18-.5-.87-.87-1.76-.81-2.77.06-1.13.33-2.19-.13-3.28-.31-.75-.99-1.28-1.85-1.05-.71.19-1.36,1.09-1.05,1.85h0Z"/>
    <path class="cls-4" d="M3.65,36.61c-.09,1.54-.14,3.14.32,4.63.23.76.61,1.42,1.01,2.1.09.15.18.3.26.46.04.08.08.15.11.23-.07-.17-.08-.17-.02-.01.02.08.04.15.06.23-.02-.21-.03-.23-.03-.06.04-.22.04-.24,0-.08.08-.18.08-.2-.01-.05-.44.65-.15,1.69.54,2.05.76.4,1.58.16,2.05-.54.56-.83.51-1.87.14-2.76-.16-.38-.35-.74-.56-1.1-.09-.15-.18-.29-.27-.44-.04-.08-.09-.15-.13-.23-.02-.03-.18-.36-.1-.19.07.14-.04-.11-.05-.14-.03-.09-.06-.17-.09-.26-.05-.18-.1-.35-.14-.53-.02-.09-.04-.18-.05-.27,0-.03-.04-.31-.02-.14.02.19-.01-.18-.02-.22,0-.09-.01-.19-.02-.28-.04-.8,0-1.6.04-2.39s-.72-1.53-1.5-1.5c-.85.04-1.45.66-1.5,1.5h0Z"/>
    <path class="cls-4" d="M21.56,54.47c11.31.92,22.51,1.27,33.83.28,1.91-.17,1.93-3.17,0-3-11.32.99-22.52.64-33.83-.28-1.92-.16-1.91,2.84,0,3h0Z"/>
    <path class="cls-2" d="M42.69,33.95c14.55,1.74,29.21-1.51,43.42-5.11,4.49-1.14,9.02-2.33,13.12-4.47,3.84-2,8.33-5.9,11.66-8.66-.59.36-1.48.85-1.54,1.55-.25,2.83-.8,5.63-1.64,8.34-.31,1.02-.69,2.06-1.46,2.8-1.29,1.24-3.28,1.28-5.07,1.25-1.46-.03-2.93-.06-4.39-.08-.72-.01-1.5,0-2.08.42-.28.21-.49.5-.68.79-1.73,2.58-3,5.72-2.37,8.76.26,1.23.81,2.39.92,3.64.15,1.75-.69,3.55-2.13,4.57s-3.41,1.21-5.02.49c-4.43-1.98-4.16-8.88-8.09-11.72-2.15-1.56-5.04-1.5-7.69-1.38-6.12.28-12.23.55-18.35.83-5.16.23-10.34.47-15.41,1.4-2.38.44-5.23,1.58-5.38,4-.14,2.22,2.24,4.04,2,6.25-.16,1.42-1.45,2.53-2.85,2.79s-2.85-.21-4.07-.95c-3.68-2.26-5.3-6.75-6.12-11-.2-1.03-.38-2.11-1-2.96-1.31-1.78-3.9-1.81-6.1-1.69-3.65.2-9.67-.09-9.28-4.96.33-4.05,2.35-9.65,5.52-12.3,3.43-2.87,7.72-4.53,12.05-5.65,5.73-1.48,11.63-2.12,17.42-3.33,1.09-.23,2.18-.48,3.21-.91,1.33-.56,2.51-1.41,3.79-2.08,2.5-1.3,5.31-1.84,8.09-2.3,5.7-.93,11.45-1.55,17.22-1.84,1.68-.09,3.43-.13,4.99.51,1.53.64,2.72,1.89,4.16,2.72,2.29,1.32,5.03,1.5,7.67,1.65,3.54.2,7.08.4,10.61.6,3.15.18,6.45.4,9.16,2.01s4.85,4.98,3.59,7.88c2.68,5.11,4.87,10.61,5.17,16.36.3,5.76-1.51,11.83-5.8,15.69-3.15,2.84-7.3,4.25-11.39,5.37-5.91,1.62-11.94,2.78-18.03,3.46-4.08.46-8.17.7-12.27.89-14.4.65-28.84.57-43.24-.24-4.72-.27-9.52-.63-13.93-2.33s-8.44-4.97-9.97-9.45c-1.63-4.77-.21-9.95,1.35-14.78"/>
    <path class="cls-4" d="M34.49,54.35c3.06.42,5.87.04,8.87-.56s5.87-.76,8.85-.55c1.93.14,1.92-2.86,0-3-2.92-.21-5.84-.05-8.71.47s-5.39,1.13-8.21.74c-.8-.11-1.61.19-1.85,1.05-.19.7.24,1.73,1.05,1.85h0Z"/>
    <path class="cls-4" d="M57.34,54.77c1.93,0,1.93-3,0-3s-1.93,3,0,3h0Z"/>
    <path class="cls-4" d="M56.45,54.77c1.93,0,1.93-3,0-3s-1.93,3,0,3h0Z"/>
    <path class="cls-4" d="M109.84,31.75c-.14.83-.34,1.64-.61,2.43-.07.2-.14.41-.22.61-.03.09-.07.18-.11.27.1-.24-.03.06-.05.1-.18.39-.37.78-.58,1.15-.2.36-.41.7-.63,1.04-.12.18-.24.36-.37.53-.06.08-.11.15-.17.23-.09.12.09-.11-.07.09-.55.67-1.14,1.29-1.79,1.86-.59.52-.57,1.6,0,2.12.63.58,1.49.56,2.12,0,2.81-2.47,4.76-5.95,5.37-9.65.13-.77-.2-1.65-1.05-1.85-.72-.16-1.71.22-1.85,1.05h0Z"/>
    <path class="cls-4" d="M4.43,43.17l2.25,3.6,2.36-1.82c-.55-.58-1.1-1.16-1.64-1.74s-1.58-.58-2.12,0-.58,1.51,0,2.12,1.1,1.16,1.64,1.74c.51.54,1.4.56,1.97.12s.79-1.3.39-1.94l-2.25-3.6c-.2-.33-.52-.59-.9-.69s-.84-.05-1.16.15c-.67.43-.98,1.34-.54,2.05h0Z"/>
    <path class="cls-2" d="M57.01,9.29c-2.19,1.13-5.03.88-6.98-.63,4.42-3.29,10.48-3.06,15.94-2.3,1.03.14,2.1.31,2.99.84s1.61,1.51,1.52,2.55c-.08.93-.67,1.62-1.11,2.04-6.44,6.18-15.96,6.88-15.96,6.88-1.96.14-3.38.05-4.87-.42-2.81-.89-4.43-2.66-4.99-3.29-.74-.83-1.25-1.42-1.47-2.37-.37-1.62.4-3.02.93-3.99.85-1.54,2-2.51,2.84-3.07"/>
    <path class="cls-2" d="M29.61,10.1c-.39.34-3.5,3.09-3.11,6.93.3,2.96,2.44,4.87,3.74,5.81,1.98,1.43,3.69,2.13,6.44,2.96,1.54.46,4.54,1.35,8.21,1.5,3.61.15,7.33-.96,14.6-3.18,0,0,7.94-2.44,15.65-7.07.47-.28,1.46-.89,2.24-2.07,1.5-2.24,1.13-4.84,1-5.76-.44-3.05-2.19-5.04-2.96-5.82"/>
  </g>
</svg>