<?xml version="1.0" encoding="UTF-8"?>
<svg id="Layer_2" data-name="Layer 2" xmlns="http://www.w3.org/2000/svg" viewBox="0 0 96.34 96.11">
  <defs>
    <style>
      .cls-1 {
        fill: #603813;
      }

      .cls-2 {
        fill: #fcee21;
      }

      .cls-3 {
        stroke-width: .75px;
      }

      .cls-3, .cls-4, .cls-5, .cls-6 {
        stroke: #000;
        stroke-miterlimit: 10;
      }

      .cls-7 {
        fill: #ff7bce;
      }

      .cls-8, .cls-4 {
        fill: #fff;
      }

      .cls-4, .cls-5, .cls-6 {
        stroke-width: .5px;
      }

      .cls-5 {
        fill: none;
      }

      .cls-6 {
        fill: #9e005d;
      }

      .cls-9 {
        fill: #22b573;
      }

      .cls-10 {
        fill: aqua;
      }
    </style>
  </defs>
  <g id="cupcake">
    <path class="cls-5" d="M91.14,47.58c-2.29-2.51-4.59-5.05-7.16-6.67s-5.43-2.26-8.05-.9"/>
    <path class="cls-5" d="M24.17,31.27l.39,1.77"/>
    <path class="cls-8" d="M36.76,40.97c1.93,0,1.93-3,0-3s-1.93,3,0,3h0Z"/>
    <path class="cls-8" d="M36.84,40.93c2.4,1.02,4.72.98,7.07-.19,1.05-.52.9-2.03,0-2.59-2.47-1.54-5.37-1.25-8.15-1.1-3.25.17-6.5.47-9.73.88-1.86.23-1.97,3.11,0,3,3.44-.19,6.89-.42,10.21-1.41,1.03-.31,1.52-1.73.66-2.51-2.18-1.97-5.49-1.02-8.12-.66-3.31.45-6.58,1.09-9.82,1.9l1.16,2.74c6.43-2.72,13.1-4.84,19.92-6.32,1.46-.32,1.39-2.53,0-2.89-6.63-1.72-13.52-1.76-20.12.12-1.33.38-1.52,2.63,0,2.89,1.19.21,2.04-.23,2.65-1.25.99-1.66-1.6-3.17-2.59-1.51l.74-.12v2.89c6.1-1.74,12.4-1.71,18.53-.12v-2.89c-7.09,1.54-13.96,3.8-20.64,6.62-1.61.68-.43,3.14,1.16,2.74,2.64-.66,5.3-1.21,7.99-1.63,1.31-.21,2.63-.38,3.96-.52.88-.09,2.35-.52,3.08.14l.66-2.51c-3.07.91-6.23,1.13-9.41,1.3v3c2.93-.37,5.86-.65,8.8-.82,2.41-.15,5.4-.71,7.56.64v-2.59c-1.29.64-2.7.76-4.04.19-.75-.32-1.6-.22-2.05.54-.38.63-.21,1.74.54,2.05h0Z"/>
    <path class="cls-8" d="M24.49,34.77c-.49.41-1.28.26-1.87.22-.73-.05-1.43-.06-2.16.02-1.61.2-3.21.78-4.45,1.85-2.62,2.26-2.16,6.08.05,8.45,2.08,2.23,5.15,2.54,8.03,2.56,3.66.03,7.31-.38,10.88-1.15,1.89-.41,1.09-3.3-.8-2.89-2.96.64-5.96,1-8.99,1.04-2.13.03-4.83.2-6.58-1.28-.84-.71-1.55-1.86-1.42-3.01s1.12-1.84,2.11-2.23c1.19-.47,2.38-.42,3.62-.35,1.42.08,2.61-.2,3.71-1.12,1.48-1.24-.65-3.35-2.12-2.12h0Z"/>
    <path class="cls-8" d="M15.27,41.95c2.5,1.16,5.02.39,6.76-1.7.39-.46.65-1.27.23-1.82-1.05-1.38-2.55-2.28-4.33-1.78s-2.9,2.17-3.45,3.87c-.17.52.03,1.07.39,1.46,1.14,1.25,2.98.89,3.76-.56.9-1.66-.77-3.68-2.54-3.65-3.21.04-3.28,6.16-.16,5.96.97-.06,1.71-.91,1.45-1.9-.76-2.84.86-5.03,3.17-6.45l-1.82-2.36c-.96.8-1.93,1.6-2.89,2.41-.84.7-.41,2.31.66,2.51,3.18.58,6.51-.84,9.55-1.66,3.28-.88,6.52-1.83,9.77-2.81,1.55-.46,2.97-.67,4.57-.37s3.06.67,4.63.84c3.34.37,6.72-.03,9.93-.99,1.85-.55,1.08-3.37-.8-2.89-4.88,1.23-9.91,1.48-14.88.64v2.89c5.35-1.03,10.81-1.53,16.1-2.87,5.61-1.42,10.78-3.89,15.14-7.72,1.45-1.28-.67-3.39-2.12-2.12-4.18,3.67-9.2,5.86-14.57,7.13-5.06,1.2-10.25,1.71-15.35,2.68-1.42.27-1.45,2.65,0,2.89,5.51.94,11.05.74,16.48-.64l-.8-2.89c-3.04.91-6.2,1.26-9.36.86-1.51-.19-2.96-.64-4.46-.86s-2.93-.11-4.39.26c-3.04.77-6.03,1.81-9.06,2.63-1.54.42-3.09.83-4.63,1.25s-3.31,1.15-4.95.85l.66,2.51c.96-.8,1.93-1.6,2.89-2.41,1.32-1.1-.39-3.24-1.82-2.36-1.67,1.03-3.19,2.23-4.02,4.07s-1.04,3.84-.53,5.77l1.45-1.9c.6.59.85.72.76.39-.05-.12-.06-.24-.04-.37-.02-.12,0-.24.06-.35-.75.07-.93.31-.55.7l-.15-1.16.99-.08.39,1.46c.28-.85,1.33-2.64,2.3-1.37l.23-1.82c-.78.93-1.86,1.82-3.12,1.23-1.74-.81-3.27,1.78-1.51,2.59h0Z"/>
    <path class="cls-4" d="M71.94,20.9c.73-1.4,1.38-2.92,1.94-4.52.21-.59.41-1.22.45-1.9.08-1.25-.36-2.41-.81-3.42-.45-1.01-.93-2.01-1.55-2.72-1.37-1.56-3.2-1.45-4.78-.67-1.59.78-3.05,2.14-4.63,2.97-1.19.63-2.45.94-3.7.93l5.61-2.27c-1.37-1.71-2.8-3.46-4.48-4.02-.78-.26-1.59-.24-2.38-.23-3.76.07-7.51.15-11.27.22-.81.02-1.64.03-2.41-.39-1.17-.63-2.11-2.28-2.44-4.25-1.24,1.75-2.48,3.5-3.72,5.25-.7.98-1.4,1.98-1.92,3.24s-.81,2.84-.6,4.32c.25,1.75,1.39,3.06,2.23,4.2,1.55-.1,3.1-.32,4.65-.66.94-.21,1.9-.47,2.72-1.26.08-.08.17-.17.25-.25l-7.44,2.28c-4.66-.17-9.34,1.8-13.4,5.64-.96.91-1.9,1.95-2.59,3.39-.69,1.45-1.08,3.37-.83,5.16-5.24,1.85-8.57,5.83-8.47,9.36.02.74.2,1.95,1.17,3.4-.5-.88-1.73-3.09-1.22-4.41.18-.46.47-.76.76-1.04,2.49-2.44,5.05-4.76,7.81-6.17,4.13-2.11,8.52-2.09,12.84-2.06,5.25.04,10.49.07,15.74.11,2.33.02,4.67.03,6.99-.39,2.59-.48,5.14-1.5,7.58-3.04,1.37-.87,2.71-1.9,3.93-3.24.92-1,1.79-2.18,2.82-2.81,2.18-1.32,4.77.28,6.19,3.34,1.42,3.06,1.73,7.3,1.15,11.04-.2,1.28-.53,2.6-1.18,3.35-.42.48-.93.68-1.43.86-8.05,2.97-16.23,4.88-24.4,6.78-2.33.54-4.67,1.09-7.02,1.35-2.45.27-4.91.24-7.36.2-5.09-.07-10.18-.14-15.27-.21-2.82-.04-5.95.09-7.99-3.15.04-.09.07-.18.11-.28-2.25,2.49-4.5,4.98-6.75,7.47"/>
    <path class="cls-8" d="M17.16,43.1c1.93,0,1.93-3,0-3s-1.93,3,0,3h0Z"/>
    <path class="cls-8" d="M18.31,39.93c-.08-.12-.12-.3,0,.07-.09-.25,0,.36,0,.07,0-.27-.07.28-.02.09.02-.07.03-.15.05-.22.04-.15.16-.27-.02,0,.05-.08.08-.17.13-.25.04-.07.08-.13.12-.2.14-.21.04,0-.05.06.17-.12.3-.34.45-.49.13-.14.27-.27.4-.4.16-.15.33-.3.5-.45.07-.06.14-.12.21-.18.03-.03.33-.25.15-.12s.07-.05.11-.08c.09-.06.18-.12.26-.19.16-.11.33-.22.49-.32.33-.2.66-.38,1.01-.54.07-.03.16-.09.23-.11-.19.08-.23.1-.12.05.05-.02.09-.04.14-.06.17-.07.35-.13.52-.18.36-.12.74-.21,1.11-.27.77-.14,1.28-1.12,1.05-1.85-.27-.83-1.02-1.2-1.85-1.05-1.95.36-3.72,1.33-5.24,2.58-.75.62-1.54,1.34-2.05,2.18-.58.97-.9,2.36-.2,3.35.45.64,1.33,1,2.05.54.64-.41,1.02-1.36.54-2.05h0Z"/>
    <path class="cls-8" d="M16.28,38.51s-.08.02-.12.04c-.15.06-.31.12-.46.2-.04.02-.07.04-.11.07-.14.09-.27.2-.4.3-.07.06-.13.12-.19.19-.14.17-.28.35-.39.54-.11.17-.17.36-.18.56-.04.2-.04.4.03.6.05.2.14.37.27.51.11.16.25.29.42.39l.36.15c.27.07.53.07.8,0l.36-.15c.23-.13.4-.31.54-.54.04-.06.08-.12.12-.17l-.23.3c.18-.23.37-.43.6-.61.19-.19.31-.41.39-.66.07-.27.07-.53,0-.8-.02-.07-.06-.14-.08-.2,0,.01-.05-.14-.08-.2,0,0,0,0,0-.01l-.23-.3s0,0,0,0c-.18-.2-.45-.34-.7-.41-.13-.04-.28-.06-.43-.05-.03,0-.38.05-.41.05,0,0-.01,0-.02,0-.06.02-.17.07-.19.08,0,0-.13.05-.19.08-.01,0-.03.02-.04.02-.07.05-.24.18-.31.24,0,0-.01.01-.02.02-.01.01-.02.02-.03.03-.1.12-.21.24-.28.38-.03.06-.06.13-.11.18l.23-.3s-.03.03-.05.05l.3-.23s-.02.01-.03.02l.36-.15s-.01,0-.02,0l.4-.05s-.02,0-.03,0l.4.05s-.01,0-.02,0l.36.15s0,0,0,0l.3.23s0,0-.01,0l.23.3s0-.01,0-.02l.15.36s0-.02,0-.03l.05.4s0-.03,0-.05l-.05.4s0-.05.02-.07l-.15.36s.01-.02.02-.03l-.23.3s0,0,.01-.01l-.3.23s0,0,0,0l-.36.15s0,0,0,0l-.4.05s0,0,0,0l-.4-.05h0c-.12-.05-.24-.1-.36-.15h0c-.1-.08-.2-.16-.3-.23,0,0,0,0,0,0l-.23-.3s0,0,0,.01l-.15-.36s0,.02,0,.03c.05.2.14.37.27.51.11.16.25.29.42.39.17.11.36.17.56.18.2.04.4.04.6-.03l.36-.15c.23-.13.4-.31.54-.54l.15-.36c.07-.27.07-.53,0-.8,0,0,0-.01,0-.02,0,0,0,0,0,0,0,0-.15-.35-.15-.36-.03-.06-.06-.09-.12-.16.04.05-.07-.11-.12-.15,0,0-.3-.23-.31-.24-.01,0-.35-.15-.36-.15-.03,0-.38-.05-.4-.05,0,0-.4.05-.4.05-.06.02-.39.16-.18.08.27-.11-.13.05-.18.08,0,0-.3.23-.31.24,0,0,0,0,0,0-.02.03-.22.28-.24.31,0,.01-.01.02-.02.03-.02.04-.14.32-.15.36,0,0,0,0,0,0,0,0,0,.01,0,.02,0,.01,0,.03,0,.04,0,.05-.05.36-.05.4,0,0,0,0,0,0,0,0,0,.01,0,.02s0,.01,0,.02c0,.01.05.39.05.4,0,0,0,0,0,.01s0,0,0,0c0,0,.15.35.15.36,0,0,0,0,0,.01.02.03.22.29.24.31,0,0,0,0,0,0,0,0,.3.23.31.24,0,0,0,0,0,0,.02,0,.35.15.36.15,0,0,0,0,0,0,.02,0,.38.05.4.05,0,0,.02,0,.02,0,.06,0,.46-.06.21-.03.04,0,.14-.01.21-.03,0,0,0,0,.01,0,.02,0,.35-.14.36-.15,0,0,.02,0,.02-.01.04-.03.27-.21.31-.24,0,0,0,0,.01,0,0,0,.02-.02.02-.02,0,0,0,0,0-.01.08-.09.17-.21.24-.31,0-.01.02-.02.02-.04.01-.02.03-.05.04-.07.03-.05.05-.1.08-.14l-.23.3s.03-.04.05-.06l-.3.23s.03-.02.05-.03l-.36.15s.02,0,.04-.01l-.4.05s.02,0,.03,0l-.4-.05s.01,0,.02,0l-.36-.15s.01,0,.02.01l-.3-.23s.01.01.02.02l-.23-.3s.01.02.02.03l-.15-.36s0,.01,0,.02l.39-1.46c-.14.11-.27.23-.39.36-.06.07-.12.13-.17.2-.14.17-.27.34-.4.52l2.59,1.51c.04-.08.09-.15.14-.22l-.23.3c.07-.09.15-.18.25-.25l-.3.23c.07-.05.15-.1.23-.14l-.36.15s.09-.03.14-.05c.2-.05.37-.14.51-.27.16-.11.29-.25.39-.42.11-.17.17-.36.18-.56.04-.2.04-.4-.03-.6l-.15-.36c-.13-.23-.31-.4-.54-.54l-.36-.15c-.27-.07-.53-.07-.8,0h0Z"/>
    <path class="cls-8" d="M26.53,36.75c-.03-.26-.05-.51-.15-.76s-.19-.46-.32-.67c-.14-.22-.29-.44-.4-.68l.15.36c-.03-.08-.05-.16-.06-.24l.05.4c-.01-.12-.01-.23,0-.35l-.05.4c.01-.1.04-.2.08-.29l-.15.36c.02-.06.05-.11.09-.16l-.23.3s.03-.04.05-.05l-.3.23s.03-.02.04-.03l-.36.15s.03,0,.05-.01l-.4.05s.02,0,.03,0l-.4-.05s.03,0,.05.01l-.36-.15s.03.02.05.03l-.3-.23h.02c.14.16.3.26.48.32.18.09.37.14.58.13.37,0,.81-.16,1.06-.44s.46-.66.44-1.06l-.05-.4c-.07-.25-.2-.47-.39-.66-.28-.22-.39-.34-.75-.43-.28-.08-.58-.08-.86,0-.38.1-.68.32-.92.63-.18.24-.29.44-.38.74-.08.23-.1.49-.11.73s.03.5.08.73.17.48.29.7c.15.27.35.51.47.8l-.15-.36c.04.1.07.21.09.32l-.05-.4v.04c0,.21.04.4.13.58.06.19.16.35.31.48.26.26.69.46,1.06.44s.79-.14,1.06-.44l.23-.3c.14-.23.2-.49.2-.76h0Z"/>
    <path class="cls-8" d="M27.35,35.11c-.13,0-.26-.02-.39-.04l.4.05c-.17-.02-.34-.06-.5-.13l.36.15c-.1-.05-.2-.1-.29-.17l.3.23c-.08-.06-.15-.13-.22-.21l.23.3c-.07-.1-.13-.2-.18-.31l.15.36c-.06-.15-.1-.3-.13-.45l.05.4c-.02-.15-.02-.29,0-.44l-.05.4c.01-.09.04-.18.07-.27l-.15.36s.05-.1.07-.14c.2-.33.25-.79.15-1.16s-.36-.73-.69-.9c-.35-.18-.77-.28-1.16-.15s-.69.35-.9.69c-.13.21-.24.46-.29.71s-.09.52-.07.77c.04.53.16,1.04.43,1.51.12.21.28.42.46.58.15.14.31.26.48.37s.37.18.55.25c.4.16.86.19,1.29.22.21,0,.4-.04.58-.13.19-.06.35-.16.48-.31.26-.26.46-.69.44-1.06s-.14-.79-.44-1.06l-.3-.23c-.23-.14-.49-.2-.76-.2h0Z"/>
    <path class="cls-1" d="M12.33,54.03c2.55,2.34,5.52,1.58,8.41.34l-2.05-2.05c-.7,1.44-1.7,1.42-3.11.97-2.11-.68-4.16-1.62-6.21-2.44-1.3-.51-2.25,1.16-1.69,2.2,1.03,1.92,2.49,3.73,4.53,4.62,1.41.62,3.26-1.18,1.82-2.36-1.63-1.32-3.34-2.53-5.17-3.56v2.59c1.58-1.13,3.15-2.27,4.73-3.4.63-.45,1.65-.94,1.87-1.75.19-.68-.08-1.55-.56-2.04-.89-.93-2.27-.71-3.21.02-1.43,1.11-2.61,2.8-3.83,4.13s.29,3.07,1.82,2.36c1.21-.56,2.25.62,2.81,1.54l.23-1.82c-.41.36-.71.43-1.24.37-.83-.09-1.47.76-1.5,1.5-.06,1.5.45,3.08,1.68,4.02s2.92.91,4.42.72c3.38-.44,6.31-2.22,8.73-4.55,1.42-1.37-.65-3.31-2.12-2.12-2.83,2.3-5.84,4.36-9.03,6.14-1.15.64-.85,2.38.36,2.74,3.16.94,5.83-1.39,7.84-3.54,1.12-1.2,2.18-2.55,3.53-3.51,1.44-1.02,3-1.05,4.64-.5,3.01,1.01,5.6,3.96,9.01,2.7,1.58-.58,2.95-1.58,4.53-2.15s3.34-.97,5.04-1.34c1.9-.42,1.08-3.25-.8-2.89-5.9,1.13-11.96,1.24-17.89.3l-.4,2.95c3.09-.26,6.18-.52,9.28-.58,1.96-.04,1.89-2.81,0-3-2.98-.3-5.95-.59-8.93-.89l.4,2.95c6.27-2.13,12.97.46,19.36-1.16,1.9-.48,1.07-3.21-.8-2.89-3.07.51-6.18.44-9.22-.19l-.4,2.95c4.98.2,9.93-.11,14.86-.84,1.91-.29,1.08-3.15-.8-2.89-2.21.3-4.44.32-6.65.15v3l8.97-.71c1.91-.15,1.93-3.15,0-3l-8.97.71c-1.93.15-1.93,2.85,0,3,2.5.19,4.97.08,7.45-.26l-.8-2.89c-4.65.69-9.36.92-14.06.74-1.67-.07-2.07,2.6-.4,2.95,3.6.74,7.19.8,10.82.19l-.8-2.89c-6.38,1.62-13.02-.99-19.36,1.16-1.65.56-1.27,2.78.4,2.95,2.98.3,5.95.59,8.93.89v-3c-3.1.07-6.19.32-9.28.58-1.55.13-2.19,2.66-.4,2.95,6.5,1.03,13.02.93,19.48-.3l-.8-2.89c-3.22.71-6.05,1.69-8.98,3.2-1.63.84-2.73.29-4.22-.57s-2.97-1.69-4.64-2.08c-3.19-.74-5.83.48-8.07,2.71-1.11,1.1-2.09,2.31-3.22,3.39-1.03.98-2.36,2.14-3.87,1.69l.36,2.74c3.41-1.91,6.6-4.15,9.64-6.61l-2.12-2.12c-1.57,1.52-3.39,2.79-5.51,3.4-.9.26-1.86.43-2.8.38-1.13-.05-1.43-.77-1.38-1.85l-1.5,1.5c1.31.15,2.4-.41,3.36-1.25.49-.43.56-1.28.23-1.82-1.52-2.48-4.11-3.93-6.91-2.62l1.82,2.36c.69-.76,1.38-1.52,2.07-2.27.32-.35.64-.7.95-1.05.16-.17.32-.35.48-.52.37-.33.05-.59-.97-.78l.74-1.3c-1.97,1.42-3.94,2.83-5.91,4.25-.88.63-1.06,2,0,2.59,1.61.9,3.13,1.93,4.57,3.09l1.82-2.36c-1.62-.71-2.63-2.01-3.45-3.55l-1.69,2.2c3.73,1.48,10.16,5.36,12.71.09.69-1.43-.68-2.64-2.05-2.05-1.52.65-3.37,1.41-4.77.13s-3.55.81-2.12,2.12h0Z"/>
    <path class="cls-1" d="M13.91,58.28c3.22-1.01,6.36-2.11,9.23-3.92,1.4-.88,2.63-1.5,4.31-1.62,1.76-.13,3.53-.15,5.3-.22,1.92-.07,1.93-3.07,0-3-3.48.13-7.14-.14-10.24,1.7-1.47.88-2.88,1.79-4.47,2.46s-3.27,1.19-4.93,1.71c-1.84.57-1.05,3.47.8,2.89h0Z"/>
    <path class="cls-1" d="M17.21,49.76c-.18-.52-.31-1.06-.38-1.61l.05.4c-.04-.3-.06-.6-.07-.9-.02-.82-.67-1.48-1.5-1.5-.17,0-.36.03-.53.06s-.36.13-.48.19c-.21.1-.4.25-.56.42-.12.12-.22.27-.32.41-.04.06-.08.12-.11.18-.11.23-.22.48-.28.73-.08.4-.06.8.15,1.16.18.31.54.61.9.69.38.09.81.07,1.16-.15.32-.2.61-.52.69-.9.02-.1.05-.2.09-.3l-.15.36c.04-.09.09-.17.15-.25l-.23.3c.06-.07.12-.13.19-.19l-.3.23c.05-.04.1-.07.16-.09l-.36.15c.05-.02.11-.04.17-.05l-.4.05s.06,0,.09,0l-1.5-1.5c.03.98.18,1.98.51,2.91.13.37.34.69.69.9.32.19.8.27,1.16.15s.71-.34.9-.69.28-.78.15-1.16h0Z"/>
    <path class="cls-1" d="M13.41,50.02c6.82,1.02,13.69,1.7,20.58,2.01,1.93.09,1.93-2.91,0-3-6.62-.3-13.23-.93-19.78-1.91-.81-.12-1.6.2-1.85,1.05-.2.71.25,1.73,1.05,1.85h0Z"/>
    <path class="cls-1" d="M14.26,52.93l6.3-.52c1.86-.15,3.93-.59,5.73.05l-.36-2.74c-2.23,1.04-4.76,1.38-7.18.89-1.21-.24-2.01.69-1.85,1.85.28,1.87,2.38,2.12,3.88,2.32,1.74.24,3.48.29,5.23.13.81-.08,1.5-.64,1.5-1.5,0-.75-.69-1.58-1.5-1.5-1.32.12-2.64.14-3.95.02-.59-.05-1.17-.14-1.75-.25-.16-.03-.32-.06-.47-.1-.02,0-.34-.04-.2-.03.11,0-.09-.09-.03-.01.09.11.24.49.19.12l-1.85,1.85c3.27.66,6.48.2,9.49-1.19.53-.25.8-.96.72-1.49-.09-.62-.49-1.04-1.07-1.25-2.02-.71-4.21-.35-6.28-.17l-6.55.54c-.81.07-1.5.64-1.5,1.5,0,.76.69,1.57,1.5,1.5h0Z"/>
    <path class="cls-1" d="M35.11,58.43c2.58.55,5.25.41,7.74-.47.74-.26,1.31-1.04,1.05-1.85-.24-.73-1.05-1.33-1.85-1.05-.54.19-1.09.35-1.66.48-.28.06-.56.11-.84.15-.11.02-.09.01.08-.01-.09.01-.17.02-.26.03-.13.01-.26.02-.39.03-.56.04-1.12.04-1.68,0-.13,0-.26-.02-.39-.03-.04,0-.48-.04-.12-.01-.3-.03-.61-.1-.9-.16-.77-.16-1.66.23-1.85,1.05-.17.76.23,1.67,1.05,1.85h0Z"/>
    <path class="cls-1" d="M48.6,53.01c.59-.15,1.18.22,1.68.5.69.38,1.37.79,2.06,1.18,1.39.79,2.85,1.8,4.42,2.18,3.07.74,5.71-1.43,7.53-3.65l-2.12-2.12c-1.52,1.91-3.76,3.67-6.35,3.21-.41-.07-.93-.14-1.12-.55-.1-.21-.08-.43-.09-.64,0-.03.03-.17.05-.2-.06.11-.09.12.05.05.69-.31,1.43-.55,2.16-.77.4-.12.8-.23,1.21-.32.18-.04.36-.08.54-.12.13-.03.27-.06.41-.08.22-.03.18-.04-.11-.03l-.66-.39-.04-.07-.2-.76v.19c.25-.43.5-.86.75-1.3-1.03.45-1.79,1.41-2.27,2.4-.41.84-.1,1.96.9,2.2,1.2.3,2.39.59,3.59.89l-1.1-1.45c0-.09.09-.14.09-.14-.21.02-.45.16-.66.21-.46.12-.95.16-1.43.1-1.06-.12-2.01-.67-2.79-1.36l-.3,2.36c1.79-1.11,3.77-1.57,5.84-1.05v-2.89c-1.62.23-3.23.49-4.86.68-1.36.16-2.58.16-3.72-.67l.3,2.36c2.22-2.53,5.81-1.62,8.68-2.78l-1.16-2.74c-1.22.69-2.81.32-4.14.21-1.66-.14-3.31-.29-4.97-.43l.76,2.8c1.7-1.31,3.7-2.1,5.86-1.63l-.66-2.51-.14.14c-1.38,1.36.75,3.48,2.12,2.12l.14-.14c.77-.76.45-2.26-.66-2.51-2.92-.63-5.82.13-8.17,1.94-1.18.91-.81,2.66.76,2.8,1.85.16,3.7.32,5.55.48s3.46.24,5.07-.67c1.44-.81.45-3.39-1.16-2.74s-3.35.67-5.06.95c-1.91.31-3.65,1.13-4.95,2.6-.68.78-.51,1.77.3,2.36,1.46,1.06,3.25,1.29,5,1.11,1.97-.2,3.93-.54,5.89-.82,1.51-.21,1.34-2.55,0-2.89-2.83-.72-5.69-.18-8.15,1.35-.78.48-1.05,1.7-.3,2.36,1.53,1.35,3.42,2.31,5.5,2.26s4.35-.87,4.41-3.19c.02-.64-.48-1.29-1.1-1.45-1.2-.3-2.39-.59-3.59-.89l.9,2.2c.29-.6.58-1.05,1.2-1.33.46-.2.76-.82.74-1.3-.09-3.38-4.92-1.41-6.68-.73-1.24.48-2.27,1.02-2.62,2.41-.29,1.17.01,2.55.76,3.48,1.39,1.74,4.23,1.82,6.22,1.31,2.26-.58,4.18-2.09,5.61-3.89.5-.63.62-1.5,0-2.12-.53-.53-1.61-.63-2.12,0-.82,1-1.73,2.01-2.89,2.6s-2.06.26-3.11-.3c-1.32-.7-2.6-1.46-3.9-2.2-1.4-.8-2.83-1.49-4.48-1.08-1.87.47-1.08,3.37.8,2.89h0Z"/>
    <path class="cls-1" d="M57.08,48.31c-.13,0-.12,0,.02,0,.1,0,.2.03.29.09-.23-.12.11.15,0,.02-.07-.09-.13-.24-.03-.01-.05-.12-.13-.23-.19-.34l-1.69,2.2c1.4.5,2.88.2,4.26-.22.62-.19,1.23-.39,1.86-.51.08-.01.15-.03.23-.04-.21.03-.22.03-.05.01.15,0,.31-.02.46-.02.08,0,.15,0,.23.01.17.02.15.01-.05,0,.12-.03.35.08.46.12l-.36-2.74c-1.26.96-2.51,1.95-3.72,2.97-.8.67-.43,2.36.66,2.51.64.09,1.07.01,1.65-.25.04-.02.14-.05.17-.08l-.2.08c.17-.05.1-.06-.21-.03-.25.05-.45-.03-.62-.23-.19-.05-.32-.16-.37-.33-.05-.12-.06-.14-.03-.06.01.05.03.09.04.14.09.34.16.67.33.98.38.7,1.14.92,1.88.79l-1.69-2.2c-.88,1.51-1.76,3.03-2.63,4.54-.39.68-.18,1.67.54,2.05s1.63.19,2.05-.54c.32-.55.47-1.19.45-1.83-.02-.78-.68-1.54-1.5-1.5s-1.52.66-1.5,1.5c0,.09,0,.18,0,.26.03-.16.03-.19,0-.08-.14.37.09-.1-.05.13l2.59,1.51c.88-1.51,1.76-3.03,2.63-4.54.3-.52.25-1.19-.12-1.67-.39-.5-.97-.65-1.58-.54h-.05c.27,0,.53,0,.8,0l.87.85-.02-.08c0-.06-.03-.12-.04-.17-.03-.12-.05-.25-.09-.37-.15-.52-.43-1.05-.92-1.32s-.99-.33-1.51-.18c-.21.06-.41.16-.6.25-.07.03-.19.14-.03.02.11-.04.13-.05.05-.03-.22.06-.05.07.51.02l.66,2.51c.54-.45,1.09-.9,1.64-1.34s1.04-.82,1.48-1.16c.49-.38.8-.84.72-1.49-.08-.6-.5-1.07-1.07-1.25-1.42-.44-2.88-.12-4.27.3-.62.19-1.23.36-1.86.49-.17.03-.15.03.05,0-.08,0-.15.02-.23.02-.15,0-.31.01-.46,0-.08,0-.15,0-.23-.02.21.03.23.03.06,0-.15-.05-.31-.08-.46-.14-.56-.2-1.24.1-1.58.54-.39.5-.38,1.11-.12,1.67.47.98,1.39,1.7,2.5,1.73.78.02,1.54-.7,1.5-1.5s-.66-1.48-1.5-1.5h0Z"/>
    <path class="cls-1" d="M63.84,52.9c.5-2.08,2.85-1.93,4.6-1.68,2.76.39,3.36,3.14,5.5,4.45,1.91,1.16,4.69.97,6.83.72,2.52-.3,4.73-1.31,6.39-3.27,1.23-1.45-.78-3.55-2.12-2.12-2.38,2.53-7.08,7.79-10.27,3.32l-1.69,2.2c1.82.44,3.69.8,5.55.49,1.66-.28,3.03-1.12,4.3-2.18,1.13-.94,2.13-2.02,3.21-3.01.88-.81,1.96-1.8,3.21-1.9l-1.06-2.56c-1.09,1.1-1.99,2.36-2.74,3.72l2.74,1.16c.44-1.18,1.06-2.21,2.02-3.03,1.47-1.26-.66-3.37-2.12-2.12-1.35,1.16-2.17,2.71-2.79,4.36s1.93,2.62,2.74,1.16c.63-1.14,1.35-2.18,2.27-3.11.86-.86.28-2.67-1.06-2.56-2.86.24-4.85,2.3-6.81,4.19-.95.92-1.92,1.92-3.12,2.52-1.76.88-3.74.44-5.56,0-1.17-.28-2.5,1.08-1.69,2.2,1.71,2.4,4.29,3.74,7.26,3.04,3.17-.74,5.59-3.49,7.72-5.76l-2.12-2.12c-1.72,2.03-3.92,2.5-6.49,2.51-1.23,0-2.58.13-3.53-.8s-1.57-2.13-2.62-2.98c-1.88-1.51-4.42-1.76-6.76-1.54s-4.15,1.55-4.71,3.91c-.45,1.88,2.44,2.68,2.89.8h0Z"/>
    <path class="cls-1" d="M59.59,48.67c.98-1.15,2.46-.9,3.84-1.07,1.69-.21,3.33-.65,4.95-1.19,3.26-1.08,6.5-2.57,9.99-2.69l-.4-2.95c-3.35.56-6.67,1.28-9.95,2.17-1.6.43-3.18.9-4.76,1.41s-3.52,1.14-2.57,3.14c.2.43.82.8,1.3.74h.1c.88-.11,1.4-.63,1.5-1.51v-.12c.1-.81-.74-1.5-1.49-1.5-.88,0-1.41.69-1.5,1.5v.12c.49-.5.99-1,1.49-1.5h-.1c.43.26.86.51,1.3.75l-.06-.13.15,1.16.1-.23-.69.9c.52-.31,1.25-.43,1.83-.61.67-.21,1.34-.42,2.01-.61,1.34-.39,2.68-.76,4.03-1.1,2.68-.67,5.39-1.23,8.11-1.69,1.68-.28,1.27-3-.4-2.95-3.9.13-7.45,1.71-11.11,2.9-1.7.55-3.41.98-5.2,1.09s-3.39.42-4.59,1.83.86,3.59,2.12,2.12h0Z"/>
    <path class="cls-1" d="M58.51,48.73c.09-.04.18-.09.27-.13.29-.14-.27.1,0,0,.2-.07.4-.15.6-.21.38-.12.77-.2,1.17-.25l-.4.05c.63-.08,1.25-.08,1.88,0l-.4-.05c.38.05.75.14,1.12.25.75.22,1.67-.27,1.85-1.05s-.24-1.61-1.05-1.85c-2.21-.66-4.5-.36-6.56.65-.71.35-.96,1.41-.54,2.05.47.72,1.3.91,2.05.54h0Z"/>
    <path class="cls-1" d="M69.54,45.76c2.48-1.06,5.14-1.68,7.84-1.81l-.76-2.8c-1.24.61-2.59.84-3.96.57l.9,2.2c.26-.34.79-.38,1.17-.45.64-.11,1.28-.19,1.92-.28,1.25-.18,2.61-.52,3.8.06,2.18,1.05,3.64,3.52,4.96,5.44,1.09,1.58,3.69.08,2.59-1.51-1.81-2.64-3.85-5.87-7.05-6.95-1.81-.61-3.77-.12-5.6.15s-3.2.5-4.37,2.03c-.57.75.02,2.03.9,2.2,2.2.44,4.26.11,6.27-.87,1.33-.66.7-2.86-.76-2.8-3.26.15-6.35.94-9.35,2.22-.75.32-.91,1.42-.54,2.05.45.77,1.3.86,2.05.54h0Z"/>
    <path class="cls-1" d="M64.15,49.7c5.27-2.19,10.83-3.34,16.54-3.19l-1.45-1.9c-.11.32-.38.35-.68.43-.8.22-1.61.41-2.42.62-1.61.41-3.23.82-4.84,1.23-1.75.45-1.19,2.78.4,2.95,3.62.39,7.25.36,10.87-.09l-.76-2.8c-1.43.87-2.87,1.74-4.3,2.62-1.33.81-.69,2.69.76,2.8,1.56.11,3.1-.1,4.58-.6l-1.16-2.74c-.95.69-2.11,1.55-3.35,1.51-1.13-.04-2.15-.94-3.03-1.56-2.01-1.44-4.5-2.71-6.83-1.12-.9.61-1.04,2.01,0,2.59,1.66.92,3.32,1.84,4.98,2.76s2.97,1.55,4.71.67c1.58-.8,3.08-1.86,4.59-2.79,1.31-.8,2.51-1.57,3.27-2.95.69-1.25-.44-2.38-1.69-2.2-3.58.52-7.07,1.42-10.46,2.68-1.78.66-1.07,3.49.8,2.89,3.13-1,7.02-1.63,9.35-4.14.71-.76.49-1.78-.3-2.36-1.6-1.17-3.29-2.1-5.13-2.86l.36,2.74c.42-.23.85-.45,1.27-.68,1.7-.91.19-3.5-1.51-2.59-.42.23-.85.45-1.27.68-1.26.67-.74,2.29.36,2.74,1.58.65,3.04,1.55,4.41,2.55l-.3-2.36c-.93,1-2.04,1.45-3.31,1.86-1.57.51-3.14,1.01-4.72,1.51l.8,2.89c3.39-1.26,6.88-2.17,10.46-2.68l-1.69-2.2c-.56,1.01-1.57,1.49-2.53,2.07-1.22.75-2.44,1.51-3.67,2.25-.5.3-.72.49-1.25.23-.71-.35-1.39-.77-2.09-1.16-1.3-.72-2.61-1.45-3.91-2.17v2.59c1.07-.73,2.12-.03,3.07.61,1.03.69,1.98,1.48,3.12,1.98,2.5,1.1,4.94.1,7.02-1.41,1.27-.92.58-3.33-1.16-2.74-1.25.43-2.46.59-3.78.5l.76,2.8c1.43-.87,2.87-1.74,4.3-2.62,1.17-.71.8-2.99-.76-2.8-3.61.45-7.25.48-10.87.09l.4,2.95c2.15-.55,4.3-1.1,6.45-1.65,1.69-.43,2.96-.98,3.58-2.73.34-.95-.54-1.88-1.45-1.9-5.95-.15-11.84,1.02-17.34,3.3-.75.31-1.27.99-1.05,1.85.19.71,1.1,1.36,1.85,1.05h0Z"/>
    <path class="cls-1" d="M76.94,43.28s.29-.18.41-.24c.05-.02.23-.09.09-.04.12-.04.25-.08.38-.1.24-.04-.18,0,.06,0,.03,0,.31,0,.18,0s.15.03.18.04.34.11.17.03v-2.59l-.96.61,2.05,2.05c.09-.2.07-.09-.06-.02-.21.11.27-.11-.05.02.1-.04.21-.07.31-.1.41-.12-.08-.01.15-.02.13,0,.27,0,.4.01-.17-.02.02,0,.08.03.28.09.42.12.58.21.9.51,1.58,1.19,2.29,2.03.31.37.63.77.9,1.12.17.22.37.45.51.69,0-.02-.02-.14-.02-.14,0,.17,0,.21,0,.12,0-.07,0-.05-.02.04-.02.07-.14.33-.05.16-.05.11-.12.21-.19.31-.12.17-.25.33-.37.5-.4.57-.56,1.18-.65,1.86-.1.8.76,1.5,1.5,1.5.9,0,1.4-.69,1.5-1.5-.03.24.12-.21.01.02.06-.13.14-.25.22-.36.16-.23.34-.44.49-.68.44-.74.67-1.67.47-2.52s-.79-1.46-1.29-2.1c-.44-.57-.89-1.13-1.38-1.66-1-1.09-2.25-2.12-3.72-2.48s-3.51-.06-4.22,1.46c-.29.61-.27,1.32.23,1.82.46.46,1.26.59,1.82.23l.96-.61c.85-.54,1.1-2.12,0-2.59-.91-.39-1.76-.55-2.75-.39-.9.15-1.65.61-2.35,1.18-.63.51-.53,1.59,0,2.12.62.62,1.49.51,2.12,0h0Z"/>
    <path class="cls-1" d="M78.15,42.98c.09-.09.12-.12.19-.17.02-.02.31-.17.17-.12.1-.04.21-.06.32-.1.42-.14-.08-.01.16-.04s.47-.02.7-.01c.12,0,.25.02.37.03.16.02-.15-.04.11.02.41.1.99.26,1.26.37.28.12.85.43,1.22.67,1.74,1.13,3.24,2.97,4.43,4.81.44.68,1.33.96,2.05.54.68-.4.98-1.37.54-2.05-1.54-2.38-3.44-4.7-5.92-6.14-2.32-1.35-5.61-1.98-7.73.08-1.39,1.34.73,3.46,2.12,2.12h0Z"/>
    <path class="cls-1" d="M84.69,45.02l4.06,4.81c.24.28.71.44,1.06.44s.81-.16,1.06-.44c.59-.64.54-1.48,0-2.12l-4.06-4.81c-.24-.28-.71-.44-1.06-.44s-.81.16-1.06.44c-.59.64-.54,1.48,0,2.12h0Z"/>
    <path class="cls-1" d="M86.19,46.31c.11.07.21.14.31.22l-.3-.23c.33.27.63.57.89.91l-.23-.3c.42.54.75,1.14,1.02,1.77l-.15-.36c.19.45.34.91.46,1.38.16.61.8,1.13,1.45,1.1.27-.01.52-.08.76-.2.36-.19.54-.54.69-.9.36-.89.35-1.85.21-2.78-.05-.35-.4-.73-.69-.9-.32-.19-.8-.27-1.16-.15s-.71.34-.9.69l-.15.36c-.07.27-.07.53,0,.8v.07c0-.13-.03-.27-.04-.4.04.34.04.69,0,1.03l.05-.4c-.04.3-.11.6-.23.88h2.89c-.53-2.01-1.58-4.02-3.37-5.18-.66-.43-1.69-.15-2.05.54-.39.75-.17,1.59.54,2.05h0Z"/>
    <g>
      <path class="cls-9" d="M25.77,45.88l1.74,3.65c.26.56.79.7,1.18.31h0c.38-.38.48-1.14.22-1.69l-1.74-3.65c-.26-.56-.79-.7-1.18-.31h0c-.38.38-.48,1.14-.22,1.69Z"/>
      <path class="cls-10" d="M25.78,36.6l2.37,2.82c.36.43.89.36,1.19-.16h0c.3-.52.25-1.29-.11-1.72l-2.37-2.82c-.36-.43-.89-.36-1.19.16h0c-.3.52-.25,1.29.11,1.72Z"/>
      <path class="cls-7" d="M21.33,40.53l-2.34,2.87c-.36.44-.4,1.21-.1,1.72h0c.3.51.84.57,1.19.14l2.34-2.87c.36-.44.4-1.21.1-1.72h0c-.3-.51-.84-.57-1.19-.14Z"/>
      <path class="cls-2" d="M24.67,48.85l.09.26.48.19c.29.12.4.48.22.74l-.42.61.02.57c.01.41-.45.65-.78.41l-.16-.12-.2.11c-.35.19-.76-.09-.72-.49l.07-.63-.36-.66c-.16-.29,0-.64.32-.72l.44-.1.1-.21c.19-.4.76-.37.91.04Z"/>
      <path class="cls-2" d="M23,34.47l.03.1.36.14c.29.12.4.48.22.74l-.33.48v.38c.02.41-.44.65-.77.41l-.05-.03-.08.04c-.35.19-.76-.09-.72-.49l.05-.44-.28-.52c-.16-.29,0-.64.32-.72l.32-.07.03-.06c.19-.4.76-.37.91.04Z"/>
    </g>
    <g>
      <rect class="cls-9" x="59.58" y="23.11" width="4.09" height="2.42" rx="1.17" ry="1.17"/>
      <path class="cls-10" d="M67.5,28.34l-2.54,1.21c-.39.18-.61.85-.5,1.5h0c.11.64.51,1.01.9.83l2.54-1.21c.39-.18.61-.85.5-1.5h0c-.11-.64-.51-1.01-.9-.83Z"/>
      <path class="cls-7" d="M67.73,20.87l-.27-4.38c-.04-.66-.4-1.15-.8-1.08h0c-.4.07-.69.66-.65,1.33l.27,4.38c.04.66.4,1.15.8,1.08h0c.4-.07.69-.66.65-1.33Z"/>
      <path class="cls-2" d="M62.01,20.13l-.16-.04h0c-.25.35-.81.21-.86-.22l-.04-.31-.44-.47c-.19-.2-.18-.52.02-.7l.45-.41.04-.26c.07-.43.64-.55.87-.18h0s.2-.02.2-.02c.35-.04.62.29.53.62l-.2.71.17.69c.08.35-.23.67-.58.6Z"/>
      <path class="cls-2" d="M69.88,26.25h-.05s0-.01,0-.01c-.22.31-.71.18-.76-.2l-.03-.27-.35-.37c-.19-.2-.18-.52.02-.7l.35-.32.03-.23c.06-.38.56-.49.77-.16h0s.09-.01.09-.01c.35-.04.62.29.53.62l-.15.54.12.52c.08.35-.23.67-.58.6Z"/>
    </g>
    <g>
      <path class="cls-9" d="M50.73,12.32l-.27-4.38c-.04-.66-.4-1.15-.8-1.08h0c-.4.07-.69.66-.65,1.33l.27,4.38c.04.66.4,1.15.8,1.08h0c.4-.07.69-.66.65-1.33Z"/>
      <path class="cls-10" d="M48.09,20.42l-.99-4.08c-.15-.62-.57-.92-.94-.67h0c-.37.25-.55.95-.4,1.57l.99,4.08c.15.62.57.92.94.67h0c.37-.25.55-.95.4-1.57Z"/>
      <path class="cls-7" d="M52.57,20.03l2.58-.91c.39-.14.64-.78.56-1.43h0c-.08-.65-.47-1.07-.86-.93l-2.58.91c-.39.14-.64.78-.56,1.43h0c.08.65.47,1.07.86.93Z"/>
      <path class="cls-2" d="M52.41,10.66v-.46s-.38-.63-.38-.63c-.15-.25-.06-.57.2-.7l.41-.21.02-.07c.13-.44.75-.48.93-.05h0s.34.08.34.08c.3.07.46.4.33.68l-.32.7.06.57c.04.4-.39.68-.74.48l-.04-.03h0c-.32.28-.82.05-.81-.37Z"/>
      <path class="cls-2" d="M49.58,24.47v-.4s-.3-.5-.3-.5c-.15-.25-.06-.57.2-.7l.31-.15.02-.06c.12-.39.66-.42.82-.04h0s.23.06.23.06c.3.07.46.4.33.68l-.25.55.05.46c.04.37-.36.63-.69.44h0s0,0,0,0c-.28.25-.72.04-.72-.33Z"/>
    </g>
    <g>
      <path class="cls-9" d="M41.48,42.19l2.06-2.76c.31-.42.36-1.18.11-1.7h0c-.25-.52-.71-.6-1.02-.18l-2.06,2.76c-.31.42-.36,1.18-.11,1.7h0c.25.52.71.6,1.02.18Z"/>
      <path class="cls-10" d="M35.96,42.88l1.52-3.6c.23-.55.15-1.3-.17-1.69h0c-.33-.39-.78-.25-1.01.29l-1.52,3.6c-.23.55-.15,1.3.17,1.69h0c.33.39.78.25,1.01-.29Z"/>
      <path class="cls-7" d="M38.59,48.94l1.86,3.12c.28.47.74.48,1.03,0h0c.28-.47.29-1.24,0-1.71l-1.86-3.12c-.28-.47-.74-.48-1.03,0h0c-.28.47-.29,1.24,0,1.71Z"/>
      <path class="cls-2" d="M43.02,43.85l.45-.46.04-.3c.05-.43.61-.57.86-.22h0s.17-.03.17-.03c.35-.07.66.25.57.6l-.17.69.19.7c.09.34-.19.67-.54.62l-.2-.03h0c-.24.37-.81.24-.87-.19l-.04-.27-.45-.42c-.2-.19-.21-.51-.02-.7Z"/>
      <path class="cls-2" d="M34.59,47.31l.35-.36.03-.27c.05-.38.54-.5.76-.19h0s.06-.01.06-.01c.35-.07.66.25.57.6l-.13.52.15.53c.09.34-.19.67-.54.62h-.09s0-.01,0-.01c-.21.32-.71.21-.77-.17l-.03-.24-.35-.33c-.2-.19-.21-.51-.02-.7Z"/>
    </g>
    <path class="cls-1" d="M79.62,50.22c-.53.9-1.01,1.83-1.44,2.77-.11.17-.17.36-.18.56-.04.2-.04.4.03.6.1.35.36.73.69.9.35.18.77.28,1.16.15s.67-.35.9-.69c.33-.49.56-1.01.79-1.55.2-.47.35-.96.47-1.46.09-.39.05-.81-.15-1.16-.18-.31-.54-.61-.9-.69-.38-.09-.81-.07-1.16.15-.32.21-.6.51-.69.9-.12.51-.28,1.01-.48,1.5l.15-.36c-.17.4-.37.79-.62,1.15l2.59,1.51c.44-.95.92-1.87,1.44-2.77.2-.34.25-.78.15-1.16-.1-.35-.36-.73-.69-.9-.35-.18-.77-.28-1.16-.15s-.7.35-.9.69h0Z"/>
    <path class="cls-1" d="M9.9,54.65l2.05-1.6c.7-.54,1.32-1.08,1.85-1.79.11-.14.21-.29.31-.44.05-.07.09-.13.14-.2-.19.26-.02.02.03-.03.24-.28.5-.55.77-.79.02-.02.15-.15.17-.15-.14.11-.17.13-.08.06.03-.02.06-.04.09-.06.13-.09.27-.18.41-.27.15-.09.31-.17.47-.25.19-.09,0,.04-.07.03.05,0,.24-.09.29-.1.72-.24,1.34-1.05,1.05-1.85-.05-.15-.11-.3-.16-.45-.27-.74-1.03-1.31-1.85-1.05-.72.23-1.33,1.06-1.05,1.85.05.15.11.3.16.45l1.05-1.85c-1.71.56-3.03,1.73-4.05,3.18-.06.08-.12.16-.17.24-.1.14-.03.08.02-.02-.09.16-.28.32-.42.45-.29.28-.61.52-.92.77-.74.58-1.48,1.16-2.22,1.73-.62.49-.55,1.62,0,2.12.66.61,1.46.52,2.12,0h0Z"/>
    <path class="cls-1" d="M10.08,55.14l1.19,1.53c.19.24.37.5.57.73.12.13.27.24.41.34.03.02.05.04.09.05.12.06.27.13.4.17.28.07.6.08.88,0,.14-.04.28-.09.4-.17s.26-.18.35-.28c.27-.29.44-.66.44-1.06,0-.37-.16-.81-.44-1.06s-.66-.46-1.06-.44-.79.14-1.06.44c-.01.02-.03.03-.05.04l.3-.23h-.03c.12-.04.24-.09.36-.14h-.03c.13-.01.27-.03.4-.05-.02,0-.04,0-.06,0l.4.05s-.04-.01-.06-.02l.36.15s-.06-.03-.09-.05l.3.23c-.18-.15-.31-.36-.45-.54l-.48-.62-.94-1.21c-.14-.15-.3-.25-.48-.31-.18-.09-.37-.14-.58-.13-.37,0-.81.16-1.06.44s-.46.66-.44,1.06l.05.4c.07.25.2.47.39.66h0Z"/>
    <path class="cls-1" d="M30.16,51.48c.06-.02.35-.05.38-.09-.22.03-.28.04-.16.03.05,0,.1,0,.14,0,.11,0,.22,0,.34.01.39.03-.27-.06.03,0,.44.08.87.18,1.31.26.54.1,1.07.15,1.62.12.23-.01.46-.03.69-.02.05,0,.1,0,.15,0,.12,0,.07,0-.15-.02,0,0,.36.1.39.11.74.27,1.68-.31,1.85-1.05.19-.85-.26-1.55-1.05-1.85-.56-.21-1.18-.21-1.77-.18-.23.01-.46.03-.69.01-.06,0-.13,0-.19-.01-.17-.02-.13-.01.11.02-.03-.04-.28-.05-.34-.06-1.15-.22-2.29-.52-3.44-.16-.75.23-1.3,1.06-1.05,1.85s1.04,1.3,1.85,1.05h0Z"/>
    <path class="cls-1" d="M76.95,43.88c.31-.41.61-.83.92-1.24l-.23.3c.11-.14.23-.28.37-.39l-.3.23c.07-.05.14-.09.22-.13l-.36.15c.06-.02.11-.04.18-.04l-.4.05c.08,0,.15,0,.22,0l-.4-.05c.14.02.27.06.4.12l-.36-.15c.13.06.26.13.39.2.66.36,1.47.21,1.94-.39.2-.25.34-.58.32-.91-.02-.41-.16-.75-.44-1.06-.38-.43-.93-.66-1.49-.69s-1.09.24-1.51.6c-.28.24-.44.7-.44,1.06s.16.81.44,1.06.66.46,1.06.44l.4-.05c.25-.07.47-.2.66-.39l.03-.03-.3.23c.05-.04.11-.07.17-.1l-.36.15s.09-.03.14-.03l-.4.05s.09,0,.14,0l-.4-.05s.09.02.14.04l-.36-.15s.09.05.13.08l-.3-.23s.09.08.12.12l1.82-2.36c-.24-.13-.49-.24-.75-.35s-.52-.15-.8-.17c-.66-.07-1.29.25-1.76.68-.31.29-.55.66-.8,1l-.64.86c-.11.17-.17.36-.18.56-.04.2-.04.4.03.6.1.35.36.73.69.9.35.18.77.28,1.16.15l.36-.15c.23-.13.4-.31.54-.54h0Z"/>
    <path class="cls-1" d="M78.52,56.78c.39.54.82.93,1.45,1.16.48.18.99.15,1.49.05.86-.17,1.53-.77,2.2-1.28l-.3.23c.27-.21.55-.41.86-.55l-.36.15c.13-.05.26-.09.4-.12.35-.06.72-.39.9-.69.19-.32.27-.8.15-1.16s-.34-.71-.69-.9c-.37-.2-.74-.23-1.16-.15-.87.16-1.56.78-2.24,1.31l.3-.23c-.27.21-.55.41-.86.54l.36-.15c-.15.06-.3.1-.45.12l.4-.05c-.12.01-.23.01-.35,0l.4.05c-.08-.01-.16-.04-.24-.07l.36.15c-.1-.04-.19-.1-.27-.16l.3.23c-.08-.06-.14-.13-.21-.21l.23.3s-.05-.07-.08-.1c-.23-.33-.5-.58-.9-.69-.36-.1-.84-.05-1.16.15s-.6.51-.69.9-.08.83.15,1.16h0Z"/>
    <path class="cls-6" d="M95.61,52.4c-1.17,2.65-3.37,13.27-7.47,40.33l-37.87,1.68v.04l-40.88,1.4C4.52,69.13,2.03,58.7.78,56.14c-.13-.26-.67-1.3-.5-2.33.29-1.93,2.9-3.27,5.12-2.48.98.35,1.26.9,5.78,6.02,1.19,1.35,1.79,2.02,1.89,2.11,3.5,2.67,7.67-.74,8.98-1.81,3.11-2.53,2.93-4.32,5.36-5.24,2.82-1.08,5.23.49,5.89.94,2.19,1.55,1.89,3.77,3.69,4.51,2.07.86,4.24-.96,5.29-1.85,1.12-.94,1.27-1.45,2.07-2.2.82-.74,1.94-1.4,3.51-1.45,1.88-.26,3.2.36,4.14,1.13.83.67.99,1.17,2.13,2.02,1.08.8,3.3,2.46,5.34,1.44,1.78-.89,1.41-3.08,3.56-4.79.64-.52,3.01-2.26,5.85-1.42,2.46.74,2.33,2.53,5.51,4.82,1.34.96,5.6,4.03,9.02,1.09.11-.08.68-.81,1.83-2.25,4.37-5.47,4.64-6.04,5.61-6.46,2.2-.96,4.84.18,5.19,2.08.19,1.03-.32,2.1-.44,2.38Z"/>
    <g>
      <path class="cls-9" d="M53.56,35.95l-2.39-1.88c-.36-.29-.8-.03-.97.58h0c-.17.6-.02,1.33.35,1.61l2.39,1.88c.36.29.8.03.97-.58h0c.17-.6.02-1.33-.35-1.61Z"/>
      <path class="cls-10" d="M56.33,43.93l-2.6-.72c-.4-.11-.77.34-.83,1h0c-.07.66.2,1.28.6,1.39l2.6.72c.4.11.77-.34.83-1h0c.07-.66-.2-1.28-.6-1.39Z"/>
      <path class="cls-7" d="M58.46,37.34l.88-4.15c.13-.63-.07-1.32-.44-1.54h0c-.38-.22-.79.11-.93.74l-.88,4.15c-.13.63.07,1.32.44,1.54h0c.38.22.79-.11.93-.74Z"/>
      <path class="cls-2" d="M53.34,32.45h0s-.09.04-.09.04c-.36.15-.74-.15-.68-.53l.1-.63-.27-.71c-.12-.3.09-.63.41-.67l.29-.03h0c.2-.41.8-.34.9.1l.03.15.44.29c.24.15.29.48.13.7l-.42.57v.41c-.03.43-.55.62-.85.31Z"/>
      <path class="cls-2" d="M58.98,43.69h0s0,0,0,0c-.35.15-.72-.14-.66-.51l.07-.47-.21-.56c-.12-.3.09-.63.41-.67l.18-.02h0c.18-.36.7-.3.79.09l.03.13.33.22c.24.15.29.48.13.7l-.33.45v.36c-.03.38-.49.55-.75.27Z"/>
    </g>
    <g>
      <rect class="cls-9" x="36.74" y="27.07" width="4.09" height="2.42" rx="1.17" ry="1.17"/>
      <path class="cls-10" d="M44.66,32.3l-2.54,1.21c-.39.18-.61.85-.5,1.5h0c.11.64.51,1.01.9.83l2.54-1.21c.39-.18.61-.85.5-1.5h0c-.11-.64-.51-1.01-.9-.83Z"/>
      <path class="cls-7" d="M44.89,24.83l-.27-4.38c-.04-.66-.4-1.15-.8-1.08h0c-.4.07-.69.66-.65,1.33l.27,4.38c.04.66.4,1.15.8,1.08h0c.4-.07.69-.66.65-1.33Z"/>
      <path class="cls-2" d="M39.17,24.09l-.16-.04h0c-.25.35-.81.21-.86-.22l-.04-.31-.44-.47c-.19-.2-.18-.52.02-.7l.45-.41.04-.26c.07-.43.64-.55.87-.18h0s.2-.02.2-.02c.35-.04.62.29.53.62l-.2.71.17.69c.08.35-.23.67-.58.6Z"/>
      <path class="cls-2" d="M47.04,30.21h-.05s0-.01,0-.01c-.22.31-.71.18-.76-.2l-.03-.27-.35-.37c-.19-.2-.18-.52.02-.7l.35-.32.03-.23c.06-.38.56-.49.77-.16h0s.09-.01.09-.01c.35-.04.62.29.53.62l-.15.54.12.52c.08.35-.23.67-.58.6Z"/>
    </g>
    <g>
      <path class="cls-9" d="M71.48,38.1l.94-4.11c.14-.62-.04-1.32-.42-1.56h0c-.37-.24-.79.07-.94.7l-.94,4.11c-.14.62.04,1.32.42,1.56h0c.37.24.79-.07.94-.7Z"/>
      <path class="cls-10" d="M66.92,43.33l.23-4.38c.03-.67-.26-1.25-.66-1.31h0c-.4-.06-.75.44-.79,1.1l-.23,4.38c-.03.67.26,1.25.66,1.31h0c.4.06.75-.44.79-1.1Z"/>
      <path class="cls-7" d="M71.03,46.36l2.55,1.14c.39.17.79-.21.89-.86h0c.1-.65-.13-1.31-.51-1.48l-2.55-1.14c-.39-.17-.79.21-.89.86h0c-.1.65.13,1.31.51,1.48Z"/>
      <path class="cls-2" d="M73.33,38.19l.23-.71-.14-.67c-.08-.37.27-.68.62-.57l.13.04h0c.27-.34.81-.17.85.26l.03.35.44.51c.18.21.15.53-.07.7l-.45.36-.04.21c-.08.44-.66.54-.88.15h0s-.24,0-.24,0c-.34,0-.59-.32-.48-.64Z"/>
      <path class="cls-2" d="M67.09,48.26l.18-.55-.1-.49c-.08-.37.27-.68.62-.57h.02s0,0,0,0c.24-.3.71-.15.75.23l.03.31.35.4c.18.21.15.53-.07.7l-.35.28-.03.19c-.07.39-.58.47-.78.13h0s-.13,0-.13,0c-.34,0-.59-.32-.48-.64Z"/>
    </g>
    <g>
      <rect class="cls-9" x="25.4" y="31.79" width="4.09" height="2.42" rx="1.17" ry="1.17"/>
      <path class="cls-10" d="M33.31,37.02l-2.54,1.21c-.39.18-.61.85-.5,1.5h0c.11.64.51,1.01.9.83l2.54-1.21c.39-.18.61-.85.5-1.5h0c-.11-.64-.51-1.01-.9-.83Z"/>
      <path class="cls-7" d="M33.55,29.55l-.27-4.38c-.04-.66-.4-1.15-.8-1.08h0c-.4.07-.69.66-.65,1.33l.27,4.38c.04.66.4,1.15.8,1.08h0c.4-.07.69-.66.65-1.33Z"/>
      <path class="cls-2" d="M27.83,28.81l-.16-.04h0c-.25.35-.81.21-.86-.22l-.04-.31-.44-.47c-.19-.2-.18-.52.02-.7l.45-.41.04-.26c.07-.43.64-.55.87-.18h0s.2-.02.2-.02c.35-.04.62.29.53.62l-.2.71.17.69c.08.35-.23.67-.58.6Z"/>
      <path class="cls-2" d="M35.7,34.93h-.05s0-.01,0-.01c-.22.31-.71.18-.76-.2l-.03-.27-.35-.37c-.19-.2-.18-.52.02-.7l.35-.32.03-.23c.06-.38.56-.49.77-.16h0s.09-.01.09-.01c.35-.04.62.29.53.62l-.15.54.12.52c.08.35-.23.67-.58.6Z"/>
    </g>
    <line class="cls-3" x1="17.11" y1="60.99" x2="22.84" y2="95.85"/>
    <line class="cls-3" x1="37.85" y1="57.71" x2="40.62" y2="94.7"/>
    <line class="cls-3" x1="58.24" y1="56.82" x2="57.79" y2="94.03"/>
    <line class="cls-3" x1="81.71" y1="57.81" x2="78.25" y2="92.85"/>
  </g>
</svg>