<?xml version="1.0" encoding="UTF-8"?>
<svg id="Layer_2" data-name="Layer 2" xmlns="http://www.w3.org/2000/svg" viewBox="0 0 110.12 100.22">
  <defs>
    <style>
      .cls-1 {
        fill: #60111e;
      }

      .cls-2 {
        fill: #700099;
      }

      .cls-3 {
        fill: #fcee21;
      }

      .cls-4 {
        fill: #ff75c7;
      }

      .cls-5 {
        fill: #ff7bce;
      }

      .cls-6 {
        fill: #fff;
      }

      .cls-6, .cls-7 {
        stroke: #000;
        stroke-miterlimit: 10;
        stroke-width: .25px;
      }

      .cls-8 {
        fill: #22b573;
      }

      .cls-9 {
        fill: #912dcd;
      }

      .cls-7 {
        fill: #f6eac2;
      }

      .cls-10 {
        fill: aqua;
      }
    </style>
  </defs>
  <g id="donut">
    <g>
      <ellipse class="cls-7" cx="49.89" cy="72.35" rx="27.75" ry="49.76" transform="translate(-22.59 122.04) rotate(-89.85)"/>
      <path class="cls-4" d="M.59,74.93c0,3.42,1.91,6.32,4.06,7.27s4.46.31,6.59-.7,4.21-2.39,6.41-2.97c3.31-.87,6.82.19,9.67,2.91,1.56,1.49,2.91,3.45,4.44,5.01,2.82,2.88,6.73,4.23,9.55,1.35,1.13-1.16,1.98-2.89,3.14-3.99,2.29-2.19,5.24-1.5,7.87-.56,7.34,2.63,14.72,6.64,22.22,5.38,1.83-.31,3.85-1.16,4.75-3.62.41-1.12.52-2.42.85-3.6,1-3.63,3.74-5.37,6.3-5.8,2.56-.43,5.18.06,7.68-.82,2.51-.88,5.02-3.73,5.15-7.67-1.85-2.86-4.68-6.78-8.52-10.52-8.03-7.82-17.49-11.91-33.41-12.17-3.84-.06-53.44-.39-56.91,23.67-.44,3.07-.02,5.76.17,6.83Z"/>
      <g>
        <path class="cls-4" d="M72.52,64.92c-.31-.57-.88-.55-1.35-.39-1.96.65-3.6,2.64-5.16,4.57"/>
        <path class="cls-4" d="M32.05,66.75c1.42,2.28,3.16,4.09,5.07,5.26"/>
        <path class="cls-8" d="M22.21,56.98l.07-4.7c.01-.71-.36-1.3-.82-1.32h0c-.47-.02-.85.55-.86,1.26l-.07,4.7c-.01.71.36,1.3.82,1.32h0c.47.02.85-.55.86-1.26Z"/>
        <path class="cls-10" d="M18.67,58.57l-.78-4.55c-.12-.69-.58-1.1-1.03-.92h0c-.45.18-.72.89-.6,1.58l.78,4.55c.12.69.58,1.1,1.03.92h0c.45-.18.72-.89.6-1.58Z"/>
        <path class="cls-9" d="M21.96,70.76l3.05-.38c.46-.06.81-.68.77-1.39h0c-.04-.71-.45-1.24-.91-1.18l-3.05.38c-.46.06-.81.68-.77,1.39h0c.04.71.45,1.24.91,1.18Z"/>
        <path class="cls-3" d="M25.29,53.18l.07-.69-.39-.75c-.15-.28,0-.63.32-.7l.47-.12.09-.21c.18-.41.77-.39.92.04l.09.26.51.22c.28.12.39.46.22.72l-.45.69.02.63c.01.42-.46.66-.79.4l-.15-.11-.19.11c-.35.2-.78-.08-.74-.48Z"/>
        <path class="cls-3" d="M15.3,65.73l.05-.5-.31-.6c-.15-.28,0-.63.32-.7l.34-.09.02-.05c.18-.41.77-.39.92.04l.03.09.38.16c.28.12.39.46.22.72l-.36.55v.43c.02.42-.45.66-.78.4l-.03-.03-.07.04c-.35.2-.78-.08-.74-.48Z"/>
        <g>
          <path class="cls-8" d="M52.67,55.93l2.82,1.88c.43.29.92-.01,1.11-.67h0c.19-.65,0-1.41-.44-1.7l-2.82-1.88c-.43-.29-.92.01-1.11.67h0c-.19.65,0,1.41.44,1.7Z"/>
          <path class="cls-10" d="M49.27,47.58l3.04.62c.46.09.89-.4.95-1.11h0c.06-.71-.26-1.36-.73-1.45l-3.04-.62c-.46-.09-.89.4-.95,1.11h0c-.06.71.26,1.36.73,1.45Z"/>
          <path class="cls-5" d="M46.94,54.72l-.93,4.47c-.14.68.1,1.41.55,1.62h0c.44.22.92-.16,1.06-.84l.93-4.47c.14-.68-.1-1.41-.55-1.62h0c-.44-.22-.92.16-1.06.84Z"/>
          <path class="cls-3" d="M52.86,59.54l.13.12.22-.1c.36-.16.75.14.69.52l-.11.73.35.78c.13.3-.06.64-.38.69l-.43.06-.09.18c-.2.4-.79.34-.91-.09l-.09-.31-.53-.29c-.26-.14-.34-.49-.16-.73l.48-.64v-.57c.02-.42.52-.64.84-.35Z"/>
          <path class="cls-3" d="M46.18,47.96l.02.02.1-.04c.36-.16.75.14.69.52l-.08.54.27.61c.13.3-.06.64-.38.69l-.3.04v.03c-.22.4-.81.34-.93-.09l-.04-.13-.41-.22c-.26-.14-.34-.49-.16-.73l.38-.51v-.38c.02-.42.52-.64.83-.35Z"/>
        </g>
        <g>
          <path class="cls-8" d="M38.82,54.19l2.75-2.1c.42-.32.59-1.09.38-1.73h0c-.21-.64-.71-.9-1.13-.58l-2.75,2.1c-.42.32-.59,1.09-.38,1.73h0c.21.64.71.9,1.13.58Z"/>
          <path class="cls-10" d="M32.46,52.83l2.26-3.17c.34-.48.37-1.3.05-1.82h0c-.31-.53-.85-.56-1.19-.08l-2.26,3.17c-.34.48-.37,1.3-.05,1.82h0c.31.53.85.56,1.19.08Z"/>
          <path class="cls-5" d="M34.54,60.14l1.64,3.95c.25.6.77.78,1.16.4h0c.39-.38.51-1.18.26-1.78l-1.64-3.95c-.25-.6-.77-.78-1.16-.4h0c-.39.38-.51,1.18-.26,1.78Z"/>
          <path class="cls-3" d="M40.37,56.48l.53-.28.09-.3c.12-.43.72-.49.92-.08l.09.19.44.07c.32.05.51.39.38.69l-.35.77.1.73c.06.39-.34.68-.69.52l-.22-.1-.13.12c-.31.28-.82.06-.82-.36v-.58s-.48-.65-.48-.65c-.18-.24-.1-.59.17-.73Z"/>
          <path class="cls-3" d="M30.28,56.9l.4-.22.04-.12c.12-.43.72-.49.92-.08v.03s.32.05.32.05c.32.05.51.39.38.69l-.28.61.08.54c.06.39-.34.68-.69.52l-.1-.04-.02.02c-.31.28-.82.06-.82-.36v-.38s-.38-.52-.38-.52c-.18-.24-.1-.59.17-.73Z"/>
        </g>
        <path class="cls-8" d="M65.8,81.97l2.98,1.12c.45.17.91-.25,1.02-.95h0c.11-.69-.17-1.39-.62-1.56l-2.98-1.12c-.45-.17-.91.25-1.02.95h0c-.11.69.17,1.39.62,1.56Z"/>
        <path class="cls-10" d="M63.71,74.53l3.07-.18c.47-.03.83-.63.81-1.34h0c-.02-.71-.41-1.27-.88-1.24l-3.07.18c-.47.03-.83.63-.81,1.34h0c.02.71.41,1.27.88,1.24Z"/>
        <path class="cls-9" d="M61.71,80.87l-.42,4.64c-.06.71.26,1.36.72,1.46h0c.46.1.89-.4.95-1.1l.42-4.64c.06-.71-.26-1.36-.72-1.46h0c-.46-.1-.89.4-.95,1.1Z"/>
        <path class="cls-3" d="M68.53,85.35l.18.11.15-.12c.33-.25.8,0,.79.41l-.02.63.44.7c.16.26.05.6-.23.72l-.51.2-.09.26c-.15.43-.74.45-.92.03l-.09-.22-.47-.13c-.31-.08-.46-.43-.31-.71l.4-.74-.06-.69c-.04-.4.4-.67.74-.47Z"/>
        <path class="cls-3" d="M60.66,75.68l.06.04.04-.03c.33-.25.8,0,.79.41l-.02.44.35.56c.16.26.05.6-.23.72l-.38.15-.03.08c-.15.43-.74.45-.92.03l-.02-.05-.35-.09c-.31-.08-.46-.43-.31-.71l.31-.59-.05-.49c-.04-.4.4-.67.74-.47Z"/>
        <g>
          <path class="cls-8" d="M11.25,70.02l2.98,1.12c.45.17.91-.25,1.02-.95h0c.11-.69-.17-1.39-.62-1.56l-2.98-1.12c-.45-.17-.91.25-1.02.95h0c-.11.69.17,1.39.62,1.56Z"/>
          <path class="cls-10" d="M6.98,62.67l3.07-.18c.47-.03.83-.63.81-1.34h0c-.02-.71-.41-1.27-.88-1.24l-3.07.18c-.47.03-.83.63-.81,1.34h0c.02.71.41,1.27.88,1.24Z"/>
          <path class="cls-9" d="M5.47,70.31l-.42,4.64c-.06.71.26,1.36.72,1.46h0c.46.1.89-.4.95-1.1l.42-4.64c.06-.71-.26-1.36-.72-1.46h0c-.46-.1-.89.4-.95,1.1Z"/>
          <path class="cls-3" d="M11.8,73.49l.18.11.15-.12c.33-.25.8,0,.79.41l-.02.63.44.7c.16.26.05.6-.23.72l-.51.2-.09.26c-.15.43-.74.45-.92.03l-.09-.22-.47-.13c-.31-.08-.46-.43-.31-.71l.4-.74-.06-.69c-.04-.4.4-.67.74-.47Z"/>
          <path class="cls-3" d="M3.93,63.82l.06.04.04-.03c.33-.25.8,0,.79.41l-.02.44.35.56c.16.26.05.6-.23.72l-.38.15-.03.08c-.15.43-.74.45-.92.03l-.02-.05-.35-.09c-.31-.08-.46-.43-.31-.71l.31-.59-.05-.49c-.04-.4.4-.67.74-.47Z"/>
        </g>
        <path class="cls-8" d="M75.37,54.66l-.15-4.7c-.02-.71-.42-1.26-.88-1.23h0c-.46.04-.82.64-.8,1.35l.15,4.7c.02.71.42,1.26.88,1.23h0c.46-.04.82-.64.8-1.35Z"/>
        <path class="cls-9" d="M77.2,63.06l3.03-.72c.46-.11.78-.77.71-1.47h0c-.07-.71-.5-1.19-.96-1.08l-3.03.72c-.46.11-.78.77-.71,1.47h0c.07.71.5,1.19.96,1.08Z"/>
        <path class="cls-3" d="M77.37,53.21l.03-.65-.43-.72c-.16-.27-.04-.61.25-.72l.5-.18.09-.24c.16-.42.75-.43.92-.01l.09.23.48.15c.3.09.44.44.29.71l-.41.74.05.67c.03.4-.41.67-.76.45l-.17-.11-.16.11c-.34.24-.8-.02-.78-.43Z"/>
        <path class="cls-3" d="M73.56,67.52l.02-.45-.34-.57c-.16-.27-.04-.61.25-.72l.37-.14.03-.07c.16-.42.75-.43.92-.01l.02.06.36.11c.3.09.44.44.29.71l-.33.59.04.48c.03.4-.41.67-.76.45l-.05-.03-.04.03c-.34.24-.8-.02-.78-.43Z"/>
        <g>
          <path class="cls-8" d="M62.82,55.94l2.98,1.12c.45.17.91-.25,1.02-.95h0c.11-.69-.17-1.39-.62-1.56l-2.98-1.12c-.45-.17-.91.25-1.02.95h0c-.11.69.17,1.39.62,1.56Z"/>
          <path class="cls-10" d="M58.55,48.6l3.07-.18c.47-.03.83-.63.81-1.34h0c-.02-.71-.41-1.27-.88-1.24l-3.07.18c-.47.03-.83.63-.81,1.34h0c.02.71.41,1.27.88,1.24Z"/>
          <path class="cls-5" d="M57.05,56.23l-.42,4.64c-.06.71.26,1.36.72,1.46h0c.46.1.89-.4.95-1.1l.42-4.64c.06-.71-.26-1.36-.72-1.46h0c-.46-.1-.89.4-.95,1.1Z"/>
          <path class="cls-3" d="M63.38,59.42l.18.11.15-.12c.33-.25.8,0,.79.41l-.02.63.44.7c.16.26.05.6-.23.72l-.51.2-.09.26c-.15.43-.74.45-.92.03l-.09-.22-.47-.13c-.31-.08-.46-.43-.31-.71l.4-.74-.06-.69c-.04-.4.4-.67.74-.47Z"/>
          <path class="cls-3" d="M55.51,49.75l.06.04.04-.03c.33-.25.8,0,.79.41l-.02.44.35.56c.16.26.05.6-.23.72l-.38.15-.03.08c-.15.43-.74.45-.92.03l-.02-.05-.35-.09c-.31-.08-.46-.43-.31-.71l.31-.59-.05-.49c-.04-.4.4-.67.74-.47Z"/>
        </g>
        <path class="cls-8" d="M54.24,78.98l2.73,2.16c.41.33.92.08,1.14-.55h0c.21-.63.05-1.41-.36-1.74l-2.73-2.16c-.41-.33-.92-.08-1.14.55h0c-.21.63-.05,1.41.36,1.74Z"/>
        <path class="cls-9" d="M48.58,77.19l-1.12,4.36c-.17.66.04,1.41.48,1.67h0c.43.26.92-.07,1.09-.73l1.12-4.36c.17-.66-.04-1.41-.48-1.67h0c-.43-.26-.92.07-1.09.73Z"/>
        <path class="cls-3" d="M54.29,82.6l.12.12.26-.09c.36-.12.71.19.64.56l-.15.76.3.79c.12.32-.1.66-.44.67h-.4s-.09.18-.09.18c-.22.39-.81.3-.91-.14l-.08-.35-.54-.36c-.25-.16-.29-.51-.1-.73l.5-.59.03-.52c.03-.43.55-.62.85-.31Z"/>
        <g>
          <path class="cls-8" d="M74.99,79.47l-.42,4.66c-.06.71.26,1.36.72,1.45h0c.46.1.89-.4.95-1.1l.42-4.66c.06-.71-.26-1.36-.72-1.45h0c-.46-.1-.89.4-.95,1.1Z"/>
          <path class="cls-10" d="M79.32,72.2l.43,4.65c.07.71.49,1.2.95,1.1h0c.46-.1.78-.76.72-1.46l-.43-4.65c-.07-.71-.49-1.2-.95-1.1h0c-.46.1-.78.76-.72,1.46Z"/>
          <path class="cls-5" d="M74.2,70.7l-3.06-.15c-.47-.02-.86.54-.87,1.25h0c-.02.71.35,1.31.82,1.33l3.06.15c.47.02.86-.54.87-1.25h0c.02-.71-.35-1.31-.82-1.33Z"/>
          <path class="cls-3" d="M72.87,80.21l-.13.75.32.79c.13.31-.09.65-.42.68l-.41.03-.09.17c-.22.39-.8.32-.91-.12l-.08-.33-.53-.33c-.25-.16-.31-.5-.12-.73l.49-.61.03-.55c.02-.43.54-.63.84-.33l.12.12.24-.09c.36-.14.73.17.66.55Z"/>
          <path class="cls-3" d="M78.34,67.22l-.1.56.25.62c.13.31-.09.65-.42.68l-.28.02v.02c-.23.39-.81.32-.92-.12l-.04-.15-.41-.26c-.25-.16-.31-.5-.12-.73l.39-.49.02-.35c.02-.43.54-.63.84-.33h.01s.12-.03.12-.03c.36-.14.73.17.66.55Z"/>
        </g>
        <path class="cls-8" d="M47.69,74.52l-3.06.46c-.46.07-.8.7-.76,1.41h0c.05.71.46,1.23.92,1.16l3.06-.46c.46-.07.8-.7.76-1.41h0c-.05-.71-.46-1.23-.92-1.16Z"/>
        <path class="cls-10" d="M53.31,79.28l-2.85,1.72c-.43.26-.65,1.01-.48,1.67h0c.17.66.66.99,1.1.73l2.85-1.72c.43-.26.65-1.01.48-1.67h0c-.17-.66-.66-.99-1.1-.73Z"/>
        <path class="cls-3" d="M56.11,76.66h-.24s0,0,0,0c-.24.37-.81.26-.9-.17l-.04-.2-.42-.32c-.23-.18-.26-.52-.06-.73l.41-.43.03-.29c.04-.43.59-.6.87-.27h0s.16-.03.16-.03c.36-.09.69.23.6.59l-.14.59.21.62c.11.33-.14.67-.49.65Z"/>
        <path class="cls-8" d="M28.96,63.86l2.94,1.34c.45.2.92-.19,1.05-.87h0c.13-.68-.12-1.4-.57-1.6l-2.94-1.34c-.45-.2-.92.19-1.05.87h0c-.13.68.12,1.4.57,1.6Z"/>
        <path class="cls-10" d="M24.92,58.1l3.07.05c.47,0,.85-.56.85-1.28h0c0-.71-.37-1.3-.84-1.3l-3.07-.05c-.47,0-.85.56-.85,1.28h0c0,.71.37,1.3.84,1.3Z"/>
        <path class="cls-9" d="M18.36,67.18l-.56,4.61c-.09.7.22,1.38.67,1.51h0c.46.13.9-.33.98-1.03l.56-4.61c.09-.7-.22-1.38-.67-1.51h0c-.46-.13-.9.33-.98,1.03Z"/>
        <path class="cls-3" d="M28.99,71.37l.17.11.17-.11c.34-.22.79.04.76.44l-.04.67.42.73c.16.27.02.62-.27.71l-.49.16-.09.23c-.16.42-.76.42-.92,0l-.09-.24-.49-.17c-.29-.1-.42-.45-.26-.71l.42-.72-.04-.66c-.03-.41.43-.67.77-.44Z"/>
        <path class="cls-3" d="M22.28,59.54l.05.03.05-.03c.34-.22.79.04.76.44l-.03.47.33.58c.16.27.02.62-.27.71l-.36.12-.03.06c-.16.42-.76.42-.92,0l-.03-.07-.37-.13c-.29-.1-.42-.45-.26-.71l.34-.57-.03-.46c-.03-.41.43-.67.77-.44Z"/>
        <path class="cls-4" d="M34.09,69.76c.84.57,1.77,1.02,2.74,1.34.36.12.83.04,1.16-.15s.61-.54.69-.9c.09-.38.07-.81-.15-1.16s-.51-.56-.9-.69c-.24-.08-.48-.17-.71-.26l.36.15c-.59-.25-1.15-.56-1.68-.92-.17-.11-.36-.17-.56-.18-.2-.04-.4-.04-.6.03-.35.1-.73.36-.9.69-.18.35-.28.77-.15,1.16l.15.36c.13.23.31.4.54.54h0Z"/>
        <path class="cls-10" d="M81.07,55.62l1.81,3.8c.27.58.8.7,1.18.28h0c.38-.42.46-1.23.18-1.81l-1.81-3.8c-.27-.58-.8-.7-1.18-.28h0c-.38.42-.46,1.23-.18,1.81Z"/>
        <path class="cls-3" d="M73.8,76.04l.06.43.53.47c.22.19.22.54,0,.73l-.53.48-.06.44c-.06.44-.62.58-.88.23l-.1-.13-.32.05c-.35.06-.65-.27-.55-.62l.22-.79-.23-.79c-.1-.34.19-.67.54-.63l.33.05.1-.14c.26-.36.82-.22.89.22Z"/>
        <path class="cls-3" d="M74.64,60.64l.04.24.42.37c.22.19.22.54,0,.73l-.42.38-.03.25c-.06.44-.62.58-.88.23h0s-.19.03-.19.03c-.35.06-.65-.27-.55-.62l.17-.61-.18-.61c-.1-.34.19-.67.54-.63l.2.03h0c.26-.36.82-.22.89.21Z"/>
        <path class="cls-4" d="M69.35,65.71l-2.56,2.11,2.51.66c-.11-.51-.4-1.05-.79-1.4-.57-.51-1.25-.7-2.01-.54-.36.08-.72.38-.9.69-.19.32-.27.8-.15,1.16s.34.71.69.9c.37.19.75.24,1.16.15.02,0,.05-.01.08-.01l-.4.05s.07,0,.11,0l-.4-.05c.05,0,.1.02.15.04l-.36-.15c.06.03.12.06.18.1l-.3-.23c.07.06.13.12.19.19l-.23-.3c.07.1.13.2.17.31l-.15-.36c.03.09.06.17.08.26.11.5.56.91,1.05,1.05.27.07.53.07.8,0,.25-.07.47-.2.66-.39l2.56-2.11c.28-.23.44-.71.44-1.06,0-.37-.16-.81-.44-1.06s-.66-.46-1.06-.44l-.4.05c-.25.07-.47.2-.66.39h0Z"/>
        <path class="cls-8" d="M25.81,75.14l.06-4.36c0-.66-.33-1.21-.76-1.23h0c-.43-.02-.79.51-.8,1.17l-.06,4.36c0,.66.33,1.21.76,1.23h0c.43.02.79-.51.8-1.17Z"/>
        <path class="cls-10" d="M28.15,67.79l-.72-4.22c-.11-.64-.54-1.02-.96-.86h0c-.42.17-.67.82-.56,1.46l.72,4.22c.11.64.54,1.02.96.86h0c.42-.17.67-.82.56-1.46Z"/>
        <path class="cls-9" d="M32.38,77.02l2.84-.35c.43-.05.75-.63.72-1.29h0c-.04-.66-.41-1.15-.84-1.1l-2.84.35c-.43.05-.75.63-.72,1.29h0c.04.66.41,1.15.84,1.1Z"/>
        <path class="cls-3" d="M30.71,70.13l.06-.58-.34-.66c-.15-.28,0-.63.32-.71l.39-.1.05-.11c.18-.41.77-.39.92.04l.05.16.43.18c.28.12.39.46.22.72l-.39.61v.51c.03.42-.45.66-.78.41l-.08-.06-.12.07c-.35.2-.78-.08-.74-.48Z"/>
        <path class="cls-3" d="M28.82,80.76l.04-.39-.27-.51c-.15-.28,0-.63.32-.71l.27-.07h0c.17-.4.75-.38.89.04v.04s.33.13.33.13c.28.12.39.46.22.72l-.31.48v.36c.02.4-.44.64-.76.39h0s0,0,0,0c-.35.2-.78-.08-.74-.48Z"/>
        <path class="cls-8" d="M35.82,77.52l-2.64-2.4c-.4-.36-.92-.16-1.15.45h0c-.24.61-.11,1.4.29,1.77l2.64,2.4c.4.36.92.16,1.15-.45h0c.24-.61.11-1.4-.29-1.77Z"/>
        <path class="cls-10" d="M38.51,86.44l-2.97-1.2c-.45-.18-.91.23-1.03.92h0c-.12.69.15,1.4.6,1.58l2.97,1.2c.45.18.91-.23,1.03-.92h0c.12-.69-.15-1.4-.6-1.58Z"/>
        <path class="cls-9" d="M41.4,79.81l1.28-4.26c.19-.65,0-1.42-.41-1.71h0c-.42-.3-.93-.02-1.12.63l-1.28,4.26c-.19.65,0,1.42.41,1.71h0c.42.3.93.02,1.12-.63Z"/>
        <path class="cls-3" d="M35.9,73.88l-.11-.13-.29.07c-.36.09-.68-.23-.6-.59l.19-.78-.27-.79c-.11-.33.15-.67.49-.65l.36.02.1-.15c.24-.37.82-.26.9.18l.07.39.54.42c.23.18.26.52.05.73l-.52.53-.05.48c-.04.43-.59.6-.87.27Z"/>
        <path class="cls-3" d="M41.6,86.64h0s-.16.03-.16.03c-.36.09-.68-.23-.6-.59l.14-.59-.21-.62c-.11-.33.15-.67.49-.65h.23s0,0,0,0c.24-.37.82-.26.9.18l.04.2.42.33c.23.18.26.52.05.73l-.41.42-.03.29c-.04.43-.59.6-.87.27Z"/>
        <path class="cls-9" d="M71.58,70.72l-2.75,2.06c-.42.31-.59,1.09-.39,1.73h0c.21.64.71.91,1.13.59l2.75-2.06c.42-.31.59-1.09.39-1.73h0c-.21-.64-.71-.91-1.13-.59Z"/>
        <g>
          <path class="cls-8" d="M89.05,62.76l-.15-4.7c-.02-.71-.42-1.26-.88-1.23h0c-.46.04-.82.64-.8,1.35l.15,4.7c.02.71.42,1.26.88,1.23h0c.46-.04.82-.64.8-1.35Z"/>
          <path class="cls-10" d="M85.68,71.12l-.99-4.45c-.15-.68-.63-1.04-1.07-.81h0c-.44.23-.68.96-.53,1.64l.99,4.45c.15.68.63,1.04,1.07.81h0c.44-.23.68-.96.53-1.64Z"/>
          <path class="cls-9" d="M90.89,71.15l3.03-.72c.46-.11.78-.77.71-1.47h0c-.07-.71-.5-1.19-.96-1.08l-3.03.72c-.46.11-.78.77-.71,1.47h0c.07.71.5,1.19.96,1.08Z"/>
          <path class="cls-3" d="M91.05,61.3l.03-.65-.43-.72c-.16-.27-.04-.61.25-.72l.5-.18.09-.24c.16-.42.75-.43.92-.01l.09.23.48.15c.3.09.44.44.29.71l-.41.74.05.67c.03.4-.41.67-.76.45l-.17-.11-.16.11c-.34.24-.8-.02-.78-.43Z"/>
          <path class="cls-3" d="M88.33,68.73l.04.24.42.37c.22.19.22.54,0,.73l-.42.38-.03.25c-.06.44-.62.58-.88.23h0s-.19.03-.19.03c-.35.06-.65-.27-.55-.62l.17-.61-.18-.61c-.1-.34.19-.67.54-.63l.2.03h0c.26-.36.82-.22.89.21Z"/>
        </g>
        <path class="cls-8" d="M48.34,57.93l-.15-4.7c-.02-.71-.42-1.26-.88-1.23h0c-.46.04-.82.64-.8,1.35l.15,4.7c.02.71.42,1.26.88,1.23h0c.46-.04.82-.64.8-1.35Z"/>
        <path class="cls-10" d="M60.41,60.26l-.99-4.45c-.15-.68-.63-1.04-1.07-.81h0c-.44.23-.68.96-.53,1.64l.99,4.45c.15.68.63,1.04,1.07.81h0c.44-.23.68-.96.53-1.64Z"/>
        <path class="cls-9" d="M43.3,64.46l3.03-.72c.46-.11.78-.77.71-1.47h0c-.07-.71-.5-1.19-.96-1.08l-3.03.72c-.46.11-.78.77-.71,1.47h0c.07.71.5,1.19.96,1.08Z"/>
        <path class="cls-3" d="M58.66,61.35l.03-.65-.43-.72c-.16-.27-.04-.61.25-.72l.5-.18.09-.24c.16-.42.75-.43.92-.01l.09.23.48.15c.3.09.44.44.29.71l-.41.74.05.67c.03.4-.41.67-.76.45l-.17-.11-.16.11c-.34.24-.8-.02-.78-.43Z"/>
        <path class="cls-3" d="M49.16,75.7l.04.24.42.37c.22.19.22.54,0,.73l-.42.38-.03.25c-.06.44-.62.58-.88.23h0s-.19.03-.19.03c-.35.06-.65-.27-.55-.62l.17-.61-.18-.61c-.1-.34.19-.67.54-.63l.2.03h0c.26-.36.82-.22.89.21Z"/>
        <g>
          <path class="cls-8" d="M68.23,56.53l.68,4.58c.1.69.56,1.13,1.01.97h0c.45-.16.74-.85.63-1.54l-.68-4.58c-.1-.69-.56-1.13-1.01-.97h0c-.45.16-.74.85-.63,1.54Z"/>
          <path class="cls-10" d="M70.61,47.38l1.48,4.12c.22.63.74.85,1.14.51h0c.41-.34.56-1.13.33-1.76l-1.48-4.12c-.22-.63-.74-.85-1.14-.51h0c-.41.34-.56,1.13-.33,1.76Z"/>
          <path class="cls-9" d="M65.47,48.75l-2.9,1.51c-.44.23-.68.96-.53,1.64h0c.15.68.63,1.04,1.07.81l2.9-1.51c.44-.23.68-.96.53-1.64h0c-.15-.68-.63-1.04-1.07-.81Z"/>
          <path class="cls-3" d="M66.44,58.62l.03.53.5.59c.19.22.15.57-.1.73l-.53.36-.08.35c-.1.44-.68.52-.91.14l-.09-.16h-.4c-.34-.03-.56-.37-.44-.68l.3-.79-.15-.76c-.07-.37.28-.68.64-.56l.26.09.11-.12c.3-.31.82-.12.85.31Z"/>
          <path class="cls-3" d="M68.24,50.35l-.04-.13-.41-.23c-.26-.15-.33-.49-.15-.73l.38-.51v-.37c.02-.42.52-.64.84-.35l.02.02.1-.04c.36-.16.74.14.69.52l-.08.54.27.61c.13.3-.06.65-.39.69l-.3.04v.02c-.22.4-.81.34-.93-.09Z"/>
        </g>
        <g>
          <path class="cls-8" d="M38.9,52.21l-.15-4.7c-.02-.71-.42-1.26-.88-1.23h0c-.46.04-.82.64-.8,1.35l.15,4.7c.02.71.42,1.26.88,1.23h0c.46-.04.82-.64.8-1.35Z"/>
          <path class="cls-10" d="M35.53,60.58l-.99-4.45c-.15-.68-.63-1.04-1.07-.81h0c-.44.23-.68.96-.53,1.64l.99,4.45c.15.68.63,1.04,1.07.81h0c.44-.23.68-.96.53-1.64Z"/>
          <path class="cls-9" d="M40.74,60.6l3.03-.72c.46-.11.78-.77.71-1.47h0c-.07-.71-.5-1.19-.96-1.08l-3.03.72c-.46.11-.78.77-.71,1.47h0c.07.71.5,1.19.96,1.08Z"/>
          <path class="cls-3" d="M40.9,50.75l.03-.65-.43-.72c-.16-.27-.04-.61.25-.72l.5-.18.09-.24c.16-.42.75-.43.92-.01l.09.23.48.15c.3.09.44.44.29.71l-.41.74.05.67c.03.4-.41.67-.76.45l-.17-.11-.16.11c-.34.24-.8-.02-.78-.43Z"/>
          <path class="cls-3" d="M38.18,58.19l.04.24.42.37c.22.19.22.54,0,.73l-.42.38-.03.25c-.06.44-.62.58-.88.23h0s-.19.03-.19.03c-.35.06-.65-.27-.55-.62l.17-.61-.18-.61c-.1-.34.19-.67.54-.63l.2.03h0c.26-.36.82-.22.89.21Z"/>
        </g>
        <g>
          <path class="cls-8" d="M10.73,61.71l-2.09-3.44c-.32-.52-.85-.55-1.19-.06h0c-.34.49-.36,1.3-.04,1.82l2.09,3.44c.32.52.85.55,1.19.06h0c.34-.49.36-1.3.04-1.82Z"/>
          <path class="cls-10" d="M11.67,71.43l-2.63-2.43c-.4-.37-.92-.17-1.16.44h0c-.24.61-.11,1.4.29,1.77l2.63,2.43c.4.37.92.17,1.16-.44h0c.24-.61.11-1.4-.29-1.77Z"/>
          <path class="cls-9" d="M15.67,66.31l2.01-3.53c.31-.54.27-1.35-.08-1.82h0c-.35-.47-.88-.41-1.19.13l-2.01,3.53c-.31.54-.27,1.35.08,1.82h0c.35.47.88.41,1.19-.13Z"/>
          <path class="cls-3" d="M11.49,58.28l-.09-.2-.45-.09c-.32-.06-.49-.41-.35-.7l.37-.77-.09-.71c-.05-.39.36-.68.71-.5l.2.1.14-.12c.32-.27.81-.04.81.38v.6s.46.67.46.67c.17.25.08.59-.19.72l-.52.25-.09.28c-.13.43-.73.47-.92.06Z"/>
          <path class="cls-3" d="M12.82,67.13h0s.15-.03.15-.03c.36-.1.69.22.61.58l-.13.59.22.62c.11.33-.13.67-.48.66h-.24s0,0,0,0c-.24.38-.81.27-.9-.17l-.04-.19-.42-.31c-.24-.18-.27-.52-.07-.73l.41-.44.03-.3c.04-.43.58-.61.86-.28Z"/>
        </g>
        <path class="cls-10" d="M70.85,68.37l-.99-4.45c-.15-.68-.63-1.04-1.07-.81h0c-.44.23-.68.96-.53,1.64l.99,4.45c.15.68.63,1.04,1.07.81h0c.44-.23.68-.96.53-1.64Z"/>
        <path class="cls-8" d="M82.54,68.58l2.97-1.2c.45-.18.72-.89.6-1.58h0c-.12-.69-.58-1.1-1.03-.92l-2.97,1.2c-.45.18-.72.89-.6,1.58h0c.12.69.58,1.1,1.03.92Z"/>
      </g>
    </g>
    <g>
      <ellipse class="cls-7" cx="60.27" cy="50.29" rx="25.73" ry="49.8" transform="translate(6.41 107.39) rotate(-86.52)"/>
      <path class="cls-1" d="M10.94,50.24c-.07,3.17,1.77,5.96,3.89,6.94s4.45.51,6.6-.33,4.26-2.01,6.47-2.44c3.33-.64,6.81.51,9.59,3.18,1.52,1.46,2.83,3.34,4.32,4.86,2.76,2.81,6.63,4.26,9.51,1.73,1.16-1.02,2.05-2.58,3.23-3.55,2.34-1.92,5.28-1.13,7.88-.13,7.28,2.8,14.56,6.88,22.08,6.08,1.84-.19,3.88-.89,4.83-3.12.43-1.01.58-2.22.93-3.3,1.08-3.32,3.86-4.79,6.42-5.07,2.56-.28,5.17.31,7.7-.38,2.52-.69,5.1-3.21,5.32-6.85-1.79-2.74-4.52-6.52-8.27-10.18-7.85-7.65-17.21-11.9-33.12-12.93-3.83-.25-53.4-3-57.42,19.14-.51,2.83-.15,5.34.02,6.34Z"/>
    </g>
    <g>
      <ellipse class="cls-7" cx="58.2" cy="24.52" rx="24.33" ry="49.76" transform="translate(33.48 82.64) rotate(-89.8)"/>
      <path class="cls-2" d="M107.49,27.02c-.01,3-1.93,5.53-4.08,6.35s-4.46.25-6.59-.65c-2.13-.9-4.2-2.12-6.4-2.64-3.31-.78-6.82.13-9.67,2.51-1.56,1.3-2.92,3.01-4.45,4.37-2.83,2.51-6.74,3.68-9.55,1.14-1.13-1.02-1.98-2.54-3.13-3.52-2.29-1.93-5.24-1.34-7.87-.53-7.35,2.27-14.74,5.75-22.23,4.61-1.83-.28-3.85-1.04-4.74-3.2-.4-.98-.52-2.13-.84-3.16-.99-3.19-3.73-4.72-6.28-5.12-2.55-.39-5.18.03-7.68-.76-2.5-.78-5.01-3.3-5.13-6.75,1.86-2.5,4.7-5.92,8.54-9.18C25.43,3.69,34.89.16,50.82,0c3.84-.04,53.44-.08,56.86,21.03.44,2.69,0,5.05-.19,5.99Z"/>
      <g>
        <path class="cls-8" d="M100.04,19.85l-.06-4.12c0-.62.36-1.14.83-1.15h0c.47-.01.85.48.86,1.11l.06,4.12c0,.62-.36,1.14-.83,1.15h0c-.47.01-.85-.48-.86-1.11Z"/>
        <path class="cls-10" d="M103.78,26.86l.79-3.98c.12-.6.58-.96,1.03-.8h0c.45.16.72.78.6,1.39l-.79,3.98c-.12.6-.58.96-1.03.8h0c-.45-.16-.72-.78-.6-1.39Z"/>
        <path class="cls-5" d="M98.58,27.36l-3.05-.35c-.46-.05-.81-.6-.77-1.22h0c.04-.62.45-1.09.91-1.03l3.05.35c.46.05.81.6.77,1.22h0c-.04.62-.45,1.09-.91,1.03Z"/>
        <path class="cls-3" d="M97.98,18.74l-.06-.54.33-.56c.17-.29.01-.66-.31-.73l-.41-.09-.1-.21c-.19-.39-.75-.36-.9.04l-.09.24-.43.16c-.31.11-.42.49-.23.75l.38.52-.02.5c-.01.4.43.65.77.43l.17-.12.2.1c.35.18.76-.1.71-.49Z"/>
        <path class="cls-3" d="M102.41,30.91l-.04-.37.25-.42c.17-.29.01-.66-.31-.73l-.28-.06-.03-.06c-.19-.39-.75-.36-.9.04l-.04.09-.31.11c-.31.11-.42.49-.23.75l.29.39v.32c-.03.4.42.65.75.43l.06-.04.08.04c.35.18.76-.1.71-.49Z"/>
      </g>
      <g>
        <path class="cls-8" d="M77.04,21.74l-.05-3.82c0-.58.34-1.06.77-1.07h0c.43-.01.79.45.8,1.03l.05,3.82c0,.58-.34,1.06-.77,1.07h0c-.43.01-.79-.45-.8-1.03Z"/>
        <path class="cls-10" d="M80.52,28.24l.73-3.69c.11-.56.54-.89.96-.75h0c.42.15.67.72.56,1.29l-.73,3.69c-.11.56-.54.89-.96.75h0c-.42-.15-.67-.72-.56-1.29Z"/>
        <path class="cls-5" d="M75.69,28.71l-2.84-.32c-.43-.05-.75-.56-.71-1.14h0c.04-.58.42-1.01.85-.96l2.84.32c.43.05.75.56.71,1.14h0c-.04.58-.42,1.01-.85.96Z"/>
        <path class="cls-3" d="M75.12,20.64l-.05-.43.28-.47c.17-.29.01-.66-.31-.73l-.33-.08-.06-.12c-.19-.39-.75-.36-.9.04l-.06.15-.36.13c-.31.11-.42.49-.23.75l.32.44v.39c-.03.4.42.65.75.43l.1-.07.13.07c.35.18.76-.1.71-.49Z"/>
        <path class="cls-3" d="M79.24,31.93l-.03-.27.21-.35c.17-.29.01-.66-.31-.73l-.21-.05h0c-.19-.38-.74-.36-.89.04v.02s-.25.09-.25.09c-.31.11-.42.49-.23.75l.24.32v.24c-.02.4.42.65.75.43h0s.02,0,.02,0c.35.18.76-.1.71-.49Z"/>
      </g>
      <g>
        <path class="cls-8" d="M84.89,8.89l-.06-4.12c0-.62.36-1.14.83-1.15h0c.47-.01.85.48.86,1.11l.06,4.12c0,.62-.36,1.14-.83,1.15h0c-.47.01-.85-.48-.86-1.11Z"/>
        <path class="cls-10" d="M88.64,15.9l.79-3.98c.12-.6.58-.96,1.03-.8h0c.45.16.72.78.6,1.39l-.79,3.98c-.12.6-.58.96-1.03.8h0c-.45-.16-.72-.78-.6-1.39Z"/>
        <path class="cls-5" d="M83.44,16.4l-3.05-.35c-.46-.05-.81-.6-.77-1.22h0c.04-.62.45-1.09.91-1.03l3.05.35c.46.05.81.6.77,1.22h0c-.04.62-.45,1.09-.91,1.03Z"/>
        <path class="cls-3" d="M82.83,7.77l-.06-.54.33-.56c.17-.29.01-.66-.31-.73l-.41-.09-.1-.21c-.19-.39-.75-.36-.9.04l-.09.24-.43.16c-.31.11-.42.49-.23.75l.38.52-.02.5c-.01.4.43.65.77.43l.17-.12.2.1c.35.18.76-.1.71-.49Z"/>
        <path class="cls-3" d="M87.26,19.94l-.04-.37.25-.42c.17-.29.01-.66-.31-.73l-.28-.06-.03-.06c-.19-.39-.75-.36-.9.04l-.04.09-.31.11c-.31.11-.42.49-.23.75l.29.39v.32c-.03.4.42.65.75.43l.06-.04.08.04c.35.18.76-.1.71-.49Z"/>
      </g>
      <g>
        <path class="cls-8" d="M41.69,6.57l-.06-4.12c0-.62.36-1.14.83-1.15h0c.47-.01.85.48.86,1.11l.06,4.12c0,.62-.36,1.14-.83,1.15h0c-.47.01-.85-.48-.86-1.11Z"/>
        <path class="cls-10" d="M45.43,13.58l.79-3.98c.12-.6.58-.96,1.03-.8h0c.45.16.72.78.6,1.39l-.79,3.98c-.12.6-.58.96-1.03.8h0c-.45-.16-.72-.78-.6-1.39Z"/>
        <path class="cls-5" d="M40.23,14.08l-3.05-.35c-.46-.05-.81-.6-.77-1.22h0c.04-.62.45-1.09.91-1.03l3.05.35c.46.05.81.6.77,1.22h0c-.04.62-.45,1.09-.91,1.03Z"/>
        <path class="cls-3" d="M39.62,5.45l-.06-.54.33-.56c.17-.29.01-.66-.31-.73l-.41-.09-.1-.21c-.19-.39-.75-.36-.9.04l-.09.24-.43.16c-.31.11-.42.49-.23.75l.38.52-.02.5c-.01.4.43.65.77.43l.17-.12.2.1c.35.18.76-.1.71-.49Z"/>
        <path class="cls-3" d="M44.06,17.62l-.04-.37.25-.42c.17-.29.01-.66-.31-.73l-.28-.06-.03-.06c-.19-.39-.75-.36-.9.04l-.04.09-.31.11c-.31.11-.42.49-.23.75l.29.39v.32c-.03.4.42.65.75.43l.06-.04.08.04c.35.18.76-.1.71-.49Z"/>
      </g>
      <g>
        <path class="cls-8" d="M55.46,10.12l-2.82,1.64c-.43.25-.92-.02-1.11-.59h0c-.18-.57.01-1.24.44-1.49l2.82-1.64c.43-.25.92.02,1.11.59h0c.18.57-.01,1.24-.44,1.49Z"/>
        <path class="cls-10" d="M58.87,2.82l-3.04.53c-.46.08-.89-.36-.94-.98h0c-.06-.62.27-1.19.73-1.27l3.04-.53c.46-.08.89.36.94.98h0c.06.62-.27,1.19-.73,1.27Z"/>
        <path class="cls-5" d="M61.19,9.08l.92,3.92c.14.6-.11,1.23-.55,1.42h0c-.44.19-.92-.14-1.06-.74l-.92-3.92c-.14-.6.11-1.23.55-1.42h0c.44-.19.92.14,1.06.74Z"/>
        <path class="cls-3" d="M55.28,13.26l-.16.12-.23-.09c-.36-.14-.73.16-.67.54l.09.56-.3.58c-.16.3.04.67.38.71l.38.05.11.19c.21.37.77.31.9-.09l.09-.28.45-.21c.29-.14.37-.52.16-.76l-.4-.47v-.46c-.02-.41-.49-.63-.81-.38Z"/>
        <path class="cls-3" d="M61.99,3.14l-.04.04-.11-.04c-.36-.14-.73.16-.67.54l.07.39-.22.43c-.16.3.04.67.38.71l.26.03.03.05c.21.37.77.31.9-.09l.04-.12.33-.16c.29-.14.37-.52.16-.76l-.31-.36v-.29c-.01-.41-.49-.63-.81-.38Z"/>
      </g>
      <g>
        <path class="cls-8" d="M68.76,7.72l-2.74-1.85c-.42-.28-.58-.96-.37-1.52h0c.21-.56.72-.78,1.13-.5l2.74,1.85c.42.28.58.96.37,1.52h0c-.21.56-.72.78-1.13.5Z"/>
        <path class="cls-10" d="M75.13,6.55l-2.26-2.79c-.34-.42-.36-1.14-.05-1.6h0c.32-.46.85-.49,1.19-.06l2.26,2.79c.34.42.36,1.14.05,1.6h0c-.32.46-.85.49-1.19.06Z"/>
        <path class="cls-5" d="M73.03,12.96l-1.65,3.46c-.25.53-.77.68-1.17.34h0c-.39-.34-.51-1.04-.25-1.57l1.65-3.46c.25-.53.77-.68,1.17-.34h0c.39.34.51,1.04.25,1.57Z"/>
        <path class="cls-3" d="M67.13,9.68l-.45-.21-.09-.28c-.13-.41-.68-.46-.9-.09l-.11.19-.39.05c-.34.04-.53.41-.38.71l.3.58-.09.56c-.06.38.31.68.67.54l.23-.09.16.12c.32.25.79.03.8-.38v-.46s.41-.48.41-.48c.21-.25.13-.63-.17-.76Z"/>
        <path class="cls-3" d="M77.21,10.1l-.33-.15-.04-.12c-.13-.41-.68-.46-.9-.09l-.03.05-.26.03c-.34.04-.53.41-.38.71l.22.43-.07.39c-.06.38.31.68.67.54l.11-.04.05.04c.32.25.79.03.8-.38v-.29s.31-.36.31-.36c.21-.25.13-.63-.17-.76Z"/>
      </g>
      <g>
        <path class="cls-8" d="M40.08,32.79l-2.99.97c-.45.15-.91-.23-1.02-.83h0c-.11-.61.17-1.22.62-1.37l2.99-.97c.45-.15.91.23,1.02.83h0c.11.61-.17,1.22-.62,1.37Z"/>
        <path class="cls-10" d="M44.37,26.37l-3.07-.17c-.47-.03-.83-.55-.81-1.18h0c.02-.62.41-1.11.88-1.08l3.07.17c.47.03.83.55.81,1.18h0c-.02.62-.41,1.11-.88,1.08Z"/>
        <path class="cls-5" d="M45.86,33.07l.41,4.07c.06.62-.26,1.19-.72,1.27h0c-.46.08-.89-.35-.95-.97l-.41-4.07c-.06-.62.26-1.19.72-1.27h0c.46-.08.89.35.95.97Z"/>
        <path class="cls-3" d="M39.54,35.82l-.2.1-.18-.12c-.33-.22-.78.03-.76.43l.02.5-.37.51c-.19.27-.08.64.23.75l.43.16.1.24c.16.4.71.42.9.04l.1-.21.41-.09c.33-.08.48-.45.31-.73l-.33-.55.06-.54c.04-.39-.37-.67-.71-.49Z"/>
        <path class="cls-3" d="M47.43,27.38l-.08.04-.06-.04c-.33-.22-.78.03-.76.43v.33s-.27.39-.27.39c-.19.27-.08.64.23.75l.31.11.04.09c.16.4.71.42.9.04l.03-.07.28-.07c.33-.08.48-.45.31-.73l-.25-.42.04-.36c.04-.39-.37-.67-.71-.49Z"/>
      </g>
      <g>
        <path class="cls-8" d="M91.76,18.1l-2.99.97c-.45.15-.91-.23-1.02-.83h0c-.11-.61.17-1.22.62-1.37l2.99-.97c.45-.15.91.23,1.02.83h0c.11.61-.17,1.22-.62,1.37Z"/>
        <path class="cls-10" d="M96.04,11.68l-3.07-.17c-.47-.03-.83-.55-.81-1.18h0c.02-.62.41-1.11.88-1.08l3.07.17c.47.03.83.55.81,1.18h0c-.02.62-.41,1.11-.88,1.08Z"/>
        <path class="cls-5" d="M97.53,18.38l.41,4.07c.06.62-.26,1.19-.72,1.27h0c-.46.08-.89-.35-.95-.97l-.41-4.07c-.06-.62.26-1.19.72-1.27h0c.46-.08.89.35.95.97Z"/>
        <path class="cls-3" d="M91.21,21.13l-.2.1-.18-.12c-.33-.22-.78.03-.76.43l.02.5-.37.51c-.19.27-.08.64.23.75l.43.16.1.24c.16.4.71.42.9.04l.1-.21.41-.09c.33-.08.48-.45.31-.73l-.33-.55.06-.54c.04-.39-.37-.67-.71-.49Z"/>
        <path class="cls-3" d="M99.11,12.69l-.08.04-.06-.04c-.33-.22-.78.03-.76.43v.33s-.27.39-.27.39c-.19.27-.08.64.23.75l.31.11.04.09c.16.4.71.42.9.04l.03-.07.28-.07c.33-.08.48-.45.31-.73l-.25-.42.04-.36c.04-.39-.37-.67-.71-.49Z"/>
      </g>
      <g>
        <path class="cls-8" d="M19.04,18.93l-2.99.97c-.45.15-.91-.23-1.02-.83h0c-.11-.61.17-1.22.62-1.37l2.99-.97c.45-.15.91.23,1.02.83h0c.11.61-.17,1.22-.62,1.37Z"/>
        <path class="cls-10" d="M23.32,12.51l-3.07-.17c-.47-.03-.83-.55-.81-1.18h0c.02-.62.41-1.11.88-1.08l3.07.17c.47.03.83.55.81,1.18h0c-.02.62-.41,1.11-.88,1.08Z"/>
        <path class="cls-5" d="M24.81,19.21l.41,4.07c.06.62-.26,1.19-.72,1.27h0c-.46.08-.89-.35-.95-.97l-.41-4.07c-.06-.62.26-1.19.72-1.27h0c.46-.08.89.35.95.97Z"/>
        <path class="cls-3" d="M18.49,21.97l-.2.1-.18-.12c-.33-.22-.78.03-.76.43l.02.5-.37.51c-.19.27-.08.64.23.75l.43.16.1.24c.16.4.71.42.9.04l.1-.21.41-.09c.33-.08.48-.45.31-.73l-.33-.55.06-.54c.04-.39-.37-.67-.71-.49Z"/>
        <path class="cls-3" d="M26.39,13.53l-.08.04-.06-.04c-.33-.22-.78.03-.76.43v.33s-.27.39-.27.39c-.19.27-.08.64.23.75l.31.11.04.09c.16.4.71.42.9.04l.03-.07.28-.07c.33-.08.48-.45.31-.73l-.25-.42.04-.36c.04-.39-.37-.67-.71-.49Z"/>
      </g>
      <g>
        <path class="cls-8" d="M32.76,8.9l.16-4.12c.02-.62.42-1.1.89-1.07h0c.46.03.82.57.8,1.19l-.16,4.12c-.02.62-.42,1.1-.89,1.07h0c-.46-.03-.82-.57-.8-1.19Z"/>
        <path class="cls-10" d="M36.12,16.25l1-3.9c.15-.59.63-.91,1.07-.7h0c.44.2.67.85.52,1.44l-1,3.9c-.15.59-.63.91-1.07.7h0c-.44-.2-.67-.85-.52-1.44Z"/>
        <path class="cls-5" d="M30.91,16.25l-3.02-.64c-.46-.1-.77-.68-.7-1.3h0c.07-.62.5-1.04.97-.94l3.02.64c.46.1.77.68.7,1.3h0c-.07.62-.5,1.04-.97.94Z"/>
        <path class="cls-3" d="M30.76,7.55l-.03-.51.36-.53c.19-.27.06-.65-.25-.75l-.43-.14-.1-.23c-.16-.4-.72-.41-.9-.02l-.1.22-.42.11c-.32.09-.47.46-.29.74l.35.55-.05.53c-.04.39.38.67.73.48l.19-.11.18.11c.34.21.77-.05.75-.45Z"/>
        <path class="cls-3" d="M34.53,20.12l-.02-.34.28-.4c.19-.27.06-.65-.25-.75l-.3-.1-.03-.08c-.16-.4-.72-.41-.9-.02l-.03.07-.29.08c-.32.09-.47.46-.29.74l.26.41-.03.36c-.04.39.38.67.73.48l.08-.04.06.04c.34.21.77-.05.75-.45Z"/>
      </g>
      <g>
        <path class="cls-8" d="M45.3,10.08l-2.99.97c-.45.15-.91-.23-1.02-.83h0c-.11-.61.17-1.22.62-1.37l2.99-.97c.45-.15.91.23,1.02.83h0c.11.61-.17,1.22-.62,1.37Z"/>
        <path class="cls-10" d="M49.59,3.66l-3.07-.17c-.47-.03-.83-.55-.81-1.18h0c.02-.62.41-1.11.88-1.08l3.07.17c.47.03.83.55.81,1.18h0c-.02.62-.41,1.11-.88,1.08Z"/>
        <path class="cls-5" d="M51.07,10.36l.41,4.07c.06.62-.26,1.19-.72,1.27h0c-.46.08-.89-.35-.95-.97l-.41-4.07c-.06-.62.26-1.19.72-1.27h0c.46-.08.89.35.95.97Z"/>
        <path class="cls-3" d="M44.76,13.11l-.2.1-.18-.12c-.33-.22-.78.03-.76.43l.02.5-.37.51c-.19.27-.08.64.23.75l.43.16.1.24c.16.4.71.42.9.04l.1-.21.41-.09c.33-.08.48-.45.31-.73l-.33-.55.06-.54c.04-.39-.37-.67-.71-.49Z"/>
        <path class="cls-3" d="M52.65,4.67l-.08.04-.06-.04c-.33-.22-.78.03-.76.43v.33s-.27.39-.27.39c-.19.27-.08.64.23.75l.31.11.04.09c.16.4.71.42.9.04l.03-.07.28-.07c.33-.08.48-.45.31-.73l-.25-.42.04-.36c.04-.39-.37-.67-.71-.49Z"/>
      </g>
      <path class="cls-8" d="M53.83,30.31l-2.73,1.88c-.41.29-.92.07-1.13-.49h0c-.21-.56-.05-1.24.37-1.52l2.73-1.88c.41-.29.92-.07,1.13.49h0c.21.56.05,1.24-.37,1.52Z"/>
      <path class="cls-5" d="M59.49,28.77l1.11,3.83c.17.58-.05,1.24-.48,1.47h0c-.43.23-.92-.06-1.09-.65l-1.11-3.83c-.17-.58.05-1.24.48-1.47h0c.43-.23.92.06,1.09.65Z"/>
      <g>
        <path class="cls-8" d="M31.75,33.55l.41,4.09c.06.62-.26,1.19-.72,1.27h0c-.46.08-.89-.35-.95-.97l-.41-4.09c-.06-.62.26-1.19.72-1.27h0c.46-.08.89.35.95.97Z"/>
        <path class="cls-10" d="M27.44,27.16l-.44,4.08c-.07.62-.5,1.05-.96.96h0c-.46-.09-.78-.67-.71-1.29l.44-4.08c.07-.62.5-1.05.96-.96h0c.46.09.78.67.71,1.29Z"/>
        <path class="cls-5" d="M32.56,25.87l3.06-.12c.47-.02.85.47.87,1.1h0c.01.63-.35,1.15-.82,1.17l-3.06.12c-.47.02-.85-.47-.87-1.1h0c-.01-.63.35-1.15.82-1.17Z"/>
        <path class="cls-3" d="M33.89,34.3l.11.57-.27.59c-.15.31.07.68.41.7l.37.03.11.18c.23.36.78.29.89-.12l.08-.29.45-.24c.28-.15.35-.53.13-.77l-.42-.45-.02-.44c-.02-.41-.51-.62-.82-.35l-.15.13-.24-.08c-.36-.12-.72.19-.64.56Z"/>
        <path class="cls-3" d="M28.45,22.88l.08.41-.21.44c-.15.31.07.68.41.7l.24.02.03.04c.23.36.78.29.89-.12l.04-.13.33-.18c.28-.15.35-.53.13-.77l-.32-.34v-.27c-.03-.41-.52-.62-.83-.35l-.04.03-.12-.04c-.36-.12-.72.19-.64.56Z"/>
      </g>
      <g>
        <path class="cls-8" d="M67.87,7.96l-.86-3.96c-.13-.6.13-1.23.57-1.4h0c.45-.18.91.17,1.05.77l.86,3.96c.13.6-.13,1.23-.57,1.4h0c-.45.18-.91-.17-1.05-.77Z"/>
        <path class="cls-10" d="M72.85,13.41l-.02-4.12c0-.63.37-1.14.84-1.14h0c.47,0,.85.5.85,1.13l.02,4.12c0,.63-.37,1.14-.84,1.14h0c-.47,0-.85-.5-.85-1.13Z"/>
        <path class="cls-5" d="M67.93,15.72l-3.01.74c-.46.11-.9-.3-.98-.91h0c-.08-.62.22-1.21.68-1.32l3.01-.74c.46-.11.9.3.98.91h0c.08.62-.22,1.21-.68,1.32Z"/>
        <path class="cls-3" d="M65.69,7.71l-.19-.6.19-.6c.11-.34-.17-.69-.53-.64l-.31.04-.12-.15c-.27-.32-.8-.18-.86.24l-.06.37-.45.35c-.25.2-.25.58,0,.77l.45.35.06.37c.07.42.59.56.86.24l.12-.15.31.04c.36.05.64-.3.53-.64Z"/>
        <path class="cls-3" d="M72.35,17.89l-.14-.44.14-.44c.11-.34-.17-.69-.53-.64l-.18.02-.03-.03c-.27-.32-.8-.18-.86.24l-.03.2-.34.27c-.25.2-.25.58,0,.77l.34.27.03.2c.07.42.59.56.86.24l.03-.03.18.02c.36.05.64-.3.53-.64Z"/>
      </g>
      <g>
        <path class="cls-8" d="M72.25,29.12l2.65-2.09c.4-.32.92-.14,1.15.4h0c.24.54.1,1.23-.3,1.55l-2.65,2.09c-.4.32-.92.14-1.15-.4h0c-.24-.54-.1-1.23.3-1.55Z"/>
        <path class="cls-10" d="M69.54,36.94l2.97-1.03c.45-.16.91.21,1.03.81h0c.12.61-.16,1.22-.61,1.38l-2.97,1.03c-.45.16-.91-.21-1.03-.81h0c-.12-.61.16-1.22.61-1.38Z"/>
        <path class="cls-5" d="M66.67,31.1l-1.27-3.74c-.19-.57,0-1.24.42-1.5h0c.42-.26.93,0,1.12.56l1.27,3.74c.19.57,0,1.24-.42,1.5h0c-.42.26-.93,0-1.12-.56Z"/>
        <path class="cls-3" d="M72.15,25.96l.13-.14.28.06c.36.08.68-.25.58-.61l-.16-.59.23-.59c.13-.33-.13-.69-.48-.67h-.34s-.12-.14-.12-.14c-.25-.34-.79-.23-.88.19l-.07.34-.45.3c-.26.18-.29.56-.06.77l.44.4.04.4c.05.41.56.59.85.29Z"/>
        <path class="cls-3" d="M66.43,37.12l.03-.03.15.03c.36.08.68-.25.58-.61l-.11-.43.17-.44c.13-.33-.13-.69-.48-.67h-.21s-.03-.03-.03-.03c-.25-.34-.79-.23-.88.19l-.04.17-.34.23c-.26.18-.29.56-.06.77l.33.3.03.23c.05.41.56.59.85.29Z"/>
      </g>
      <path class="cls-8" d="M60.39,26.44l3.06.41c.46.06.8.62.75,1.24h0c-.05.62-.46,1.07-.92,1.01l-3.06-.41c-.46-.06-.8-.62-.75-1.24h0c.05-.62.46-1.07.92-1.01Z"/>
      <path class="cls-10" d="M54.75,30.59l2.85,1.52c.43.23.64.89.47,1.47h0c-.17.58-.66.86-1.1.63l-2.85-1.52c-.43-.23-.64-.89-.47-1.47h0c.17-.58.66-.86,1.1-.63Z"/>
      <path class="cls-3" d="M52,28.27h.21s.03.03.03.03c.25.34.79.23.88-.18l.04-.17.34-.22c.27-.18.3-.56.06-.77l-.33-.3-.03-.23c-.05-.41-.55-.59-.84-.29l-.03.03-.15-.03c-.36-.08-.68.25-.59.61l.11.42-.17.44c-.13.33.12.68.48.67Z"/>
      <g>
        <path class="cls-8" d="M78.72,19.28l-2.95,1.16c-.45.18-.91-.17-1.05-.77h0c-.13-.6.13-1.23.57-1.4l2.95-1.16c.45-.18.91.17,1.05.77h0c.13.6-.13,1.23-.57,1.4Z"/>
        <path class="cls-10" d="M82.78,12.59l-3.07.03c-.47,0-.85-.5-.85-1.12h0c0-.62.37-1.13.84-1.14l3.07-.03c.47,0,.85.5.85,1.12h0c0,.62-.37,1.13-.84,1.14Z"/>
        <path class="cls-5" d="M84.5,19.19l.55,4.04c.08.62-.22,1.21-.68,1.32h0c-.46.11-.9-.3-.98-.91l-.55-4.04c-.08-.62.22-1.21.68-1.32h0c.46-.11.9.3.98.91Z"/>
        <path class="cls-3" d="M78.27,22.35l-.19.11-.19-.11c-.34-.2-.77.07-.74.46l.04.52-.35.54c-.18.28-.05.65.27.74l.42.12.1.23c.17.39.73.39.9,0l.1-.23.42-.13c.32-.09.45-.47.27-.74l-.35-.53.04-.52c.03-.4-.4-.66-.74-.46Z"/>
        <path class="cls-3" d="M85.86,13.42l-.07.04-.07-.04c-.34-.2-.77.07-.74.46l.03.35-.27.41c-.18.28-.05.65.27.74l.3.09.03.08c.17.39.73.39.9,0l.03-.08.3-.09c.32-.09.45-.47.27-.74l-.27-.41.03-.34c.03-.4-.4-.66-.74-.46Z"/>
      </g>
      <g>
        <path class="cls-8" d="M32.69,25.44l-1.07,3.87c-.16.59-.65.88-1.08.67h0c-.44-.22-.66-.87-.5-1.45l1.07-3.87c.16-.59.65-.88,1.08-.67h0c.44.22.66.87.5,1.45Z"/>
        <path class="cls-10" d="M31.12,17.07l-1.82,3.32c-.28.5-.8.61-1.18.24h0c-.37-.37-.45-1.08-.18-1.58l1.82-3.32c.28-.5.8-.61,1.18-.24h0c.37.37.45,1.08.18,1.58Z"/>
        <path class="cls-5" d="M36.09,19.16l2.74,1.82c.42.28.59.96.38,1.52h0c-.21.56-.71.79-1.13.51l-2.74-1.82c-.42-.28-.59-.96-.38-1.52h0c.21-.56.71-.79,1.13-.51Z"/>
        <path class="cls-3" d="M34.27,27.66l-.06.36-.45.35c-.25.19-.26.57,0,.77l.45.36.06.37c.06.42.59.56.86.25l.12-.14.3.04c.36.05.65-.29.54-.64l-.19-.6.2-.6c.11-.34-.17-.69-.52-.65l-.31.04-.12-.15c-.27-.33-.79-.19-.87.23Z"/>
        <path class="cls-3" d="M33.47,14.16l-.03.19-.34.26c-.25.19-.26.57,0,.77l.34.27.03.2c.06.42.59.56.86.25l.03-.03.18.03c.36.05.65-.29.54-.64l-.14-.44.15-.44c.11-.34-.17-.69-.52-.65l-.18.02-.03-.03c-.27-.33-.79-.19-.87.23Z"/>
      </g>
    </g>
    <path class="cls-6" d="M38.18,17.29c1.08,2.06,8.97,4.99,10.8,5.18,8.49.86,17.64.54,24.74-4.2l-3.58,1.32c-1.71-1.81-4.13-2.83-6.58-3.26s-4.97-.33-7.45-.2c-4.52.23-9.34.64-12.94,3.39-.22.17-.54.35-.75.17s.33-.49.26-.22"/>
    <path class="cls-3" d="M54.67,27.89l-.2.15-.25-.04c-.37-.06-.67.29-.55.65l.08.23-.12.22c-.18.33.07.73.45.72h.25s.17.17.17.17c.26.27.72.16.83-.2l.07-.24.22-.11c.34-.17.37-.63.06-.85l-.2-.14-.03-.24c-.05-.37-.49-.55-.79-.32Z"/>
    <path class="cls-2" d="M37.42,17.79c1.4.9,2.87,1.65,4.41,2.27.25.1.64.02.87-.11s.46-.4.52-.67c.07-.29.05-.61-.11-.87s-.39-.4-.67-.52c-.06-.03-.39-.13-.09-.03-.1-.03-.19-.08-.28-.12-.16-.07-.33-.15-.49-.22-.35-.16-.69-.33-1.03-.51-.68-.36-1.34-.74-1.99-1.16-.5-.32-1.26-.12-1.54.4-.3.56-.13,1.2.4,1.54h0Z"/>
    <path class="cls-2" d="M70.45,19.74c.59.01,1.18-.04,1.76-.15.19-.04.32-.28.26-.46-.07-.21-.25-.3-.46-.26-.07.01-.14.02-.21.04-.04,0-.07.01-.11.02-.02,0-.12.02-.03,0-.13.02-.27.03-.4.04-.27.02-.55.03-.82.02-.2,0-.38.18-.38.38s.16.37.38.38h0Z"/>
    <path class="cls-2" d="M73.13,18.46l-1.34.42c-.19.06-.33.26-.26.46s.26.33.46.26l1.34-.42c.19-.06.33-.26.26-.46s-.26-.33-.46-.26h0Z"/>
    <path class="cls-2" d="M70.11,19.73c.48,0,.48-.75,0-.75s-.48.75,0,.75h0Z"/>
    <path class="cls-2" d="M70.34,20.29c.48,0,.48-.75,0-.75s-.48.75,0,.75h0Z"/>
  </g>
</svg>