<?xml version="1.0" encoding="UTF-8"?>
<svg id="Layer_2" data-name="Layer 2" xmlns="http://www.w3.org/2000/svg" viewBox="0 0 104.04 122.58">
  <defs>
    <style>
      .cls-1 {
        fill: #603813;
      }

      .cls-2 {
        fill: #fffff5;
      }

      .cls-3 {
        fill: #ffb3cb;
      }

      .cls-4 {
        fill: #fff;
      }

      .cls-5 {
        fill: #ffe39b;
      }

      .cls-6 {
        fill: none;
      }

      .cls-6, .cls-7 {
        stroke: #000;
        stroke-miterlimit: 10;
      }
    </style>
  </defs>
  <g id="ice_cream" data-name="ice cream">
    <g>
      <polygon class="cls-5" points="96.36 70.18 97.69 81.74 17.25 89.55 7.77 90.48 7.77 80.99 96.36 70.18"/>
      <polygon class="cls-6" points="7.77 80.99 7.77 90.48 17.25 89.55 97.69 81.74 96.36 70.18 7.77 80.99"/>
    </g>
    <g>
      <g>
        <path class="cls-1" d="M97.54,64.93c-.95.12-1.63.35-1.63.36.01,0,.9.03,1.63-.36ZM97.55,64.93c.69-.08,1.53-.1,2.36.06.35.07,3.09.61,3.56,2.52.23.95-.13,2.11-.89,2.82-1.11,1.04-2.42.53-5.78.89-1.63.17-2.81.45-4,.74-3.1.74-4.45,1.64-6.37,2.37-4.64,1.75-9.1,1.11-12.74.59-4.81-.69-4.25-1.65-7.26-1.78-5.42-.23-6.7,2.94-14.33,5.48-6.45,2.16-12.17,2.11-14.11,2.08-4.99-.08-5.02-.98-11.26-1.04-5.06-.05-8.32-.08-11.41,1.04-.56.21-2.24.86-4.59,1.18-1.48.21-2.65.22-3.2.19,0,0-.11-.01-.21-.01-1.23-.09-5.42-.35-6.52-2.69-.93-1.99.56-4.32.74-4.6,1.64-2.48,5.19-3.43,6.94-2.68.2.08.64.3.77.16.25-.28-1.01-1.73-1.34-2.22-1.78-2.69,2.13-10.48,8.45-16.29,1.36-1.26,7.36-6.58,20.15-9.78,0,0,22.68-5.68,45.48,4,1.11.47,5.97,2.58,10.67,7.11,4.69,4.52,6.07,8.43,5.63,9.18-.02.04-.05.07-.05.07-.18.27-.42.46-.69.61Z"/>
        <path class="cls-4" d="M97.54,64.93c-.73.39-1.62.37-1.63.36,0-.01.68-.24,1.63-.36Z"/>
      </g>
      <g>
        <path class="cls-6" d="M97.54,64.93c-.73.39-1.62.37-1.63.36,0-.01.68-.24,1.63-.36Z"/>
        <line class="cls-6" x1="97.54" y1="64.93" x2="97.55" y2="64.93"/>
        <path class="cls-6" d="M97.55,64.93c.69-.08,1.53-.1,2.36.06.35.07,3.09.61,3.56,2.52.23.95-.13,2.11-.89,2.82-1.11,1.04-2.42.53-5.78.89-1.63.17-2.81.45-4,.74-3.1.74-4.45,1.64-6.37,2.37-4.64,1.75-9.1,1.11-12.74.59-4.81-.69-4.25-1.65-7.26-1.78-5.42-.23-6.7,2.94-14.33,5.48-6.45,2.16-12.17,2.11-14.11,2.08-4.99-.08-5.02-.98-11.26-1.04-5.06-.05-8.32-.08-11.41,1.04-.56.21-2.24.86-4.59,1.18-1.48.21-2.65.22-3.2.19,0,0-.11-.01-.21-.01-1.23-.09-5.42-.35-6.52-2.69-.93-1.99.56-4.32.74-4.6,1.64-2.48,5.19-3.43,6.94-2.68.2.08.64.3.77.16.25-.28-1.01-1.73-1.34-2.22-1.78-2.69,2.13-10.48,8.45-16.29,1.36-1.26,7.36-6.58,20.15-9.78,0,0,22.68-5.68,45.48,4,1.11.47,5.97,2.58,10.67,7.11,4.69,4.52,6.07,8.43,5.63,9.18-.02.04-.05.07-.05.07-.18.27-.42.46-.69.61Z"/>
      </g>
    </g>
    <g>
      <path class="cls-5" d="M87.3,82.86c1.32,10.88,2.65,21.76,3.97,32.64-23.05,2.17-46.09,4.35-69.13,6.53-1.23-10.82-2.46-21.65-3.69-32.47l68.85-6.7Z"/>
      <path class="cls-6" d="M22.14,122.03c-1.23-10.82-2.46-21.65-3.69-32.47l68.85-6.7c1.32,10.88,2.65,21.76,3.97,32.64-23.05,2.17-46.09,4.35-69.13,6.53Z"/>
    </g>
    <g>
      <g>
        <path class="cls-2" d="M8.22,55.55c.88-.06,1.54.05,1.55.07,0,.01-.8.22-1.55-.07ZM8.21,55.55c-.64.05-1.4.19-2.11.52-.3.14-2.64,1.27-2.6,3.47.02,1.09.62,2.29,1.47,2.92,1.25.94,2.3.11,5.41-.14,1.51-.12,2.64-.04,3.77.04,2.97.23,4.4.95,6.29,1.38,4.59,1.03,8.45-.53,11.6-1.82,4.16-1.69,3.43-2.64,6.11-3.36,4.82-1.3,6.72,1.93,14.19,3.26,6.31,1.12,11.45-.05,13.19-.46,4.47-1.06,4.28-2.05,9.88-3.33,4.54-1.02,7.47-1.69,10.51-1.06.55.11,2.22.5,4.41.41,1.38-.07,2.43-.28,2.93-.42,0,0,.09-.02.18-.05,1.09-.34,4.79-1.44,5.23-4.23.36-2.37-1.53-4.65-1.75-4.91-2.06-2.41-5.48-2.77-6.88-1.62-.16.14-.5.47-.65.34-.29-.26.5-2.11.68-2.7.96-3.31-4.41-11.14-11.47-16.31-1.52-1.11-8.18-5.82-20.45-6.86,0,0-21.75-1.85-39.97,13.22-.88.73-4.76,4.01-7.9,9.9-3.15,5.9-3.47,10.46-2.88,11.21.03.03.05.07.05.07.23.26.49.43.77.54Z"/>
        <path class="cls-2" d="M8.22,55.55c.75.29,1.54.08,1.55.07,0-.02-.67-.13-1.55-.07Z"/>
      </g>
      <g>
        <path class="cls-6" d="M8.22,55.55c.75.29,1.54.08,1.55.07,0-.02-.67-.13-1.55-.07Z"/>
        <line class="cls-6" x1="8.22" y1="55.55" x2="8.21" y2="55.55"/>
        <path class="cls-6" d="M8.21,55.55c-.64.05-1.4.19-2.11.52-.3.14-2.64,1.27-2.6,3.47.02,1.09.62,2.29,1.47,2.92,1.25.94,2.3.11,5.41-.14,1.51-.12,2.64-.04,3.77.04,2.97.23,4.4.95,6.29,1.38,4.59,1.03,8.45-.53,11.6-1.82,4.16-1.69,3.43-2.64,6.11-3.36,4.82-1.3,6.72,1.93,14.19,3.26,6.31,1.12,11.45-.05,13.19-.46,4.47-1.06,4.28-2.05,9.88-3.33,4.54-1.02,7.47-1.69,10.51-1.06.55.11,2.22.5,4.41.41,1.38-.07,2.43-.28,2.93-.42,0,0,.09-.02.18-.05,1.09-.34,4.79-1.44,5.23-4.23.36-2.37-1.53-4.65-1.75-4.91-2.06-2.41-5.48-2.77-6.88-1.62-.16.14-.5.47-.65.34-.29-.26.5-2.11.68-2.7.96-3.31-4.41-11.14-11.47-16.31-1.52-1.11-8.18-5.82-20.45-6.86,0,0-21.75-1.85-39.97,13.22-.88.73-4.76,4.01-7.9,9.9-3.15,5.9-3.47,10.46-2.88,11.21.03.03.05.07.05.07.23.26.49.43.77.54Z"/>
      </g>
    </g>
    <g>
      <g>
        <path class="cls-3" d="M88.32,25.62c.62-.09,1.38-.11,2.14.07.32.08,2.8.68,3.22,2.8.21,1.05-.12,2.33-.81,3.12-1,1.17-2.19.59-5.23.99-1.47.2-2.54.51-3.62.82-2.8.83-4.03,1.83-5.76,2.63-4.2,1.94-8.23,1.24-11.53.65-4.35-.77-3.85-1.83-6.57-1.96-4.9-.26-6.06,3.25-12.97,6.08-5.84,2.39-11.01,2.33-12.77,2.3-4.52-.09-4.54-1.09-10.19-1.15-4.58-.04-7.53-.08-10.32,1.17-.51.22-2.03.94-4.15,1.31-1.34.22-2.4.23-2.9.2,0,0-.09,0-.18-.01-1.11-.1-4.9-.39-5.9-2.99-.84-2.21.51-4.8.67-5.1,1.48-2.75,4.7-3.81,6.28-2.99.18.1.58.34.7.19.23-.31-.91-1.93-1.21-2.46-1.61-2.99,1.93-11.64,7.65-18.09,1.23-1.39,6.66-7.3,18.23-10.86,0,0,20.52-6.29,41.15,4.44,1,.52,5.4,2.88,9.65,7.89,4.25,5.03,5.5,9.36,5.09,10.2-.02.03-.04.08-.04.08-.16.3-.38.51-.62.68ZM88.31,25.62c-.86.12-1.47.37-1.47.39,0,.01.81.04,1.47-.39Z"/>
        <path class="cls-3" d="M88.31,25.62c-.66.43-1.47.4-1.47.39,0-.02.62-.27,1.47-.39Z"/>
      </g>
      <g>
        <path class="cls-6" d="M88.31,25.62c-.66.43-1.47.4-1.47.39,0-.02.62-.27,1.47-.39Z"/>
        <line class="cls-6" x1="88.31" y1="25.62" x2="88.32" y2="25.62"/>
        <path class="cls-6" d="M88.32,25.62c.62-.09,1.38-.11,2.14.07.32.08,2.8.68,3.22,2.8.21,1.05-.12,2.33-.81,3.12-1,1.17-2.19.59-5.23.99-1.47.2-2.54.51-3.62.82-2.8.83-4.03,1.83-5.76,2.63-4.2,1.94-8.23,1.24-11.53.65-4.35-.77-3.85-1.83-6.57-1.96-4.9-.26-6.06,3.25-12.97,6.08-5.84,2.39-11.01,2.33-12.77,2.3-4.52-.09-4.54-1.09-10.19-1.15-4.58-.04-7.53-.08-10.32,1.17-.51.22-2.03.94-4.15,1.31-1.34.22-2.4.23-2.9.2,0,0-.09,0-.18-.01-1.11-.1-4.9-.39-5.9-2.99-.84-2.21.51-4.8.67-5.1,1.48-2.75,4.7-3.81,6.28-2.99.18.1.58.34.7.19.23-.31-.91-1.93-1.21-2.46-1.61-2.99,1.93-11.64,7.65-18.09,1.23-1.39,6.66-7.3,18.23-10.86,0,0,20.52-6.29,41.15,4.44,1,.52,5.4,2.88,9.65,7.89,4.25,5.03,5.5,9.36,5.09,10.2-.02.03-.04.08-.04.08-.16.3-.38.51-.62.68Z"/>
      </g>
    </g>
    <line class="cls-7" x1="27.27" y1="88.7" x2="30.94" y2="121.04"/>
    <line class="cls-7" x1="39.14" y1="87.65" x2="42.94" y2="120.28"/>
    <line class="cls-7" x1="52.13" y1="86.13" x2="55.92" y2="118.77"/>
    <line class="cls-7" x1="64.11" y1="84.58" x2="67.9" y2="117.21"/>
    <line class="cls-7" x1="75.25" y1="84.58" x2="79.48" y2="116.8"/>
    <line class="cls-7" x1="19.42" y1="98.06" x2="87.94" y2="91.83"/>
    <line class="cls-7" x1="21.08" y1="112.72" x2="89.94" y2="107.39"/>
  </g>
</svg>