<?xml version="1.0" encoding="UTF-8"?>
<svg id="Layer_2" data-name="Layer 2" xmlns="http://www.w3.org/2000/svg" viewBox="0 0 128.74 66.16">
  <defs>
    <style>
      .cls-1, .cls-2, .cls-3 {
        stroke: #000;
        stroke-miterlimit: 10;
        stroke-width: .5px;
      }

      .cls-1, .cls-4 {
        fill: #c1d57f;
      }

      .cls-2 {
        fill: ivory;
      }

      .cls-3, .cls-5 {
        fill: #d591c2;
      }
    </style>
  </defs>
  <g id="macaron">
    <path class="cls-4" d="M15.39,53.08c1.93,0,1.93-3,0-3s-1.93,3,0,3h0Z"/>
    <path class="cls-4" d="M12.69,51.64c3.52,2.67,7.65,4.53,11.99,5.35,4.88.92,10.11,1.13,15.06,1.03s9.38-1.45,14.08-2.61c2.39-.59,4.75-.95,7.21-.98,2.3-.03,4.55-.09,6.76-.8,2.4-.78,4.61-2.03,7.03-2.75,2.71-.82,5.53-1.1,8.34-1.37,1.9-.18,1.92-3.19,0-3-2.38.23-4.77.46-7.11.96-2.18.47-4.21,1.28-6.25,2.16s-4.18,1.66-6.51,1.77-4.48.05-6.72.39c-4.69.72-9.15,2.6-13.89,3.07s-9.78.12-14.55-.38c-5.11-.53-9.83-2.33-13.93-5.43-1.54-1.17-3.04,1.44-1.51,2.59h0Z"/>
    <path class="cls-1" d="M4.28,50.28c2.01-1.5,6.61,1.7,8.91,3.11,14.11,8.62,32.76,5.06,59.93-.13,2.4-.46,6.14-1.3,10.26-3.68,2.14-1.24,3.77-2.54,4.87-3.52,1.45.99,3.35,2.59,3.27,4.44-.53,11.76-79.91,23.73-87.23,7.56-.84-1.86-1.79-6.44,0-7.78Z"/>
    <path class="cls-4" d="M5.37,51.97c1.74-.49,3.57-.43,5.22.35s3.04,2.06,4.7,2.86c3.44,1.66,7.45,2.35,11.14,3.19,8.11,1.84,16.21,2.09,24.47,1.31,3.85-.37,7.73-.84,10.79-3.42,1.11-.93.09-2.43-1.06-2.56-6.15-.7-12.25,1-18.4,1.07s-12.45-.87-18.6-1.83l-.4,2.95c4.02-.38,8.14-.82,12.15-.15,2.06.34,4.08.93,6.15,1.23s4.13.4,6.2.33c8.19-.27,16.43-2.23,24.34-4.23,4.65-1.18,9.26-2.47,13.88-3.77,1.86-.52,1.07-3.42-.8-2.89-7.89,2.22-15.8,4.45-23.85,6.05-4.08.81-8.21,1.54-12.36,1.79-2.01.12-4.05.12-6.05-.1s-4-.78-6-1.17c-4.54-.88-9.1-.53-13.66-.09-1.54.15-2.2,2.67-.4,2.95,6.26.97,12.56,1.96,18.91,1.94s12.58-1.79,18.88-1.08l-1.06-2.56c-1.61,1.35-3.71,1.88-5.74,2.2-2.42.38-4.9.54-7.34.68-5.09.29-10.2.17-15.22-.72-2.55-.45-5.07-1.04-7.58-1.67-2.23-.56-4.59-1-6.69-1.94s-3.71-2.55-5.84-3.37-4.43-.85-6.6-.24c-1.86.52-1.07,3.42.8,2.89h0Z"/>
    <path class="cls-2" d="M88.96,40.46c.82,2.03.08,4.49-1.5,5.99-1.97.29-3.94.58-5.91.87-4.19.62-8.45,1.26-12.33,2.96-2.29,1.01-4.46,2.38-6.91,2.88-3.07.62-6.25-.2-9.37.1-3.41.33-6.65,1.99-10.07,1.93-3.17-.05-6.33-1.58-9.41-.81-1.22.31-2.36.97-3.61,1.08-2.29.19-4.36-1.49-6.66-1.58-1.19-.05-2.4.34-3.57.07-2.01-.46-3.3-2.74-5.35-2.98-.69-.08-1.38.09-2.08.07-1.41-.05-2.65-.87-3.97-1.37s-3.05-.57-3.9.55c-2.37-.8-3.05-2.96-3.18-5.46-.04-.78.06-1.56-.05-2.33"/>
    <path class="cls-1" d="M89.48,39.67c-.85.59-2.03.53-2.9,1.11-.66.45-1.03,1.22-1.58,1.81-2.23,2.43-6.17,1.27-9.47,1.4-4.06.16-7.7,2.55-11.69,3.31-7.9,1.51-16.61-3.44-23.81.13-1.44.72-2.77,1.76-4.35,2.06-4.14.75-7.68-3.84-11.88-3.55-1.63.11-3.19.97-4.81.77-2.39-.3-4.44-2.84-6.73-2.12-.85.26-1.53.94-2.4,1.11-2.22.41-3.65-2.59-5.87-2.97-.92-.15-1.93.15-2.75-.29-.87-.47-1.15-1.63-.91-2.58s.88-1.75,1.51-2.5h.74c-.27-.37-.41-.74-.41-1.12,0-4.51,19.39-8.17,43.31-8.17s43.31,3.66,43.31,8.17c0,.43-.18.85-.52,1.27h.85c1.01-.28,1.22,1.56.36,2.16Z"/>
    <path class="cls-4" d="M14.84,57.93c8.17,2.47,16.7,3.65,25.23,3.48,1.93-.04,1.93-3.04,0-3-8.29.16-16.5-.97-24.43-3.37-1.85-.56-2.64,2.33-.8,2.89h0Z"/>
    <path class="cls-4" d="M60.94,57.59c3.68-.32,7.23-.79,10.74-1.97s7.01-2.39,10.52-3.59c1.82-.62,1.04-3.52-.8-2.89-3.38,1.15-6.76,2.31-10.13,3.46s-6.76,1.68-10.33,2c-1.91.17-1.93,3.17,0,3h0Z"/>
    <g>
      <path class="cls-3" d="M47.32,12.28c2.49-.34,4.94,4.7,6.27,7.05,8.14,14.4,26.17,20.35,52.44,29.02,2.32.76,5.99,1.85,10.75,1.77,2.47-.04,4.53-.39,5.97-.71.79,1.57,1.67,3.89.69,5.47-6.18,10.02-81.37-18.1-79.9-35.8.17-2.03,1.56-6.5,3.78-6.8Z"/>
      <path class="cls-5" d="M47.43,14.07c1.6,3.72,4.05,7.07,7.1,9.74,2.14,1.87,4.56,3.4,6.97,4.92,3.18,2.01,6.39,4.03,9.91,5.36,4.81,1.82,10.09,2.32,14.73,4.54,1.9.91,3.68,2.11,5.68,2.79,2.7.91,5.62.82,8.42,1.31,3.22.56,6.25,1.88,9.24,3.18"/>
      <path class="cls-5" d="M51.57,14.65c2.07.44,3.96,1.66,5.21,3.36.99,1.36,1.57,2.97,2.46,4.4,1.03,1.65,2.46,3,3.88,4.33,3.17,3,6.36,6,9.87,8.59,4.88,3.59,10.34,6.33,15.9,8.72,2.87,1.23,6,2.4,9.05,1.74-4.05-2.96-8.98-4.38-13.54-6.47-6.83-3.14-12.83-7.8-18.75-12.41,3.77,1.65,7.59,3.33,10.83,5.87,1.52,1.19,2.88,2.56,4.39,3.77,3.54,2.84,7.74,4.71,11.98,6.32,9.87,3.74,20.17,6.19,30.44,8.63"/>
      <path class="cls-5" d="M99.93,45.44c2.4,1.07,4.82,2.15,7.38,2.8,1.05.27,2.13.46,3.2.66,3.45.62,6.89,1.25,10.34,1.87"/>
      <path class="cls-2" d="M126.38,47.31c-.27,2.17-2.11,3.96-4.23,4.51-1.86-.7-3.72-1.4-5.59-2.11-3.97-1.5-7.99-3.01-12.21-3.4-2.49-.24-5.05-.08-7.44-.84-2.98-.95-5.37-3.22-8.24-4.47-3.14-1.37-6.77-1.49-9.74-3.21-2.74-1.59-4.77-4.46-7.83-5.28-1.22-.33-2.53-.3-3.68-.82-2.09-.94-3.09-3.42-5.05-4.62-1.02-.62-2.27-.87-3.15-1.67-1.53-1.38-1.55-4-3.23-5.2-.56-.4-1.25-.59-1.85-.95-1.21-.73-1.9-2.05-2.8-3.13s-2.38-1.98-3.68-1.42c-1.69-1.85-1.22-4.07-.12-6.32.34-.7.81-1.33,1.09-2.06"/>
      <path class="cls-3" d="M127.21,46.87c-1.03.1-2.03-.52-3.07-.44-.8.07-1.49.57-2.26.81-3.13,1.04-6.01-1.89-8.96-3.38-3.63-1.83-7.97-1.51-11.82-2.79-7.64-2.52-12.84-11.08-20.87-11.46-1.61-.07-3.28.19-4.8-.31-3.98-1.36-4.84-7.09-8.66-8.88-1.48-.7-3.26-.7-4.58-1.67-1.94-1.42-2.5-4.64-4.85-5.12-.87-.19-1.79.08-2.64-.2-2.14-.72-1.93-4.04-3.69-5.45-.73-.58-1.76-.81-2.26-1.59-.53-.83-.21-1.98.46-2.7s1.62-1.1,2.53-1.45l.65.36c-.06-.45,0-.85.19-1.18,2.19-3.94,20.92,2.29,41.82,13.91s36.07,24.25,33.88,28.19c-.21.38-.57.66-1.07.86l.74.41c1.02.25.31,1.96-.74,2.06Z"/>
      <path class="cls-5" d="M101.62,49.53c.97-.34,1.88.11,2.76.53,1.06.51,2.12,1.01,3.25,1.33,2.34.67,4.8.8,7.22.93.81.04,1.5-.72,1.5-1.5,0-.89-.69-1.41-1.5-1.5-1.61-.18-3.2-.55-4.75-1.03-1.85-.58-2.64,2.32-.8,2.89s3.66.92,5.54,1.14v-3c-2.4-.12-4.82-.25-7.12-1.04s-4.39-2.55-6.91-1.65c-.76.27-1.27,1.02-1.05,1.85.2.74,1.08,1.32,1.85,1.05h0Z"/>
      <path class="cls-5" d="M59.09,29.51c4.51,5.03,11.9,5.84,16.46,10.75,1.32,1.42,3.43-.71,2.12-2.12-4.58-4.94-11.98-5.76-16.46-10.75-1.29-1.44-3.41.69-2.12,2.12h0Z"/>
    </g>
  </g>
</svg>