<?xml version="1.0" encoding="UTF-8"?>
<svg id="Layer_2" data-name="Layer 2" xmlns="http://www.w3.org/2000/svg" viewBox="0 0 155.16 74.32">
  <defs>
    <style>
      .cls-1 {
        fill: #fff;
      }

      .cls-1, .cls-2 {
        stroke: #000;
        stroke-miterlimit: 10;
      }

      .cls-3 {
        fill: #9e005d;
      }

      .cls-2 {
        fill: none;
      }

      .cls-4 {
        fill: #c1272d;
      }

      .cls-5 {
        fill: #f6d27e;
      }
    </style>
  </defs>
  <g id="pie">
    <path class="cls-1" d="M139.77,32.73L3.02,49.82l136.75-17.09Z"/>
    <path class="cls-2" d="M3.21,49.95c-.93.26-1.65,1.16-1.7,2.13-.05,1.03.56,1.95,1.15,2.79"/>
    <path class="cls-4" d="M75.86,33.34c7.42-1.59,14.91-2.79,22.45-3.56l-.4-2.95c-11.46,4.09-23.15,7.47-35.02,10.15l.8,2.89c9.8-3.81,20.01-6.68,30.45-8.06l-.4-2.95c-4.59,1.28-9.23,2.39-13.91,3.33l.8,2.89c6.88-1.88,13.94-2.83,21.07-2.83l-.4-2.95c-8.05,1.84-16.14,3.49-24.26,4.96-1.9.34-1.09,3.23.8,2.89,8.12-1.47,16.21-3.12,24.26-4.96,1.67-.38,1.28-2.95-.4-2.95-7.39,0-14.75.99-21.87,2.94-1.88.51-1.08,3.27.8,2.89,4.68-.94,9.32-2.04,13.91-3.33,1.56-.44,1.33-3.17-.4-2.95-10.73,1.42-21.16,4.26-31.24,8.17-1.77.69-1.12,3.33.8,2.89,11.87-2.67,23.56-6.06,35.02-10.15,1.48-.53,1.4-3.13-.4-2.95-7.81.8-15.57,2.02-23.25,3.67-1.89.41-1.09,3.3.8,2.89h0Z"/>
    <path class="cls-4" d="M67.43,30.84l.08-.07-1.82.23.12.06-.74-1.3v.1c.24-.43.48-.86.73-1.3-5.95,3.85-12.18,7.23-18.64,10.13l1.82,2.36c6.05-4.72,13.35-7.47,20.46-10.15l-1.16-2.74c-2.97,1.29-5.99,2.48-9.05,3.56-2.89,1.02-6.09,2.46-9.19,2.42l.76,2.8c3.61-2.54,7.54-4.53,11.74-5.89l-1.16-2.74c-1.17.53-2.33,1.06-3.5,1.6-1.75.8-.23,3.39,1.51,2.59,1.17-.53,2.33-1.06,3.5-1.6,1.55-.7.45-3.26-1.16-2.74-4.44,1.43-8.64,3.5-12.46,6.19-1.18.83-.81,2.77.76,2.8,3.41.05,6.82-1.41,9.99-2.53s6.55-2.47,9.76-3.86c1.54-.67.44-3.34-1.16-2.74-7.64,2.88-15.29,5.86-21.78,10.92-.59.46-.53,1.44-.12,1.97.49.63,1.24.7,1.94.39,3.53-1.58,6.99-3.3,10.38-5.17,1.66-.92,3.31-1.87,4.93-2.86.78-.48,1.56-.96,2.34-1.46.89-.56,1.61-.91,1.75-2.04.06-.48-.32-1.08-.74-1.3l-.12-.06c-.61-.31-1.31-.25-1.82.23l-.08.07c-1.4,1.33.72,3.45,2.12,2.12h0Z"/>
    <path class="cls-4" d="M66.81,17.37c5.18,2.36,10.92,1.68,16.1-.33,1.2-.46,2.44-1.3,3.69-1.55,1.33-.27,2.99.97,4.08,1.63,2.25,1.34,4.48,2.8,7.06,3.41,2.89.68,5.86.4,8.77.02,2.52-.33,5.85-1.25,8.32-.25,2.16.87,2.71,3.87,4.19,5.49,1.33,1.45,3.17,2.31,5.05,2.77,4.05,1,9.51.13,12.76,3.21,1.4,1.33,3.53-.79,2.12-2.12-3.15-2.98-7.54-3.03-11.6-3.54-1.81-.23-3.8-.54-5.32-1.63-1.88-1.34-2.34-3.81-3.88-5.45-1.82-1.94-4.54-2.21-7.05-2.02-2.99.23-5.93.88-8.94.95s-5.6-.8-8.21-2.35c-2.14-1.27-4.74-3.36-7.38-3.13-1.51.13-2.9,1.06-4.28,1.61-1.49.59-3.01,1.07-4.57,1.4-3.12.67-6.47.65-9.41-.69-1.74-.8-3.27,1.79-1.51,2.59h0Z"/>
    <path class="cls-4" d="M10.65,49.23c16.33-3.5,32.86-5.95,49.5-7.4,8.4-.73,16.82-1.25,25.24-1.85,8.19-.59,16.23-1.78,24.29-3.29,8.97-1.68,17.97-3.4,27.13-3.29,1.93.02,1.93-2.98,0-3-8.14-.1-16.2,1.22-24.18,2.7-8.1,1.5-16.15,3.01-24.37,3.67-16.87,1.36-33.73,2.24-50.5,4.61-9.36,1.32-18.67,2.98-27.91,4.96-1.89.4-1.09,3.3.8,2.89h0Z"/>
    <path class="cls-4" d="M25.89,47.71c7.73-1.91,15.69-2.19,23.62-2.47,3.97-.14,7.93-.29,11.89-.64,2.6-.24,7.46.06,7.83-3.46.2-1.92-2.8-1.9-3,0,.05-.44-.03-.11-.41-.08s-.76.14-1.12.18c-.86.11-1.73.2-2.6.29-1.74.17-3.48.29-5.22.39-3.57.2-7.14.3-10.71.44-7.08.27-14.18.75-21.08,2.45-1.87.46-1.08,3.36.8,2.89h0Z"/>
    <path class="cls-4" d="M11.38,48.68c14.71-7.74,29.6-15.21,44.09-23.36,4.06-2.28,8.07-4.68,11.96-7.24l-1.51-2.59c-5.17,3.44-10.35,6.88-15.52,10.32l2.05,2.05c1.16-1.51,2.74-2.73,4.49-3.46l-1.16-2.74c-1.88,1.1-3.76,2.2-5.64,3.3l1.82,2.36c1.63-1.7,3.63-2.72,5.94-3.13,1.9-.33,1.09-3.22-.8-2.89-2.78.49-5.31,1.86-7.26,3.9-1.17,1.22.32,3.23,1.82,2.36,1.88-1.1,3.76-2.2,5.64-3.3,1.41-.83.46-3.42-1.16-2.74-2.55,1.07-4.6,2.64-6.28,4.84-.92,1.2.86,2.85,2.05,2.05,5.17-3.44,10.35-6.88,15.52-10.32,1.6-1.06.11-3.66-1.51-2.59-13.72,9.02-28.67,16.19-43.18,23.83-4.29,2.26-8.58,4.51-12.87,6.77-1.71.9-.19,3.49,1.51,2.59h0Z"/>
    <path class="cls-4" d="M29.74,46.12c8.06-.15,14.39-5.13,21.44-8.31,1.36-.61-.77.3.61-.26.49-.2.99-.4,1.48-.6,1.14-.46,2.27-.93,3.4-1.41,1.75-.76,3.46-1.6,5.12-2.56,3.61-2.09,6.96-4.66,10.01-7.5,1.64-1.53,1.67-4.2.35-5.91-1.43-1.85-3.76-2.16-5.81-1.16-6.01,2.95-11.86,6.21-17.53,9.78-1.99,1.25-2.96,4.07-1.61,6.16s3.98,2.88,6.16,1.61c.43-.25.86-.5,1.29-.75,2.04-1.18,2.93-4.12,1.61-6.16s-3.98-2.88-6.16-1.61c-.43.25-.86.5-1.29.75l4.54,7.77c5.66-3.57,11.51-6.84,17.53-9.78l-5.45-7.07c-.69.65-1.4,1.28-2.12,1.89-.34.28-.67.56-1.02.83-.24.19-.23.18.05-.03-.23.18-.47.35-.7.52-1.41,1.04-2.88,2-4.39,2.87s-3.23,1.74-4.91,2.47c-.29.12-.28.12.02,0-.21.09-.42.17-.63.26-.49.2-.99.4-1.48.6-1.07.43-2.13.87-3.19,1.33-3.2,1.39-6.17,3.21-9.27,4.8-.73.37-1.46.73-2.21,1.07-1.2.55.81-.29-.42.17-.38.14-.75.28-1.13.41-.76.25-1.53.47-2.31.63-.26.05-.52.1-.78.14.47-.06.54-.07.21-.03-.47.02-.94.07-1.41.07-2.35.04-4.61,2.04-4.5,4.5s1.98,4.55,4.5,4.5h0Z"/>
    <path class="cls-4" d="M52.6,39.36c8.14,1.39,16.13.07,24.09-1.77,3.69-.86,7.37-1.78,11.1-2.48,1-.19,2-.35,3-.5,1.41-.21-.89.09.52-.07.43-.05.86-.1,1.29-.14,2.01-.19,4.02-.25,6.03-.16,2.35.1,4.61-2.14,4.5-4.5-.11-2.52-1.98-4.39-4.5-4.5-7.82-.33-15.5,1.6-23.05,3.38-1.84.43-3.68.86-5.53,1.23-.85.17-1.7.34-2.55.48-.5.09-.99.17-1.49.24-.21.03-.42.06-.64.09.49-.06.46-.06-.08,0-1.84.2-3.68.35-5.53.35-.85,0-1.7-.03-2.55-.09-.43-.03-.85-.08-1.28-.11-.54-.06-.57-.07-.08,0-.28-.04-.57-.09-.85-.14-2.31-.39-4.96.61-5.54,3.14-.5,2.18.66,5.11,3.14,5.54h0Z"/>
    <path class="cls-4" d="M48.37,43.98c5.27-.7,10.44-1.74,15.5-3.37,2.34-.75,4.68-1.67,7.12-2.02-.73.1,1.02-.05,1.17-.06.56-.02,1.12-.03,1.67-.02,1.36,0,2.72.07,4.07.04,9.92-.17,19.05-4.22,28.57-6.46,2.19-.51,4.53-.66,6.65-1.41,3.24-1.15,5.47-3.39,5.74-6.94.14-1.9-1.49-3.9-3.3-4.34-4-.97-8.24-.58-12.3-.27s-8.42.85-12.58,1.55c-7.86,1.32-15.57,3.38-23.05,6.11-2.2.81-3.93,3.09-3.14,5.54.7,2.16,3.17,4.01,5.54,3.14,7.19-2.63,14.59-4.64,22.13-5.95.92-.16,1.85-.31,2.77-.45.46-.07.93-.14,1.39-.2,1.52-.22-.86.1.66-.09,1.86-.23,3.72-.43,5.59-.58s3.74-.27,5.61-.34c.97-.04,1.94-.07,2.91-.04.44.01.88.05,1.33.08.33.03.29.03-.1,0,.29.05.58.12.86.19l-3.3-4.34c.03-.44.1-.84.34-1.23,0,.01.65-.72.3-.39-.42.4.74-.53.25-.19-.03.02-.37.23-.39.22-.06-.07.92-.29.22-.1-.2.06-.4.13-.6.18-.4.11-.81.19-1.22.26-2.09.37-4.15.76-6.21,1.28-4.28,1.1-8.47,2.52-12.73,3.7-2.15.6-4.31,1.13-6.51,1.53-.51.09-1.02.17-1.53.25-.74.12.63-.05-.12.02-.22.02-.44.05-.66.07-1.19.12-2.39.19-3.59.19-2.32.01-4.63-.15-6.94.1-2.59.29-5.01.95-7.47,1.76s-4.94,1.57-7.47,2.17c-1.23.29-2.46.56-3.7.8-.7.13-1.4.26-2.1.37-.23.04-.47.08-.7.11,0,0-1.44.21-.68.11-2.32.31-4.62,1.85-4.5,4.5.1,2.17,2,4.83,4.5,4.5h0Z"/>
    <path class="cls-4" d="M92.42,38.26c9.08-2.96,18.99-2.15,27.48-7.03,2.04-1.17,2.93-4.12,1.61-6.16s-3.97-2.87-6.16-1.61c-.48.27-.96.54-1.45.78-.24.12-.5.23-.74.35.41-.2.3-.11-.05.02-1.02.39-2.05.73-3.1,1.02-2.2.6-4.44,1-6.69,1.35-4.47.69-8.98,1.2-13.29,2.6-2.23.73-3.92,3.15-3.14,5.54.72,2.23,3.14,3.92,5.54,3.14h0Z"/>
    <path class="cls-4" d="M121.01,31.65c.91-.42,1.89-.62,2.9-.6l-.1-.74c-2.08.68-4.2,1.2-6.35,1.58l.2.72c1.16-.46,2.35-.82,3.57-1.08l-.36-.63c-.31.33-.67.54-1.12.65l.29.69c1.39-.72,2.84-1.27,4.35-1.67l-.29-.69c-.35.19-.69.37-1.04.56l.45.59c.18-.21.37-.42.55-.63.22-.25.01-.79-.36-.63-2.8,1.17-5.74,1.98-8.74,2.39-.48.07-.27.79.2.72,3.01-.42,5.94-1.22,8.74-2.39l-.36-.63c-.18.21-.37.42-.55.63-.27.32.07.8.45.59.35-.19.69-.37,1.04-.56.38-.2.12-.79-.29-.69-1.57.41-3.09,1-4.53,1.75-.39.2-.11.78.29.69.56-.14,1.05-.42,1.45-.85.26-.28,0-.7-.36-.63-1.22.26-2.41.62-3.57,1.08-.45.18-.28.81.2.72,2.15-.37,4.27-.9,6.35-1.58.4-.13.33-.73-.1-.74-1.14-.02-2.24.23-3.28.71-.44.2-.06.85.38.65h0Z"/>
    <path class="cls-4" d="M6.03,49.04c1.59-.39,3.13-.93,4.61-1.62l-.45-.59c-.96,1.1-2.31,1.81-3.78,1.94l.27.64c1.72-1.42,3.62-2.62,5.64-3.57.44-.21.06-.85-.38-.65-2.08.98-4.02,2.22-5.79,3.69-.24.2-.05.67.27.64,1.66-.14,3.21-.9,4.31-2.16.29-.33-.07-.77-.45-.59-1.42.66-2.91,1.17-4.43,1.55-.47.11-.27.84.2.72h0Z"/>
    <path class="cls-4" d="M22.87,44.51c3.06-1.51,6.13-2.72,9.52-3.26l-.29-.69c-1.35.84-2.82,1.37-4.39,1.6l.29.69c.78-.46,1.59-.82,2.45-1.1l-.29-.69c-1.91.84-3.88,1.53-5.89,2.1l.36.63c1.44-1.74,3.54-2.75,5.8-2.74l-.19-.7c-1.62,1-3.35,1.79-5.17,2.35l.42.55c.55-1.02,1.48-1.64,2.62-1.8l-.29-.69c-2.32,1.26-4.83,2.08-7.45,2.43l.27.64c.92-.78,1.97-1.3,3.15-1.59l-.36-.63c-1.54,1.22-3.28,2.1-5.17,2.64l.29.69c2.39-1.68,5.08-2.81,7.94-3.36l-.36-.63c-.98.76-2.07,1.32-3.25,1.7l.36.63c1.55-1.44,3.19-2.92,5.36-3.26l-.29-.69c-1.91,1.25-3.87,2.42-5.88,3.5l.38.65,3.46-2.17c.41-.26.04-.89-.38-.65-1.5.88-3.07,1.61-4.71,2.18-.46.16-.27.81.2.72l2.01-.36-.42-.55c-.37.78-1.07,1.29-1.94,1.36l.32.56c.31-.68.81-1.18,1.51-1.45l-.29-.69c-.5.28-1.02.47-1.59.54-.47.06-.48.81,0,.75.71-.09,1.35-.29,1.97-.64.36-.2.12-.84-.29-.69-.88.33-1.56.93-1.96,1.79-.11.23.01.59.32.56,1.13-.09,2.09-.71,2.59-1.73.15-.31-.09-.61-.42-.55l-2.01.36.2.72c1.7-.59,3.34-1.34,4.89-2.25l-.38-.65-3.46,2.17c-.41.26-.05.88.38.65,2.01-1.08,3.98-2.25,5.88-3.5.37-.24.12-.75-.29-.69-2.29.36-4.05,1.93-5.69,3.45-.27.25,0,.74.36.63,1.31-.42,2.49-1.05,3.58-1.89.33-.25-.04-.69-.36-.63-2.92.56-5.69,1.73-8.12,3.43-.33.23-.14.81.29.69,2.02-.57,3.86-1.53,5.5-2.83.31-.25-.03-.71-.36-.63-1.3.31-2.46.92-3.48,1.78-.23.2-.06.68.27.64,2.75-.36,5.39-1.21,7.83-2.53.41-.22.1-.74-.29-.69-1.32.18-2.44.98-3.07,2.14-.15.28.1.65.42.55,1.88-.58,3.67-1.4,5.35-2.43.31-.19.19-.7-.19-.7-2.44,0-4.78,1.07-6.33,2.96-.23.27-.02.74.36.63,2.07-.58,4.09-1.31,6.06-2.18.39-.17.11-.81-.29-.69-.92.29-1.79.68-2.62,1.17-.39.23-.11.74.29.69,1.63-.24,3.17-.8,4.57-1.67.38-.24.12-.75-.29-.69-3.45.55-6.58,1.8-9.7,3.34-.43.21-.05.86.38.65h0Z"/>
    <path class="cls-4" d="M36.9,33.19c1-.95,2-1.85,3.27-2.43s2.59-.96,3.87-1.49c2.5-1.03,4.88-2.29,7.13-3.78.41-.27.06-.83-.38-.65-3.02,1.3-6.05,2.6-9.07,3.9-.44.19-.06.84.38.65,3.02-1.3,6.05-2.6,9.07-3.9l-.38-.65c-2.42,1.59-4.99,2.94-7.68,3.99-1.22.48-2.49.84-3.66,1.44s-2.13,1.48-3.08,2.38c-.35.33.18.86.53.53h0Z"/>
    <path class="cls-4" d="M47.52,27.8c.98-.88,2.06-1.65,3.21-2.3l-.45-.59c-.85.75-1.85,1.31-2.94,1.64l.36.63c.97-1.13,2.23-1.97,3.66-2.42.46-.14.26-.87-.2-.72-1.54.48-2.94,1.39-3.99,2.61-.23.27-.02.74.36.63,1.21-.37,2.32-1,3.27-1.84.32-.29-.09-.79-.45-.59-1.2.68-2.33,1.49-3.36,2.42-.36.32.17.85.53.53h0Z"/>
    <path class="cls-4" d="M120.25,30.28l2.23-.58-1.27-1.65c-.51,1.07-1.15,2.01-1.98,2.86-.92.95.24,2.31,1.36,1.77,1.52-.74,3.14-1.21,4.8-1.47l-.6-2.17-2.99,1.04,1.27,1.65c.44-.63.99-1.18,1.61-1.63.85-.6.63-2.14-.57-2.1-.75.03-1.41.21-2.08.53l1.36,1.77c.43-.37.93-.49,1.48-.47l-1.08-1.42c-.11.65-.33,1.24-.76,1.74-.77.9-.01,2.04,1.09,1.88,1.47-.21,2.93-.43,4.4-.64,1.29-.19,2.44-.74,2.23-2.24-.05-.35-.45-.72-.79-.79-1.44-.28-2.89-.22-4.29.25l.6,2.17c1.69-.63,3.48-.71,5.2-.17.81.25,1.6.87,2.48.75,1-.14,1.55-1.05,1.35-1.99-.29-1.42-2.46-.82-2.17.6l.03.16v-.6l-.03.02.4-.4c.14-.1.16.06.03-.09-.1-.11-.43-.2-.57-.26-.3-.13-.61-.25-.93-.35-.71-.22-1.45-.35-2.19-.41-1.42-.12-2.87.09-4.21.58s-.79,2.64.6,2.17c1.01-.34,2.04-.45,3.09-.25l-.79-.79.02.15v-.6c.1-.38.18-.14-.13-.17-.17-.01-.38.06-.55.08-.5.07-1.01.15-1.51.22-.96.14-1.93.28-2.89.42l1.09,1.88c.68-.8,1.16-1.7,1.34-2.74.12-.73-.3-1.4-1.08-1.42-1.17-.04-2.19.38-3.08,1.13-1.03.87.28,2.29,1.36,1.77.3-.15.61-.21.94-.22l-.57-2.1c-.96.68-1.75,1.47-2.42,2.43-.55.79.37,1.97,1.27,1.65l2.99-1.04c1.39-.49.82-2.39-.6-2.17-1.87.29-3.64.87-5.34,1.7l1.36,1.77c.95-.97,1.74-2.09,2.33-3.32.41-.87-.27-1.91-1.27-1.65l-2.23.58c-1.4.36-.81,2.53.6,2.17h0Z"/>
    <path class="cls-4" d="M134.73,29.29c-.92.44-1.97.44-2.98.41-1.17-.03-2.34-.11-3.51-.17-2.41-.13-4.81-.31-7.2-.63-.6-.08-1.12.57-1.12,1.12,0,.67.52,1.05,1.12,1.12,2.57.34,5.16.52,7.76.66,2.36.13,4.86.48,7.07-.58,1.31-.62.17-2.56-1.14-1.94h0Z"/>
    <path class="cls-5" d="M62.75,23.84c6.13,5.27,12.42,10.34,18.84,15.24.86.66,2.48.73,3.47.45,1.04-.29,2.18-1.09,2.69-2.07.55-1.04.83-2.31.45-3.47s-1.08-1.94-2.07-2.69c-.37-.28-.73-.56-1.09-.84-.18-.14-.37-.28-.55-.42.27.21.5.39.09.07-.77-.6-1.54-1.2-2.31-1.8-1.49-1.17-2.97-2.36-4.44-3.55-2.94-2.39-5.85-4.82-8.72-7.29-1.78-1.53-4.64-1.88-6.36,0-1.55,1.69-1.91,4.73,0,6.36h0Z"/>
    <path class="cls-5" d="M41.44,34.04c3.03,2.83,5.83,5.9,8.37,9.17.66.84,2.17,1.32,3.18,1.32,1.1,0,2.42-.49,3.18-1.32s1.37-1.98,1.32-3.18l-.16-1.2c-.21-.76-.6-1.42-1.16-1.99-2.55-3.27-5.35-6.34-8.37-9.17-.86-.81-1.99-1.32-3.18-1.32-1.1,0-2.42.49-3.18,1.32s-1.37,1.98-1.32,3.18.44,2.36,1.32,3.18h0Z"/>
    <path class="cls-5" d="M23.45,42.66l2.22,3.33c.28.52.67.95,1.16,1.26.43.4.94.67,1.53.81.6.19,1.2.21,1.79.08.6-.03,1.16-.21,1.67-.53l.91-.7c.56-.56.94-1.22,1.16-1.99l.16-1.2c0-.81-.21-1.57-.61-2.27l-2.22-3.33c-.28-.52-.67-.95-1.16-1.26-.43-.4-.94-.67-1.53-.81-.6-.19-1.2-.21-1.79-.08-.6.03-1.16.21-1.67.53l-.91.7c-.56.56-.94,1.22-1.16,1.99l-.16,1.2c0,.81.21,1.57.61,2.27h0Z"/>
    <path class="cls-5" d="M84.01,20.73c.26.09.52.19.78.28.34.12.49.2.07.01.5.22,1,.45,1.49.7.98.5,1.93,1.05,2.86,1.64,1.93,1.22,3.76,2.58,5.58,3.95,3.99,3,7.95,6.02,11.9,9.07,1.87,1.44,5.12.35,6.16-1.61,1.26-2.39.38-4.62-1.61-6.16-4.06-3.13-8.13-6.24-12.23-9.32s-7.92-5.61-12.59-7.23c-2.23-.78-5.02.88-5.54,3.14-.57,2.51.76,4.71,3.14,5.54h0Z"/>
    <path class="cls-5" d="M9.83,51.95c10.98-4.34,21.96-8.68,32.94-13.02s21.02-8.01,31.19-12.76c5.53-2.58,10.9-5.49,15.91-8.97,1.33-.92,1.94-2.63,1.08-4.1-.77-1.32-2.77-2-4.1-1.08-8.67,6.01-18.36,10.27-28.12,14.17-10.67,4.27-21.38,8.46-32.07,12.68-6.14,2.43-12.29,4.86-18.43,7.29-1.51.6-2.56,2.01-2.1,3.69.39,1.43,2.18,2.69,3.69,2.1h0Z"/>
    <path class="cls-5" d="M54.31,44.78c17.47-3.7,34.79-8.08,51.9-13.16,4.88-1.45,9.74-2.95,14.59-4.51,1.54-.5,2.54-2.08,2.1-3.69-.42-1.52-2.14-2.59-3.69-2.1-17,5.46-34.21,10.26-51.59,14.35-4.95,1.17-9.92,2.27-14.9,3.33-1.59.34-2.51,2.2-2.1,3.69.45,1.64,2.1,2.43,3.69,2.1h0Z"/>
    <path class="cls-5" d="M85.26,41.88c3.86,0,3.87-6,0-6s-3.87,6,0,6h0Z"/>
    <path class="cls-5" d="M86.82,41.66c3.86,0,3.87-6,0-6s-3.87,6,0,6h0Z"/>
    <path class="cls-5" d="M111.71,40.55c3.86,0,3.87-6,0-6s-3.87,6,0,6h0Z"/>
    <path class="cls-5" d="M112.15,38.33c3.86,0,3.87-6,0-6s-3.87,6,0,6h0Z"/>
    <path class="cls-5" d="M112.15,36.77c3.86,0,3.87-6,0-6s-3.87,6,0,6h0Z"/>
    <path class="cls-5" d="M111.93,35.88c3.86,0,3.87-6,0-6s-3.87,6,0,6h0Z"/>
    <path class="cls-5" d="M109.57,35.47c1.06.86,2.06,1.79,2.98,2.8.27.29.59.5.97.62.36.19.74.27,1.16.26.41.02.8-.07,1.16-.26.37-.12.69-.33.97-.62.52-.57.91-1.32.88-2.12l-.11-.8c-.14-.51-.4-.95-.77-1.32-.92-1.01-1.91-1.95-2.98-2.8-.27-.29-.59-.5-.97-.62-.36-.19-.74-.27-1.16-.26-.41-.02-.8.07-1.16.26-.37.12-.69.33-.97.62-.52.57-.91,1.32-.88,2.12l.11.8c.14.51.4.95.77,1.32h0Z"/>
    <path class="cls-5" d="M32.15,49.44c3.86,0,3.87-6,0-6s-3.87,6,0,6h0Z"/>
    <path class="cls-5" d="M52.6,41.44h-.44c-.41-.02-.8.07-1.16.26-.37.12-.69.33-.97.62-.29.27-.5.59-.62.97-.19.36-.27.74-.26,1.16l.11.8c.14.51.4.95.77,1.32l.61.47c.47.27.97.41,1.51.41h.44c.41.02.8-.07,1.16-.26.37-.12.69-.33.97-.62.29-.27.5-.59.62-.97.19-.36.27-.74.26-1.16l-.11-.8c-.14-.51-.4-.95-.77-1.32l-.61-.47c-.47-.27-.97-.41-1.51-.41h0Z"/>
    <path class="cls-5" d="M50.15,47.66c3.86,0,3.87-6,0-6s-3.87,6,0,6h0Z"/>
    <path class="cls-5" d="M32.61,42.08c16.52-8.91,34.8-13.82,51.7-21.89,1.46-.7,1.85-2.79,1.08-4.1-.87-1.5-2.64-1.78-4.1-1.08-16.91,8.08-35.17,12.98-51.7,21.89-3.4,1.83-.37,7.01,3.03,5.18h0Z"/>
    <path class="cls-5" d="M27.44,45.22c.85,1.31,1.71,2.61,2.56,3.92.41.62,1.04,1.21,1.79,1.38l.8.11c.41.02.8-.07,1.16-.26.25-.07.47-.2.66-.39.33-.21.58-.49.77-.84.36-.69.57-1.55.3-2.31-.29-.84-.58-1.69-.87-2.53-.26-.74-.69-1.39-1.38-1.79-.34-.22-.72-.34-1.12-.36-.4-.09-.8-.07-1.2.05-.73.23-1.43.68-1.79,1.38s-.57,1.55-.3,2.31c.29.84.58,1.69.87,2.53l5.48-2.31c-.85-1.31-1.71-2.61-2.56-3.92-.43-.65-1.03-1.17-1.79-1.38-.4-.13-.8-.14-1.2-.05-.4.02-.77.14-1.12.36-.64.41-1.2,1.03-1.38,1.79s-.14,1.63.3,2.31h0Z"/>
    <path class="cls-5" d="M110.38,21.3c5.22,4.53,10.12,9.41,14.67,14.61l4.24-4.24c-.28-.3-.56-.6-.81-.93.39.5.03.02-.04-.08-.12-.17-.23-.34-.34-.51-.45-.69-.85-1.42-1.24-2.14-.81-1.49-1.56-3.02-2.56-4.4-1.24-1.71-2.67-3.03-4.34-4.31-.69-.53-1.4-1.04-2.1-1.56-.19-.14-.45-.35-.12-.09-.17-.14-.34-.27-.51-.41-.34-.29-.7-.58-1-.92l.77,1.32-.04-.17-.3,2.31.07-.09-1.79,1.38.11-.03-2.92-.77.07.06c1.17,1.05,3.11,1.24,4.24,0,1.05-1.14,1.25-3.12,0-4.24-2.04-1.83-5.24-.63-5.37,2.18-.07,1.63,1.29,2.71,2.43,3.62.95.76,1.94,1.47,2.91,2.2.14.11.63.49.22.17.2.16.41.33.61.49.43.36.85.75,1.23,1.15.18.18.34.37.51.57.08.09.16.19.23.29-.19-.25-.23-.29-.1-.11.27.42.56.81.82,1.24.52.85.98,1.73,1.45,2.61,1.03,1.94,2.15,3.83,3.67,5.43,1.08,1.14,3.17,1.17,4.24,0,1.16-1.26,1.11-2.98,0-4.24-4.55-5.2-9.45-10.08-14.67-14.61-1.18-1.03-3.09-1.25-4.24,0-1.03,1.13-1.27,3.15,0,4.24h0Z"/>
    <path class="cls-1" d="M3.02,49.82L68.57,14,3.02,49.82Z"/>
    <g>
      <path class="cls-5" d="M153.39,22.56c1.16,1.73,1.67,4.25.89,6.37-1.75,4.71-9.59,6.67-13.78,4.3-2.5-1.42-2.29-3.58-5.66-5.37-1.62-.85-2-.54-6.04-1.44-5.93-1.33-8.92-2.05-10.37-4.3-1.19-1.83-.56-3.25-2.02-4.31-1.37-1-3.08-.6-4.95-.31-1.46.23-7.39,1.15-12.44,0-2.61-.59-5.54-1.26-8.45-3.23-.86-.59-2.27-1.66-4.14-1.57-1.46.07-2.48.8-2.97,1.12-3.2,2.12-9.86,3.88-13.48,1.48-2.2-1.45-3.5-4.58-2.96-7.25.72-3.59,4.52-5.31,6.22-6.08,6.52-2.95,14.31-.78,19.26.59,1.6-.62,4.89-1.71,9.16-1.71,1.49,0,3.08.13,4.77.46,6.78,1.32,13.7,7.7,13.77,7.77.47.35,1.19.69,1.78.74.93.08,1.69-.44,1.93-.59,1.85-1.15,5.95-1.15,9.03,0,.86.32,4.89,1.83,5.93,5.19.49,1.57-.1,2.21.59,3.13,1.19,1.57,3.47.48,7.39,1.37,1.76.4,4.82,1.1,6.54,3.64Z"/>
      <path class="cls-2" d="M67.02,8.05c.72-3.59,4.52-5.31,6.22-6.08,6.52-2.95,14.31-.78,19.26.59,1.6-.62,4.89-1.71,9.16-1.71,1.49,0,3.08.13,4.77.46,6.78,1.32,13.7,7.7,13.77,7.77.47.35,1.19.69,1.78.74.93.08,1.69-.44,1.93-.59,1.85-1.15,5.95-1.15,9.03,0,.86.32,4.89,1.83,5.93,5.19.49,1.57-.1,2.21.59,3.13,1.19,1.57,3.47.48,7.39,1.37,1.76.4,4.82,1.1,6.54,3.64,1.16,1.73,1.67,4.25.89,6.37-1.75,4.71-9.59,6.67-13.78,4.3-2.5-1.42-2.29-3.58-5.66-5.37-1.62-.85-2-.54-6.04-1.44-5.93-1.33-8.92-2.05-10.37-4.3-1.19-1.83-.56-3.25-2.02-4.31-1.37-1-3.08-.6-4.95-.31-1.46.23-7.39,1.15-12.44,0-2.61-.59-5.54-1.26-8.45-3.23-.86-.59-2.27-1.66-4.14-1.57-1.46.07-2.48.8-2.97,1.12-3.2,2.12-9.86,3.88-13.48,1.48-2.2-1.45-3.5-4.58-2.96-7.25Z"/>
    </g>
    <g>
      <g>
        <path class="cls-5" d="M138.87,32.73l2.96,28.8L9.09,73.82l-6.43-18.95c-.27-.08-1.34-.43-1.86-1.46-.64-1.25-.2-2.92.71-3.46.64-.38,1.42-.15,1.51-.13,1.74.44,43.3-4.73,135.85-17.09Z"/>
        <path class="cls-2" d="M9.09,73.82l132.74-12.29-2.96-28.8C46.32,45.09,4.76,50.26,3.02,49.82c-.09-.02-.87-.25-1.51.13-.91.54-1.35,2.21-.71,3.46.52,1.03,1.59,1.38,1.86,1.46"/>
      </g>
      <g>
        <path class="cls-4" d="M136.94,55.01c.34,1.43-.9,2.86-1.18,3.18-1.71,1.97-4.63,1.98-8.3,2-11.95.08-15.84.21-20.44,1.34-1.61.39-1.11.37-3.11.89-6.87,1.77-11.06,1.61-20.6,2.07-6.25.3-9.38.45-12.86.89-7.68.96-7.76,1.78-13.51,2.29-7.65.69-7.92-.72-16.14,0-6.46.57-6.45,1.46-12,1.56-7.01.13-11.11,0-11.11,0-2.08-.06-3.13-.14-4.75.19-2.72.57-3.97,1.68-4.85,1.06-.64-.46-.34-1.31-.48-3.92-.17-3.19-.26-4.91-1.33-6.37-1.26-1.71-2.63-1.34-3.26-2.96-.53-1.36-.15-3.16.89-4.15,1.23-1.17,3.14-.97,4-.89,4.42.43,8.89-.05,13.33,0,2.54.04.98-.24,12.59-1.77,9.17-1.22,12.14-1.31,13.63-1.34,3.51-.06,3.96.16,7.26,0,3.44-.16,5.8-.55,10.52-1.33,6.24-1.03,10.38-1.71,15.41-3.34,1.02-.33,1.59-.54,2.66-.81,4.5-1.13,8.09-.85,10.08-.74.55.03,7.02.38,12.44-.14,7.71-.75,18.72-3.81,23.11-4.3.08,0,.81-.09,1.78,0,1.05.09,3.52.31,4.15,1.77.23.54.14,1.07,0,1.93-.22,1.33-.66,1.38-.74,2.29-.11,1.23.66,1.38.88,3.19.06.53-.02.39,0,2.22.02,1.31.03,1.96.09,2.23.4,1.59,1.56,1.75,1.84,2.96Z"/>
        <path class="cls-2" d="M3.91,53.08c1.23-1.17,3.14-.97,4-.89,4.42.43,8.89-.05,13.33,0,2.54.04.98-.24,12.59-1.77,9.17-1.22,12.14-1.31,13.63-1.34,3.51-.06,3.96.16,7.26,0,3.44-.16,5.8-.55,10.52-1.33,6.24-1.03,10.38-1.71,15.41-3.34,1.02-.33,1.59-.54,2.66-.81,4.5-1.13,8.09-.85,10.08-.74.55.03,7.02.38,12.44-.14,7.71-.75,18.72-3.81,23.11-4.3.08,0,.81-.09,1.78,0,1.05.09,3.52.31,4.15,1.77.23.54.14,1.07,0,1.93-.22,1.33-.66,1.38-.74,2.29-.11,1.23.66,1.38.88,3.19.06.53-.02.39,0,2.22.02,1.31.03,1.96.09,2.23.4,1.59,1.56,1.75,1.84,2.96.34,1.43-.9,2.86-1.18,3.18-1.71,1.97-4.63,1.98-8.3,2-11.95.08-15.84.21-20.44,1.34-1.61.39-1.11.37-3.11.89-6.87,1.77-11.06,1.61-20.6,2.07-6.25.3-9.38.45-12.86.89-7.68.96-7.76,1.78-13.51,2.29-7.65.69-7.92-.72-16.14,0-6.46.57-6.45,1.46-12,1.56-7.01.13-11.11,0-11.11,0-2.08-.06-3.13-.14-4.75.19-2.72.57-3.97,1.68-4.85,1.06-.64-.46-.34-1.31-.48-3.92-.17-3.19-.26-4.91-1.33-6.37-1.26-1.71-2.63-1.34-3.26-2.96-.53-1.36-.15-3.16.89-4.15Z"/>
      </g>
      <ellipse class="cls-3" cx="86.8" cy="50.71" rx="8" ry="6.89"/>
      <path class="cls-3" d="M41.83,49.82c4.42,0,8,3.09,8,6.89s-3.58,6.89-8,6.89-8-3.08-8-6.89,3.59-6.89,8-6.89Z"/>
      <path class="cls-3" d="M122.77,40.24c2.78,0,5.02,1.94,5.02,4.32s-2.24,4.33-5.02,4.33-5.02-1.94-5.02-4.33,2.25-4.32,5.02-4.32Z"/>
      <path class="cls-3" d="M10.1,53.08c2.34,0,4.23,1.62,4.23,3.63s-1.89,3.64-4.23,3.64-4.22-1.63-4.22-3.64,1.89-3.63,4.22-3.63Z"/>
      <path class="cls-3" d="M51.28,56.15c3.13,0,5.67,2.19,5.67,4.89s-2.54,4.88-5.67,4.88-5.68-2.18-5.68-4.88,2.54-4.89,5.68-4.89Z"/>
      <ellipse class="cls-3" cx="97.47" cy="48.75" rx="5.02" ry="4.32"/>
      <path class="cls-3" d="M128.92,48.75c3.39,0,6.14,2.45,6.14,5.46s-2.75,5.46-6.14,5.46-6.15-2.44-6.15-5.46,2.75-5.46,6.15-5.46Z"/>
      <path class="cls-3" d="M63.55,49.08c2.77,0,5.02,1.94,5.02,4.33s-2.25,4.32-5.02,4.32-5.02-1.94-5.02-4.32,2.24-4.33,5.02-4.33Z"/>
      <path class="cls-3" d="M18.5,57.6c3.37,0,6.11,2.35,6.11,5.25s-2.74,5.26-6.11,5.26-6.11-2.35-6.11-5.26,2.74-5.25,6.11-5.25Z"/>
      <path class="cls-3" d="M89.87,54.99c2.77,0,5.02,1.94,5.02,4.33s-2.25,4.32-5.02,4.32-5.03-1.93-5.03-4.32,2.25-4.33,5.03-4.33Z"/>
      <path class="cls-3" d="M30.78,51.82c2.77,0,5.02,1.94,5.02,4.33s-2.25,4.32-5.02,4.32-5.03-1.93-5.03-4.32,2.25-4.33,5.03-4.33Z"/>
      <path class="cls-3" d="M116.18,48.09c2.78,0,5.02,1.93,5.02,4.32s-2.24,4.33-5.02,4.33-5.02-1.94-5.02-4.33,2.25-4.32,5.02-4.32Z"/>
      <path class="cls-3" d="M107.04,57.05c1.93,0,1.93-3,0-3s-1.93,3,0,3h0Z"/>
      <path class="cls-3" d="M114.15,46.61c1.93,0,1.93-3,0-3s-1.93,3,0,3h0Z"/>
      <path class="cls-3" d="M131.04,48.83c1.93,0,1.93-3,0-3s-1.93,3,0,3h0Z"/>
      <path class="cls-3" d="M79.04,61.27c1.93,0,1.93-3,0-3s-1.93,3,0,3h0Z"/>
      <path class="cls-3" d="M77.26,53.72c1.93,0,1.93-3,0-3s-1.93,3,0,3h0Z"/>
      <path class="cls-3" d="M68.37,63.94c1.93,0,1.93-3,0-3s-1.93,3,0,3h0Z"/>
      <path class="cls-3" d="M21.71,58.83c1.93,0,1.93-3,0-3s-1.93,3,0,3h0Z"/>
      <path class="cls-3" d="M32.6,67.49c1.93,0,1.93-3,0-3s-1.93,3,0,3h0Z"/>
      <path class="cls-3" d="M73.68,53.41c2.78,0,5.02,1.94,5.02,4.32s-2.24,4.33-5.02,4.33-5.02-1.94-5.02-4.33,2.25-4.32,5.02-4.32Z"/>
    </g>
  </g>
</svg>