<?xml version="1.0" encoding="UTF-8"?>
<svg id="Layer_2" data-name="Layer 2" xmlns="http://www.w3.org/2000/svg" viewBox="0 0 70.94 90.91">
  <defs>
    <style>
      .cls-1 {
        fill: #fcee21;
      }

      .cls-2 {
        fill: #fdf;
      }

      .cls-2, .cls-3 {
        stroke: #000;
        stroke-miterlimit: 10;
        stroke-width: .5px;
      }

      .cls-3 {
        fill: #f6d29b;
      }

      .cls-4 {
        fill: #22b573;
      }

      .cls-5 {
        fill: #912dcd;
      }

      .cls-6 {
        fill: aqua;
      }
    </style>
  </defs>
  <g id="poptart">
    <rect class="cls-3" x=".25" y=".25" width="70.44" height="90.41" rx="2" ry="2"/>
    <path class="cls-2" d="M58.03,86.24c-4.09-1.02-4.76-4.2-8-4.41-3.81-.25-4.81,4.42-8.89,4.4-3.71-.02-4.38-3.9-8.22-3.95-3.62-.05-4.07,3.37-8.44,3.95-3.9.52-4.58-2.07-9.11-1.72-4.52.34-5.94,2.31-7.56,1.56-1.89-.89-2.43-5.05-1.29-8.02.92-2.39,2.3-2.33,2.63-4.21.56-3.15-3.15-4.4-3.11-7.78.04-3.64,4.38-4.45,4.22-7.66-.18-3.56-5.65-4.75-5.32-7.56.3-2.53,4.88-2.81,5.1-5.28.24-2.71-5.13-3.91-5.11-7,.02-2.75,4.28-3.38,4.45-6.34.18-3.17-4.6-4.31-4.45-7.5.15-3.09,4.75-3.78,4.67-6.67-.07-2.57-3.75-3.26-4.52-6.89-.39-1.82.15-3.47.59-4.48.58-.69,1.6-1.68,3.04-1.93,3.12-.53,4.61,3.06,7.78,3.03,3.5-.04,4.04-4.45,7.56-4.67,3.6-.22,4.4,4.31,8.55,4.67,4.21.36,5.45-4.14,9.8-3.79,3.93.31,4.43,4.1,8.1,3.93,2.96-.13,3.79-2.63,7.77-3.17,2-.27,3.73.11,4.89.47.39.22,1.02.67,1.47,1.45,1.05,1.84.11,3.84,0,4.06-.69,1.11-1.48,2.78-1.47,4.82.01,2.62,1.34,3.35,1.96,5.82,1.09,4.35-2.16,5.53-1.8,10.83.28,4.17,2.35,4.44,2.08,8-.32,4.17-3.22,4.41-3.35,8.05-.16,4.36,3.95,5.7,3.4,10.13-.31,2.51-1.66,2.34-1.79,4.87-.18,3.52,2.4,4.71,1.9,8.12-.02.12-.11.53-.17.79-.42,1.86-.67,2.75-.76,3.15-.46,2.1,1.02,2.97,1.35,6.06.09.85.12,2.14-.27,3.78-1.89.89-4.7,1.82-7.66,1.08Z"/>
    <g>
      <path class="cls-4" d="M17.4,71.1l-3.36-1.13c-.51-.17-1.04.19-1.18.81h0c-.14.62.16,1.26.67,1.43l3.36,1.13c.51.17,1.04-.19,1.18-.81h0c.14-.62-.16-1.26-.67-1.43Z"/>
      <path class="cls-6" d="M22.09,77.89l-3.48.04c-.53,0-.95.53-.95,1.17h0c0,.64.44,1.16.97,1.15l3.48-.04c.53,0,.95-.53.95-1.17h0c0-.64-.44-1.16-.97-1.15Z"/>
      <path class="cls-5" d="M23.96,71.07l.58-4.17c.09-.63-.26-1.23-.79-1.34h0c-.52-.11-1.02.32-1.1.95l-.58,4.17c-.09.63.26,1.23.79,1.34h0c.52.11,1.02-.32,1.1-.95Z"/>
      <path class="cls-1" d="M16.99,68.02l-.34-.17-.33.18c-.34.19-.76-.08-.73-.47l.04-.59-.4-.53c-.21-.28-.07-.68.26-.77l.51-.15.18-.38c.17-.37.7-.38.89-.01l.18.37.51.13c.34.08.48.48.28.76l-.39.55.06.6c.04.39-.37.66-.71.48Z"/>
      <path class="cls-1" d="M25.71,77.04l-.21-.11-.2.11c-.34.19-.76-.08-.73-.47l.03-.42-.3-.4c-.21-.28-.07-.68.26-.77l.37-.11.11-.23c.17-.37.7-.38.89-.01l.11.22.37.09c.34.08.48.48.28.76l-.29.41.04.42c.04.39-.37.66-.71.48Z"/>
    </g>
    <g>
      <path class="cls-4" d="M59.03,72.6l3.49.6c.53.09,1-.35,1.04-.98h0c.04-.63-.35-1.22-.88-1.31l-3.49-.6c-.53-.09-1,.35-1.04.98h0c-.04.63.35,1.22.88,1.31Z"/>
      <path class="cls-6" d="M53.36,66.61l3.43-.57c.52-.09.86-.67.76-1.31h0c-.1-.63-.61-1.08-1.13-.99l-3.43.57c-.52.09-.86.67-.76,1.31h0c.1.63.61,1.08,1.13.99Z"/>
      <path class="cls-5" d="M52.55,73.63l.07,4.21c.01.64.45,1.18.98,1.2h0c.53.02.95-.47.94-1.11l-.07-4.21c-.01-.64-.45-1.18-.98-1.2h0c-.53-.02-.95.47-.94,1.11Z"/>
      <path class="cls-1" d="M59.91,75.58l.36.12.3-.23c.31-.24.76-.04.79.35l.05.59.48.47c.25.24.18.66-.14.8l-.48.22-.12.4c-.12.4-.64.48-.87.15l-.24-.34-.52-.05c-.35-.03-.55-.4-.4-.71l.3-.6-.15-.58c-.09-.38.26-.71.63-.59Z"/>
      <path class="cls-1" d="M49.92,68l.22.07.18-.14c.31-.24.76-.04.79.35l.04.42.36.35c.25.24.18.66-.14.8l-.35.16-.07.24c-.12.4-.64.48-.87.15l-.14-.2-.38-.03c-.35-.03-.55-.4-.4-.71l.23-.45-.1-.41c-.09-.38.26-.71.63-.59Z"/>
    </g>
    <g>
      <path class="cls-4" d="M37.98,56.16l-3.25,1.4c-.49.21-.64.83-.34,1.39h0c.31.56.96.83,1.45.62l3.25-1.4c.49-.21.64-.83.34-1.39h0c-.31-.56-.96-.83-1.45-.62Z"/>
      <path class="cls-6" d="M46,58.09l-2.57,2.35c-.39.36-.36,1.03.08,1.51h0c.43.48,1.1.57,1.49.21l2.57-2.35c.39-.36.36-1.03-.08-1.51h0c-.43-.48-1.1-.57-1.49-.21Z"/>
      <path class="cls-5" d="M42.85,51.76l-2.35-3.49c-.36-.53-1.02-.74-1.48-.47h0c-.46.27-.54.92-.18,1.45l2.35,3.49c.36.53,1.02.74,1.48.47h0c.46-.27.54-.92.18-1.45Z"/>
      <path class="cls-1" d="M35.61,54.14l-.37.1-.13.36c-.13.37-.61.45-.85.14l-.37-.47-.66-.13c-.34-.07-.51-.45-.32-.75l.28-.45-.12-.4c-.12-.39.27-.75.65-.6l.39.15.46-.24c.31-.16.68.04.72.38l.08.67.44.41c.28.26.17.74-.21.84Z"/>
      <path class="cls-1" d="M48.13,55.05l-.22.06-.08.22c-.13.37-.61.45-.85.14l-.26-.33-.5-.1c-.34-.07-.51-.45-.32-.75l.21-.33-.07-.24c-.12-.39.27-.75.65-.6l.23.09.33-.18c.31-.16.68.04.72.38l.06.5.31.29c.28.26.17.74-.21.84Z"/>
    </g>
    <g>
      <path class="cls-4" d="M30.29,38.68l-3.36-1.13c-.51-.17-1.04.19-1.18.81h0c-.14.62.16,1.26.67,1.43l3.36,1.13c.51.17,1.04-.19,1.18-.81h0c.14-.62-.16-1.26-.67-1.43Z"/>
      <path class="cls-6" d="M34.98,45.47l-3.48.04c-.53,0-.95.53-.95,1.17h0c0,.64.44,1.16.97,1.15l3.48-.04c.53,0,.95-.53.95-1.17h0c0-.64-.44-1.16-.97-1.15Z"/>
      <path class="cls-5" d="M36.85,38.65l.58-4.17c.09-.63-.26-1.23-.79-1.34h0c-.52-.11-1.02.32-1.1.95l-.58,4.17c-.09.63.26,1.23.79,1.34h0c.52.11,1.02-.32,1.1-.95Z"/>
      <path class="cls-1" d="M29.88,35.6l-.34-.17-.33.18c-.34.19-.76-.08-.73-.47l.04-.59-.4-.53c-.21-.28-.07-.68.26-.77l.51-.15.18-.38c.17-.37.7-.38.89-.01l.18.37.51.13c.34.08.48.48.28.76l-.39.55.06.6c.04.39-.37.66-.71.48Z"/>
      <path class="cls-1" d="M38.59,44.62l-.21-.11-.2.11c-.34.19-.76-.08-.73-.47l.03-.42-.3-.4c-.21-.28-.07-.68.26-.77l.37-.11.11-.23c.17-.37.7-.38.89-.01l.11.22.37.09c.34.08.48.48.28.76l-.29.41.04.42c.04.39-.37.66-.71.48Z"/>
    </g>
    <g>
      <path class="cls-4" d="M20.78,51.77l.34-3.52c.05-.54-.42-.97-1.06-.97h0c-.63,0-1.19.44-1.24.97l-.34,3.52c-.05.54.42.97,1.06.97h0c.63,0,1.19-.44,1.24-.97Z"/>
      <path class="cls-6" d="M15.22,57.87l-.82-3.38c-.12-.51-.73-.81-1.36-.66h0c-.62.15-1.03.69-.91,1.2l.82,3.38c.12.51.73.81,1.36.66h0c.62-.15,1.03-.69.91-1.2Z"/>
      <path class="cls-5" d="M22.28,58.16l4.19-.38c.64-.06,1.14-.54,1.13-1.07h0c-.01-.53-.54-.92-1.18-.86l-4.19.38c-.64.06-1.14.54-1.13,1.07h0c.01.53.54.92,1.18.86Z"/>
      <path class="cls-1" d="M23.69,50.68l.09-.37-.25-.28c-.26-.29-.1-.75.29-.82l.59-.09.43-.51c.22-.26.64-.22.81.08l.26.47.41.09c.4.09.53.6.21.86l-.32.26v.52c-.02.35-.37.58-.69.45l-.62-.26-.57.19c-.37.12-.73-.21-.63-.59Z"/>
      <path class="cls-1" d="M16.86,61.2l.06-.23-.15-.17c-.26-.29-.1-.75.29-.82l.41-.07.32-.39c.22-.26.64-.22.81.08l.19.34.24.05c.4.09.53.6.21.86l-.19.16v.38c-.01.35-.37.58-.69.45l-.47-.19-.4.13c-.37.12-.73-.21-.63-.59Z"/>
    </g>
    <g>
      <path class="cls-4" d="M37.15,70.45l-3.36-1.13c-.51-.17-1.04.19-1.18.81h0c-.14.62.16,1.26.67,1.43l3.36,1.13c.51.17,1.04-.19,1.18-.81h0c.14-.62-.16-1.26-.67-1.43Z"/>
      <path class="cls-6" d="M41.84,77.23l-3.48.04c-.53,0-.95.53-.95,1.17h0c0,.64.44,1.16.97,1.15l3.48-.04c.53,0,.95-.53.95-1.17h0c0-.64-.44-1.16-.97-1.15Z"/>
      <path class="cls-5" d="M43.71,70.42l.58-4.17c.09-.63-.26-1.23-.79-1.34h0c-.52-.11-1.02.32-1.1.95l-.58,4.17c-.09.63.26,1.23.79,1.34h0c.52.11,1.02-.32,1.1-.95Z"/>
      <path class="cls-1" d="M36.74,67.36l-.34-.17-.33.18c-.34.19-.76-.08-.73-.47l.04-.59-.4-.53c-.21-.28-.07-.68.26-.77l.51-.15.18-.38c.17-.37.7-.38.89-.01l.18.37.51.13c.34.08.48.48.28.76l-.39.55.06.6c.04.39-.37.66-.71.48Z"/>
      <path class="cls-1" d="M45.45,76.39l-.21-.11-.2.11c-.34.19-.76-.08-.73-.47l.03-.42-.3-.4c-.21-.28-.07-.68.26-.77l.37-.11.11-.23c.17-.37.7-.38.89-.01l.11.22.37.09c.34.08.48.48.28.76l-.29.41.04.42c.04.39-.37.66-.71.48Z"/>
    </g>
    <g>
      <path class="cls-4" d="M43.7,32.8l-1.24,3.31c-.19.5.16,1.04.77,1.21h0c.61.16,1.26-.11,1.45-.62l1.24-3.31c.19-.5-.16-1.04-.77-1.21h0c-.61-.16-1.26.11-1.45.62Z"/>
      <path class="cls-6" d="M50.65,28.35l-.08,3.48c-.01.53.5.97,1.14.99h0c.64.02,1.17-.4,1.19-.93l.08-3.48c.01-.53-.5-.97-1.14-.99h0c-.64-.02-1.17.4-1.19.93Z"/>
      <path class="cls-5" d="M43.9,26.24l-4.15-.72c-.63-.11-1.24.22-1.37.74h0c-.12.52.29,1.03.92,1.14l4.15.72c.63.11,1.24-.22,1.37-.74h0c.12-.52-.29-1.03-.92-1.14Z"/>
      <path class="cls-1" d="M40.61,33.1l-.19.34.17.34c.18.35-.1.75-.49.71l-.59-.06-.55.38c-.28.2-.68.05-.76-.29l-.13-.52-.37-.19c-.37-.19-.36-.72.02-.89l.38-.17.14-.5c.1-.33.5-.47.77-.26l.53.41.6-.03c.39-.02.65.39.46.73Z"/>
      <path class="cls-1" d="M49.93,24.71l-.11.2.1.2c.18.35-.1.75-.49.71l-.42-.04-.41.29c-.28.2-.68.05-.76-.29l-.09-.37-.22-.11c-.37-.19-.36-.72.02-.89l.22-.1.1-.36c.1-.33.5-.47.77-.26l.4.31.42-.02c.39-.02.65.39.46.73Z"/>
    </g>
    <g>
      <path class="cls-4" d="M53.75,46.17l-.54,3.5c-.08.53.37.99,1,1.02h0c.63.03,1.21-.37,1.3-.9l.54-3.5c.08-.53-.37-.99-1-1.02h0c-.63-.03-1.21.37-1.3.9Z"/>
      <path class="cls-6" d="M59.64,40.39l.63,3.42c.1.52.69.85,1.32.73h0c.63-.11,1.07-.63.97-1.15l-.63-3.42c-.1-.52-.69-.85-1.32-.73h0c-.63.11-1.07.63-.97,1.15Z"/>
      <path class="cls-5" d="M52.6,39.71l-4.21.14c-.64.02-1.17.47-1.19,1h0c-.02.53.49.95,1.13.92l4.21-.14c.64-.02,1.17-.47,1.19-1h0c.02-.53-.49-.95-1.13-.92Z"/>
      <path class="cls-1" d="M50.78,47.1l-.11.37.24.3c.24.3.05.76-.33.8l-.59.06-.46.49c-.24.25-.65.19-.8-.12l-.23-.48-.41-.11c-.4-.11-.49-.63-.16-.87l.33-.25.04-.52c.03-.35.39-.56.7-.41l.61.29.58-.16c.37-.1.71.25.6.62Z"/>
      <path class="cls-1" d="M58.18,36.98l-.07.22.14.18c.24.3.05.76-.33.8l-.42.04-.35.37c-.24.25-.65.19-.8-.12l-.17-.35-.24-.07c-.4-.11-.49-.63-.16-.87l.2-.14.03-.38c.03-.35.39-.56.7-.41l.46.22.41-.11c.37-.1.71.25.6.62Z"/>
    </g>
    <g>
      <path class="cls-4" d="M33.94,19.19l-2.53,2.48c-.38.38-.3,1.01.19,1.42h0c.49.41,1.19.43,1.58.06l2.53-2.48c.38-.38.3-1.01-.19-1.42h0c-.49-.41-1.19-.43-1.58-.06Z"/>
      <path class="cls-6" d="M42.12,18.11l-1.55,3.12c-.24.47.04,1.09.61,1.38h0c.57.29,1.23.14,1.47-.34l1.55-3.12c.24-.47-.04-1.09-.61-1.38h0c-.57-.29-1.23-.14-1.47.34Z"/>
      <path class="cls-5" d="M36.9,13.34l-3.45-2.41c-.52-.37-1.22-.33-1.55.09h0c-.33.42-.18,1.05.35,1.42l3.45,2.41c.52.37,1.22.33,1.55-.09h0c.33-.42.18-1.05-.35-1.42Z"/>
      <path class="cls-1" d="M31.01,18.16l-.31.23v.38c.02.39-.4.64-.73.44l-.51-.31-.66.11c-.34.06-.63-.24-.57-.58l.1-.52-.26-.33c-.25-.33-.02-.8.39-.8h.41s.34-.39.34-.39c.23-.26.65-.21.81.1l.31.6.56.22c.36.14.42.63.11.86Z"/>
      <path class="cls-1" d="M43.01,14.5l-.19.14v.23c.02.39-.4.64-.74.44l-.36-.22-.5.09c-.34.06-.63-.24-.57-.58l.07-.38-.15-.2c-.25-.33-.02-.8.39-.8h.24s.25-.28.25-.28c.23-.26.65-.21.81.1l.23.45.39.16c.36.14.42.63.11.86Z"/>
    </g>
    <g>
      <path class="cls-4" d="M21.39,18.32l3.31,1.24c.5.19,1.04-.16,1.21-.77h0c.16-.61-.11-1.26-.62-1.45l-3.31-1.24c-.5-.19-1.04.16-1.21.77h0c-.16.61.11,1.26.62,1.45Z"/>
      <path class="cls-6" d="M16.94,11.38l3.48.08c.53.01.97-.5.99-1.14h0c.02-.64-.4-1.17-.93-1.19l-3.48-.08c-.53-.01-.97.5-.99,1.14h0c-.02.64.4,1.17.93,1.19Z"/>
      <path class="cls-5" d="M14.83,18.13l-.72,4.15c-.11.63.22,1.24.74,1.37h0c.52.12,1.03-.29,1.14-.92l.72-4.15c.11-.63-.22-1.24-.74-1.37h0c-.52-.12-1.03.29-1.14.92Z"/>
      <path class="cls-1" d="M21.69,21.42l.34.19.34-.17c.35-.18.75.1.71.49l-.06.59.38.55c.2.28.05.68-.29.76l-.52.13-.19.37c-.19.37-.72.36-.89-.02l-.17-.38-.5-.14c-.33-.1-.47-.5-.26-.77l.41-.53-.03-.6c-.02-.39.39-.65.73-.46Z"/>
      <path class="cls-1" d="M13.3,12.1l.2.11.2-.1c.35-.18.75.1.71.49l-.04.42.29.41c.2.28.05.68-.29.76l-.37.09-.11.22c-.19.37-.72.36-.89-.02l-.1-.22-.36-.1c-.33-.1-.47-.5-.26-.77l.31-.4-.02-.42c-.02-.39.39-.65.73-.46Z"/>
    </g>
    <g>
      <path class="cls-4" d="M52.85,15.37l-3.36-1.13c-.51-.17-1.04.19-1.18.81h0c-.14.62.16,1.26.67,1.43l3.36,1.13c.51.17,1.04-.19,1.18-.81h0c.14-.62-.16-1.26-.67-1.43Z"/>
      <path class="cls-6" d="M57.54,22.16l-3.48.04c-.53,0-.95.53-.95,1.17h0c0,.64.44,1.16.97,1.15l3.48-.04c.53,0,.95-.53.95-1.17h0c0-.64-.44-1.16-.97-1.15Z"/>
      <path class="cls-5" d="M59.41,15.34l.58-4.17c.09-.63-.26-1.23-.79-1.34h0c-.52-.11-1.02.32-1.1.95l-.58,4.17c-.09.63.26,1.23.79,1.34h0c.52.11,1.02-.32,1.1-.95Z"/>
      <path class="cls-1" d="M52.44,12.29l-.34-.17-.33.18c-.34.19-.76-.08-.73-.47l.04-.59-.4-.53c-.21-.28-.07-.68.26-.77l.51-.15.18-.38c.17-.37.7-.38.89-.01l.18.37.51.13c.34.08.48.48.28.76l-.39.55.06.6c.04.39-.37.66-.71.48Z"/>
      <path class="cls-1" d="M61.16,21.31l-.21-.11-.2.11c-.34.19-.76-.08-.73-.47l.03-.42-.3-.4c-.21-.28-.07-.68.26-.77l.37-.11.11-.23c.17-.37.7-.38.89-.01l.11.22.37.09c.34.08.48.48.28.76l-.29.41.04.42c.04.39-.37.66-.71.48Z"/>
    </g>
    <g>
      <path class="cls-4" d="M18.69,36.96l.93,3.42c.14.52.74.76,1.33.53h0c.59-.23.96-.83.82-1.35l-.93-3.42c-.14-.52-.74-.76-1.33-.53h0c-.59.23-.96.83-.82,1.35Z"/>
      <path class="cls-6" d="M21.73,29.3l1.97,2.87c.3.44.97.5,1.5.14h0c.53-.36.72-1.01.42-1.44l-1.97-2.87c-.3-.44-.97-.5-1.5-.14h0c-.53.36-.72,1.01-.42,1.44Z"/>
      <path class="cls-5" d="M15.02,31.53l-3.79,1.84c-.58.28-.88.91-.68,1.4h0c.2.49.83.67,1.41.39l3.79-1.84c.58-.28.88-.91.68-1.4h0c-.2-.49-.83-.67-1.41-.39Z"/>
      <path class="cls-1" d="M16.36,39.02l.04.38.34.18c.35.18.36.67.02.86l-.52.3-.22.63c-.11.33-.52.44-.78.21l-.41-.35-.42.06c-.41.06-.71-.37-.5-.73l.21-.36-.18-.49c-.12-.33.13-.67.48-.66l.67.02.47-.38c.3-.24.75-.06.8.33Z"/>
      <path class="cls-1" d="M19.02,26.76l.03.23.2.11c.35.18.36.67.02.86l-.36.21-.17.48c-.11.33-.52.44-.78.21l-.29-.25-.25.04c-.41.06-.71-.37-.5-.73l.12-.21-.13-.36c-.12-.33.13-.67.48-.66h.51s.33-.25.33-.25c.3-.24.75-.06.8.33Z"/>
    </g>
  </g>
</svg>